<svg width="336" height="42" viewBox="0 0 336 42" fill="none" xmlns="http://www.w3.org/2000/svg">
<path opacity="0.4" d="M3.77515 41.1695H331.775C335.775 41.1695 336.975 35.7695 333.275 34.0695C321.275 28.6695 303.275 22.8696 288.675 28.2696C287.075 28.8696 285.375 28.2696 284.375 26.8696C266.775 1.76955 248.075 -5.53045 219.175 4.06955C189.375 13.9695 173.975 21.2696 169.475 13.0696C165.075 5.16955 136.275 0.769552 114.775 20.8696C113.575 22.0696 111.675 22.2696 110.275 21.3696C92.8751 10.1696 61.7752 14.5695 44.2752 30.0695C43.4752 30.7695 42.3752 31.0696 41.3752 30.9696C29.6752 29.3696 12.2751 29.8695 2.17514 34.0695C-1.42486 35.6695 -0.324851 41.1695 3.77515 41.1695Z" fill="white"/>
</svg>
