<svg width="24" height="24" viewBox="0 0 24 24" fill="none" xmlns="http://www.w3.org/2000/svg">
<path d="M19.5 15.1768L15.9189 13.7441L14.8574 15.5146C14.5896 15.9608 14.0243 16.1267 13.5576 15.8965C11.1888 14.7282 9.27181 12.8112 8.10352 10.4424C7.87334 9.97568 8.03919 9.41037 8.48535 9.14258L10.2549 8.08008L8.82324 4.5H5.5C5.23478 4.5 4.9805 4.60543 4.79297 4.79297C4.61027 4.97567 4.50528 5.2217 4.5 5.47949C4.73111 9.12154 6.28311 12.5546 8.86426 15.1357C11.4452 17.7166 14.8779 19.2677 18.5195 19.499C18.7777 19.494 19.0241 19.39 19.207 19.207C19.3946 19.0195 19.5 18.7652 19.5 18.5V15.1768ZM21.5 18.5C21.5 19.2957 21.1837 20.0585 20.6211 20.6211C20.0585 21.1837 19.2957 21.5 18.5 21.5C18.4798 21.5 18.4596 21.4993 18.4395 21.498C14.2949 21.2462 10.3862 19.4858 7.4502 16.5498C4.51416 13.6138 2.75382 9.70508 2.50195 5.56055C2.50073 5.54039 2.5 5.5202 2.5 5.5C2.5 4.70435 2.8163 3.94152 3.37891 3.37891C3.94152 2.8163 4.70435 2.5 5.5 2.5H9.5C9.9089 2.5 10.2768 2.74925 10.4287 3.12891L12.4287 8.12891C12.6108 8.58449 12.4353 9.10493 12.0146 9.35742L10.3418 10.3604C11.1656 11.704 12.2951 12.8333 13.6387 13.6572L14.6426 11.9854L14.6934 11.9092C14.9603 11.5442 15.4441 11.4007 15.8711 11.5713L20.8711 13.5713C21.2508 13.7232 21.5 14.0911 21.5 14.5V18.5Z" fill="#D98A4E"/>
</svg>
