<svg width="96" height="112" viewBox="0 0 96 112" fill="none" xmlns="http://www.w3.org/2000/svg">
<g clip-path="url(#clip0_16_203)">
<path d="M87.4233 13.3221L52.1109 0.707368C49.4492 -0.235789 46.5508 -0.235789 43.8891 0.707368L8.57671 13.3221C3.43068 15.1495 0 20.1011 0 25.7011V79.0484C0 83.8821 2.54344 88.3032 6.68392 90.6021L41.9963 110.408C43.8891 111.469 45.9593 112 48.0296 112C50.0998 112 52.1701 111.469 54.0628 110.408L89.3752 90.661C93.4566 88.3621 96.0591 83.941 96.0591 79.1074V25.7011C96 20.1011 92.5693 15.1495 87.4233 13.3221Z" fill="#4A291A"/>
<path d="M48.6804 15.2085C49.0353 15.2085 49.3311 15.2674 49.686 15.3853C50.8098 15.739 51.6379 16.6232 51.8745 17.7432L54.0039 26.1727C55.9558 22.459 59.9189 17.6843 68.1407 15.8569C68.3773 15.798 68.6139 15.798 68.8505 15.798C70.2109 15.798 71.5122 16.6822 71.9854 17.979C72.1037 18.2737 74.4105 24.8758 74.1739 33.0695C85.2349 38.7285 85.4715 55.5874 84.5251 62.0127C84.3477 63.1916 83.5788 64.1348 82.4549 64.6064C82.1 64.7832 81.686 64.8422 81.2719 64.8422C81.2719 68.1432 80.6213 71.2085 79.4383 73.9201C76.7174 80.1095 71.2165 85.7095 64.4734 89.2464C61.0427 91.0148 57.2571 92.2527 53.7673 92.6653C53.649 92.6653 53.5898 92.6653 53.4715 92.6653C51.5788 92.9011 49.7451 93.019 47.9706 93.019C41.2276 93.019 36.4364 91.3095 33.5972 89.8358C29.9891 88.0085 27.3274 85.5327 26.3218 82.998C25.3163 80.5222 25.9669 77.9874 27.978 76.5137C28.747 75.9243 31.8819 73.2716 35.076 70.0885C36.1407 69.0274 36.9688 68.2022 37.6194 67.4948C36.0224 67.4358 34.0704 67.3769 32.0593 67.3769C29.8708 67.3769 27.6231 67.4359 25.6712 67.4359C25.5529 67.4359 25.4346 67.4359 25.3163 67.4359C14.6693 67.4359 10.588 61.3053 9.1684 58.2401C8.45861 57.179 8.04456 55.8822 7.92626 54.5853C7.74881 52.5222 8.9318 50.518 10.8246 49.6337C14.551 47.9832 23.3643 44.0337 28.8653 41.6758C30.6398 37.4316 32.8283 34.0127 36.673 31.6548C38.1518 23.1664 46.137 16.2695 46.4919 15.9748C47.0834 15.5032 47.8523 15.2085 48.6804 15.2085ZM48.6804 12.8506C47.32 12.8506 46.0187 13.3222 44.954 14.2064C44.0667 14.9727 36.5547 21.5748 34.5436 30.2401C30.6398 33.0106 28.5695 36.6064 27.0908 39.9664C21.4715 42.3243 13.2497 46.038 9.8782 47.5706C7.03901 48.8674 5.32367 51.7558 5.56027 54.8801C5.67857 56.5306 6.21092 58.1222 7.09816 59.478C8.63606 62.7201 13.368 69.9116 25.3163 69.9116C25.4346 69.9116 25.5529 69.9116 25.7303 69.9116H25.7895C27.7414 69.9116 29.93 69.8527 32.0593 69.8527C29.3976 72.4464 27.0908 74.3327 26.6176 74.6864C23.7192 76.7495 22.7137 80.4632 24.1333 83.9411C25.3754 87.0064 28.3329 89.8948 32.5325 92.0169C35.6083 93.5495 40.7544 95.4358 48.0298 95.4358C49.9226 95.4358 51.8153 95.318 53.7673 95.0822C53.8856 95.0822 54.0039 95.0822 54.1222 95.0232C57.8486 94.6106 61.9891 93.3137 65.6564 91.3685C72.9318 87.5958 78.7285 81.5832 81.686 74.9222C82.8098 72.3874 83.4604 69.6758 83.6379 66.7285C85.3532 65.9622 86.5954 64.3116 86.8911 62.3664C87.4235 58.6527 87.5418 52.5811 86.1813 46.7453C84.5843 39.8485 81.2719 34.6611 76.5991 31.7137C76.5991 23.9327 74.5288 17.8611 74.2922 17.1537C73.4641 14.9137 71.3348 13.3811 68.9096 13.3811C68.4956 13.3811 68.0815 13.4401 67.6675 13.499C62.5215 14.678 58.2627 17.0948 55.0686 20.5727L54.1813 17.1537C53.7081 15.2085 52.2885 13.7348 50.3958 13.1453C49.8043 12.9685 49.2719 12.8506 48.6804 12.8506Z" fill="#F6E8CC"/>
<path d="M70.7429 35.1916C71.3936 28.5895 69.974 22.6358 69.2642 20.219C69.0867 19.5705 68.3769 19.1579 67.7263 19.3937C59.7411 21.5747 56.9611 26.939 55.4823 31.1832C54.6542 30.299 53.1163 30.1811 51.6376 30.4168L49.035 20.1011C48.8575 19.3937 47.9703 19.1579 47.4971 19.6884C45.1311 21.9874 40.1034 27.7053 39.8076 33.8358C35.7263 35.7811 33.5378 38.9053 31.4675 44.3284C25.9666 46.5684 15.3788 51.2842 12.1847 52.699C11.5341 52.9937 11.1792 53.6421 11.2383 54.3495C11.4158 56.4716 12.6579 58.299 14.7873 58.7705C25.1385 61.0105 36.6727 56.2947 47.083 55.2926C52.4657 54.7621 58.0257 54.6442 63.2901 56.2358C69.974 58.24 70.1514 68.379 70.1514 68.379C70.1514 68.379 68.6727 66.1979 65.3012 66.9053C65.3012 66.9053 64.5322 71.7979 64.4139 72.2695C63.9407 73.92 63.2901 75.5705 62.462 77.1032C59.8594 81.9369 55.6006 85.5916 50.2771 87.1242C47.6745 87.8316 44.7762 88.4211 42.4102 88.48C41.8779 88.5979 40.1034 88.48 40.1034 88.48C40.1034 88.48 45.072 89.7179 48.0294 89.7179C49.6856 89.7179 51.401 89.6 53.2346 89.3642C53.2938 89.3642 53.4121 89.3642 53.4712 89.3642C56.7245 88.9516 60.096 87.8316 63.0535 86.299C68.791 83.3516 73.8779 78.5179 76.5396 72.5642C77.6043 70.0884 78.0775 67.3769 78.0775 64.6653C78.0775 64.0758 77.9 58.7705 77.1311 58.6526C78.4915 58.8295 79.1422 59.8316 81.3307 61.4821C81.8039 57.7684 82.7503 39.0232 70.7429 35.1916Z" fill="#C56128"/>
<path d="M39.3346 46.097C38.9205 46.038 38.6839 45.6254 38.8614 45.2717C39.3937 43.9159 40.8725 41.3222 43.2976 41.9117C44.4806 42.2064 45.3678 42.5012 46.0185 42.7959C46.7874 43.0906 46.9057 44.0928 46.3142 44.6233C45.0721 45.7433 44.4806 46.5096 43.0018 46.6275C41.9963 46.6864 40.0444 46.2149 39.3346 46.097Z" fill="#4A291A"/>
</g>
<defs>
<clipPath id="clip0_16_203">
<rect width="96" height="112" fill="white"/>
</clipPath>
</defs>
</svg>
