<svg width="97" height="112" viewBox="0 0 97 112" fill="none" xmlns="http://www.w3.org/2000/svg">
<path d="M87.4233 13.3221L52.1109 0.707368C49.4492 -0.235789 46.5508 -0.235789 43.8891 0.707368L8.57671 13.3221C3.43068 15.1495 0 20.1011 0 25.7011V79.0484C0 83.8821 2.54344 88.3032 6.68392 90.6021L41.9963 110.408C43.8891 111.469 45.9593 112 48.0296 112C50.0998 112 52.1701 111.469 54.0628 110.408L89.3752 90.661C93.4566 88.3621 96.0591 83.941 96.0591 79.1074V25.7011C96 20.1011 92.5693 15.1495 87.4233 13.3221Z" fill="#32544D"/>
<path d="M89.0203 53.4063C88.7246 52.64 88.488 51.8737 88.2514 51.2253L88.0739 50.6947C86.8909 47.3348 85.7079 43.8569 83.5785 40.4379C83.2828 39.9074 82.6913 39.2 81.8632 38.3158C81.8632 36.4295 81.6266 33.6 80.3253 31.0063C78.9057 28.1769 76.5397 26.2316 73.6414 25.5832C72.9316 25.4063 72.2218 25.3474 71.5712 25.3474C70.7431 25.3474 69.915 25.4653 69.146 25.6421C66.78 22.7537 63.8225 21.1621 60.6285 21.1621C59.3272 21.1621 58.085 21.3979 56.902 21.9284C55.0092 22.6948 52.5249 24.4042 50.6321 28C50.3364 28.059 50.0407 28.1179 49.8041 28.1179C44.7763 22.2821 37.5601 18.9221 29.634 18.9221C21.6488 18.9221 14.3142 22.459 9.5231 28.7074C5.61921 33.6 4.02217 40.7326 5.38262 46.8042C6.50646 51.7558 9.46395 55.6463 13.7227 57.8863C16.5028 59.3011 19.5194 60.0084 22.6543 60.0084C23.6007 60.0084 24.5471 59.9495 25.5527 59.8316C25.9667 59.7726 26.3808 59.7137 26.7948 59.5958C27.5046 65.4905 30.2255 71.1495 34.5434 75.5116C39.9261 81.0526 47.3198 84.059 55.305 84.059C55.9556 84.059 56.6654 84.059 57.3161 84C58.2625 88.9516 62.4621 92.4295 67.6081 92.4295C69.146 92.4295 70.6839 92.1348 72.1627 91.4863C77.0721 89.3642 79.7338 84.2948 79.2606 77.9874C79.1423 76.3958 78.8466 74.6863 78.3734 72.9769C79.2606 71.8569 80.0296 70.619 80.7393 69.3221C83.756 68.1432 86.122 66.4926 87.8373 64.3705C90.2033 61.3642 90.6174 57.6505 89.0203 53.4063ZM15.0832 45.2126C15.0832 45.3305 15.0832 45.4484 15.1423 45.5074C15.1423 45.4484 15.0832 45.3305 15.0832 45.2126Z" fill="#F6E8CC"/>
<path d="M47.8521 40.0842C47.024 37.0779 45.5453 34.4842 43.6525 32.4211C39.9852 28.4126 34.7209 26.2905 29.5157 26.2905C24.1922 26.2905 18.9279 28.4716 15.2606 33.1874C11.3567 38.1979 10.5286 47.9242 17.0351 51.2842C18.7504 52.1684 20.6432 52.5811 22.5952 52.5811C23.1867 52.5811 23.8373 52.5221 24.4288 52.4632C26.0258 52.2274 27.682 51.2842 29.3382 50.7537C29.9297 50.5768 30.5212 50.4589 31.1127 50.4589C31.8817 50.4589 32.6506 50.6358 33.4196 51.1663C34.2477 51.7558 34.8983 52.5221 35.5489 53.3474C35.6672 53.4653 35.7855 53.6421 35.9038 53.76C37.5009 55.7642 39.0979 57.7684 40.7541 59.7726C40.8724 59.8905 41.0499 60.0674 41.2273 60.3032C40.8133 53.2884 43.2976 45.6253 47.8521 40.0842Z" fill="#A07D58"/>
<path d="M51.1644 44.0926C50.2772 45.3305 49.4491 46.6273 48.7985 48.0421C46.9648 51.8737 46.0184 56.2358 46.3142 60.3031C46.3733 61.2463 46.4916 62.1895 46.7282 63.0737C46.7874 63.4273 46.9057 63.781 47.024 64.1347C47.1423 64.6063 47.3197 65.0779 47.5563 65.4905C48.207 66.9052 49.0942 68.2021 50.1589 69.381C50.8687 70.1473 51.6968 70.9137 52.5249 71.5031C55.8373 73.92 63.3493 73.6252 64.6506 78.2231C64.828 78.8126 64.7689 79.4021 64.7097 80.0505C64.6506 80.8168 64.4731 81.5831 64.5914 82.3494C64.7689 84.1179 66.1293 85.0021 67.6672 85.0021C68.1996 85.0021 68.7319 84.8842 69.2643 84.6484C71.6894 83.5873 72.1034 80.8168 71.926 78.4589C71.8668 77.7516 71.7485 77.0442 71.6302 76.3368C70.9204 72.2694 69.0277 67.9073 65.6561 65.6673C65.5378 65.6084 65.4787 65.5494 65.3604 65.4905C63.4676 64.3705 60.3918 63.84 59.7412 61.4821C59.5046 60.5389 59.5637 59.2421 59.8595 58.3579C61.1607 60.7158 63.7633 62.0716 66.1293 63.0737C66.4251 63.1916 66.78 63.3095 67.1349 63.3684C68.1404 63.6042 69.3234 63.781 70.5656 63.781C74.4103 63.781 78.9648 62.5431 81.39 60.3621C81.6266 60.1263 81.8631 59.9495 82.0406 59.7137C82.9278 58.5937 82.5729 57.1789 82.0997 56C81.9814 55.7052 81.8631 55.3516 81.7448 54.9979C81.5674 54.5263 81.3899 54.1137 81.2716 53.6421C80.1478 50.4589 79.0831 47.2168 77.2495 44.3284C77.072 44.0337 74.4694 41.0863 73.9962 41.0863C73.9371 41.0863 73.9371 41.0863 73.9371 41.1452C74.292 40.3789 74.4694 39.0821 74.4103 37.7263C74.3511 35.5452 73.6413 33.1873 71.9851 32.7747C71.8077 32.7158 71.6894 32.7158 71.5711 32.7158C70.8022 32.7158 70.1515 33.2463 69.6192 33.8947C69.0868 34.6021 68.7319 35.4863 68.4953 36.0168C68.0813 36.96 68.0813 37.9031 67.8447 38.8463C66.9574 38.6695 66.0702 38.4926 65.2421 38.4337C65.4195 37.7263 65.5378 37.0189 65.5378 36.3116C65.5378 34.5431 65.0646 32.7747 64.1774 31.301C64.1774 31.2421 64.1182 31.1831 64.1182 31.1242C63.4084 30.0042 62.1663 28.4716 60.6875 28.4716C60.3918 28.4716 60.1552 28.5305 59.8595 28.6484C59.2088 28.9431 58.6173 29.4147 58.085 30.0042C56.133 32.3621 55.4824 36.5473 55.4824 39.0231C55.4824 39.3179 55.4824 39.6126 55.5415 39.9073C55.5415 40.0252 54.2402 40.7916 54.1219 40.9684C54.0628 41.0273 54.0036 41.0863 53.9445 41.1452C53.8262 41.2631 53.6487 41.381 53.5304 41.4989C52.584 42.3831 51.8151 43.2084 51.1644 44.0926ZM66.3068 47.3937C66.3659 47.3937 66.4842 47.3937 66.5434 47.3937C67.963 47.5116 69.0277 48.6905 69.0277 50.1052C69.0277 50.7537 68.7911 51.3431 68.4362 51.8147C67.963 52.4631 67.194 52.8168 66.3068 52.8168C64.828 52.8168 63.5859 51.5789 63.5859 50.1052C63.5267 48.6316 64.7689 47.3937 66.3068 47.3937Z" fill="#A07D58"/>
<path d="M86.7727 54.2316C86.4769 53.4653 86.2403 52.7579 85.9446 51.9916L85.7671 51.4611C84.6433 48.219 83.4603 44.9179 81.4492 41.6758C81.0351 40.9685 79.9113 39.7895 79.3198 39.1411C79.4972 36.7832 79.1423 34.1306 78.0777 32.0085C76.9538 29.8274 75.1793 28.3537 72.9908 27.8232C72.4584 27.7053 71.9261 27.6464 71.4529 27.6464C70.2107 27.6464 69.0869 27.9411 68.1996 28.4716C66.1886 25.2885 63.4677 23.52 60.5102 23.52C59.5638 23.52 58.6174 23.6969 57.7301 24.1095C55.9557 24.8758 53.708 26.5264 52.1109 30.1811C50.9279 30.299 49.8041 30.4758 48.7394 30.7706C44.3032 24.9348 37.3235 21.339 29.5157 21.339C22.2995 21.339 15.6155 24.5811 11.2976 30.1811C7.86693 34.6021 6.44734 40.9685 7.68948 46.3327C8.63588 50.5769 11.1793 53.9369 14.7875 55.8232C17.2126 57.0611 19.8743 57.7095 22.6544 57.7095C23.4825 57.7095 24.3697 57.6506 25.1978 57.5327C26.6174 57.3558 27.8595 56.8843 28.9242 56.4127V56.4716C28.9242 69.2632 39.4529 81.76 55.2459 81.76C56.7246 81.76 58.085 81.6422 59.4455 81.4064C59.4455 81.8779 59.4455 82.4085 59.5046 82.9979C59.9778 87.1243 63.4085 90.1306 67.6082 90.1306C68.8503 90.1306 70.0333 89.8948 71.2163 89.3643C75.2385 87.5958 77.3087 83.5285 76.8947 78.1643C76.7764 76.3369 76.3623 74.3916 75.7708 72.4464C77.0721 70.9137 78.1368 69.2043 79.024 67.4358C81.6858 66.4927 84.2292 65.019 85.9446 62.8969C88.7246 59.419 87.2458 55.5285 86.7727 54.2316ZM40.7542 59.7727C39.1571 57.7685 37.5601 55.7643 35.9039 53.76C35.7856 53.6421 35.6673 53.4653 35.549 53.3474C34.8984 52.5811 34.2477 51.7558 33.4196 51.1664C32.6507 50.6358 31.8817 50.459 31.1128 50.459C30.5213 50.459 29.9298 50.5769 29.3383 50.7537C27.8004 51.2843 26.1442 52.2274 24.488 52.4632C23.8965 52.5221 23.2459 52.5811 22.6544 52.5811C20.7616 52.5811 18.8688 52.1685 17.0943 51.2843C10.5878 47.9243 11.4159 38.1979 15.3198 33.1874C18.9279 28.4716 24.2514 26.2906 29.5157 26.2906C34.7801 26.2906 39.9852 28.4127 43.6525 32.4211C45.5453 34.4843 47.0241 37.0779 47.8521 40.0843C43.2976 45.6253 40.8133 53.2295 41.2274 60.3032C40.9908 60.0674 40.8133 59.8906 40.7542 59.7727ZM81.9815 59.7137C81.8041 59.9495 81.5675 60.1853 81.3309 60.3621C78.9057 62.5432 74.3512 63.7811 70.5065 63.7811C69.2643 63.7811 68.0813 63.6632 67.0758 63.3685C66.7209 63.2506 66.4252 63.1916 66.0703 63.0737C63.7043 62.0716 61.0425 60.7158 59.8004 58.3579C59.5046 59.2421 59.4455 60.539 59.6821 61.4822C60.3327 63.899 63.4085 64.3706 65.3013 65.4906C65.4196 65.5495 65.4788 65.6085 65.5971 65.6674C68.9686 67.8485 70.8614 72.2695 71.5712 76.3369C71.6895 77.0443 71.8078 77.8106 71.8669 78.459C72.0444 80.8169 71.6303 83.5874 69.2052 84.6485C68.6728 84.8843 68.1405 85.0022 67.6082 85.0022C66.0703 85.0022 64.769 84.059 64.5324 82.3495C64.4732 81.5832 64.5915 80.8169 64.6507 80.0506C64.7098 79.4611 64.7098 78.8716 64.5915 78.2232C63.2902 73.6253 55.7782 73.92 52.4658 71.5032C51.6377 70.9137 50.8096 70.1474 50.0998 69.3811C49.0351 68.2611 48.1479 66.9053 47.4972 65.4906C47.3198 65.019 47.1423 64.6064 46.9649 64.1348C46.8466 63.7811 46.7875 63.4274 46.6692 63.0737C46.4326 62.1895 46.3143 61.2464 46.2551 60.3032C45.9594 56.2358 46.9058 51.8737 48.7394 48.0421C49.39 46.6274 50.2181 45.2716 51.1054 44.0927C51.8152 43.1495 52.525 42.3243 53.3531 41.5579C53.4714 41.44 53.5897 41.3221 53.7671 41.2043C53.8263 41.1453 53.8854 41.0864 53.9446 41.0274C54.122 40.9095 55.4233 40.0843 55.3642 39.9664C55.3642 39.6716 55.305 39.3769 55.305 39.0821C55.305 36.6064 55.9557 32.3621 57.9076 30.0632C58.3808 29.4737 58.9723 29.0021 59.6821 28.7074C59.9778 28.5895 60.2144 28.5306 60.5102 28.5306C61.9298 28.5306 63.2311 30.0632 63.9409 31.1832C64 31.2421 64 31.3011 64 31.36C64.8873 32.8927 65.3605 34.6611 65.3605 36.3706C65.3605 37.0779 65.2422 37.7853 65.0647 38.4927C65.952 38.6106 66.8392 38.7285 67.6673 38.9053C67.9039 37.9621 67.9631 36.96 68.3179 36.0758C68.5545 35.4864 68.9094 34.6611 69.4418 33.9537C69.915 33.3053 70.5656 32.7748 71.3937 32.7748C71.512 32.7748 71.6895 32.7748 71.8078 32.8337C73.464 33.2464 74.1738 35.6043 74.2329 37.7853C74.2921 39.1411 74.1146 40.4379 73.7597 41.2043L73.8189 41.1453C74.2921 41.1453 76.8947 44.0927 77.0721 44.3874C78.9057 47.2758 79.9704 50.459 81.0943 53.7011C81.2717 54.1727 81.4492 54.5853 81.5675 55.0569C81.6858 55.4106 81.8041 55.7053 81.9224 56.059C82.5139 57.179 82.9279 58.5937 81.9815 59.7137Z" fill="#162724"/>
<path d="M66.5434 47.3937C66.4843 47.3937 66.366 47.3937 66.3068 47.3937C64.8281 47.3937 63.5859 48.6316 63.5859 50.1053C63.5859 51.5789 64.8281 52.8168 66.3068 52.8168C67.1941 52.8168 67.9039 52.4042 68.4362 51.8147C68.7911 51.3432 69.0277 50.7537 69.0277 50.1053C69.0277 48.6905 67.9039 47.5116 66.5434 47.3937Z" fill="#162724"/>
</svg>
