<svg width="97" height="112" viewBox="0 0 97 112" fill="none" xmlns="http://www.w3.org/2000/svg">
<path d="M87.4233 13.3221L52.1109 0.707368C49.4492 -0.235789 46.5508 -0.235789 43.8891 0.707368L8.57671 13.3221C3.43068 15.1495 0 20.1011 0 25.7011L0 79.0484C0 83.8821 2.54344 88.3032 6.68392 90.6021L41.9963 110.408C43.8891 111.469 45.9593 112 48.0296 112C50.0998 112 52.1701 111.469 54.0628 110.408L89.3752 90.661C93.4566 88.3621 96.0591 83.941 96.0591 79.1074V25.7011C96 20.1011 92.5693 15.1495 87.4233 13.3221Z" fill="#4D6F82"/>
<path d="M80.0297 24.8758C80.0297 24.7579 79.9114 24.699 79.7931 24.699C79.7339 24.699 79.6748 24.699 79.6156 24.7579C78.7284 25.9369 76.1258 29.179 72.9908 29.5327C72.8134 29.5327 72.5768 29.5916 72.3402 29.5916C69.6193 29.5916 62.6988 28.4127 56.6655 28.4127C53.0574 28.4127 49.745 28.8253 47.8522 30.1811C45.9594 28.8253 42.647 28.4127 39.0389 28.4127C33.0056 28.4127 26.0851 29.5916 23.3642 29.5916C23.1276 29.5916 22.891 29.5916 22.7136 29.5327C19.6378 29.12 16.9761 25.9369 16.0888 24.7579C16.0297 24.699 15.9705 24.699 15.9114 24.699C15.7931 24.699 15.7339 24.7579 15.6748 24.8758C15.4973 27.1748 15.0241 35.9579 19.8152 37.1958C19.0463 41.8527 16.7986 55.2337 17.745 68.32C18.6322 80.64 28.8651 90.1895 41.2274 90.1895H54.0629C66.5435 90.1895 76.8947 80.5811 77.782 68.1432C78.6692 55.1158 76.4807 41.9116 75.7117 37.2548C80.6803 35.9579 80.2663 27.1748 80.0297 24.8758Z" fill="#31231E"/>
<path d="M60.7468 35.0737C54.1221 35.0737 48.6803 40.0843 47.9705 46.5095C47.9113 46.5095 47.793 46.5095 47.7339 46.5095C47.0241 40.0843 41.5823 35.0737 34.9576 35.0737C27.8596 35.0737 22.1221 40.7916 22.1221 47.8653C22.1221 54.939 27.8596 60.6569 34.9576 60.6569C38.2108 60.6569 41.2274 59.419 43.4751 57.4148C44.4807 60.8927 46.5509 64.0169 47.4973 65.3727C47.6748 65.6085 48.0296 65.6085 48.2071 65.3727C49.1535 64.0758 51.2237 60.8927 52.2293 57.4148C54.477 59.419 57.4936 60.6569 60.7468 60.6569C67.8448 60.6569 73.5823 54.939 73.5823 47.8653C73.6415 40.7916 67.8448 35.0737 60.7468 35.0737Z" fill="#F6E8CC"/>
<path d="M82.7504 31.9495C83.2828 29.0611 83.1053 26.1137 82.987 24.64C82.8687 22.9895 81.5083 21.7516 79.8521 21.7516C78.8466 21.7516 77.9002 22.2232 77.3087 23.0484C76.1848 24.5811 74.292 26.4674 72.695 26.6442C72.695 26.6442 72.6358 26.6442 72.4584 26.6442C71.512 26.6442 69.7967 26.4674 67.8447 26.2316C64.5915 25.8779 60.6284 25.4653 56.8429 25.4653C53.0573 25.4653 50.1589 25.8779 48.0296 26.8211C45.9002 25.8779 43.061 25.4653 39.2163 25.4653C35.4307 25.4653 31.4085 25.8779 28.2144 26.2316C26.2033 26.4674 24.488 26.6442 23.6007 26.6442C23.4233 26.6442 23.305 26.6442 23.305 26.6442C21.7079 26.4674 19.8743 24.5811 18.6913 23.0484C18.0998 22.2232 17.1534 21.7516 16.1479 21.7516C14.4917 21.7516 13.1312 22.9895 13.0129 24.64C12.8946 26.1137 12.7172 29.0611 13.2495 31.9495C13.9002 35.5453 15.3198 37.6084 16.7985 38.7874C15.8521 44.7411 14.1959 56.7074 15.024 68.4968C15.4972 75.1579 18.5138 81.4063 23.4233 85.9453C28.3327 90.5432 34.7209 93.019 41.4639 93.019H54.2994C61.1017 93.019 67.549 90.4842 72.5175 85.8274C77.4861 81.2295 80.4436 74.9811 80.9168 68.2021C81.7449 56.4716 80.0887 44.6232 79.1423 38.7284C80.7394 37.6084 82.1589 35.5453 82.7504 31.9495ZM78.0185 68.0842C77.1312 80.5221 66.78 90.1305 54.2994 90.1305H41.4639C29.1016 90.1305 18.8687 80.5811 17.9815 68.2611C17.0351 55.1747 19.2828 41.8526 20.0517 37.1369C15.3198 35.899 15.7338 27.1747 15.9113 24.8168C15.9113 24.699 16.0296 24.64 16.1479 24.64C16.207 24.64 16.2662 24.64 16.3253 24.699C17.2126 25.8779 19.8151 29.12 22.9501 29.4737C23.1275 29.4737 23.3641 29.5326 23.6007 29.5326C26.3216 29.5326 33.2421 28.3537 39.2754 28.3537C42.8835 28.3537 46.1959 28.7663 48.0887 30.1221C49.9815 28.7663 53.2939 28.3537 56.902 28.3537C62.9353 28.3537 69.8558 29.5326 72.5767 29.5326C72.8133 29.5326 73.0499 29.5326 73.2273 29.4737C76.3031 29.0611 78.9649 25.8779 79.8521 24.699C79.9113 24.64 79.9704 24.64 80.0296 24.64C80.1479 24.64 80.207 24.699 80.2662 24.8168C80.4436 27.1158 80.9168 35.899 76.1257 37.1369C76.7172 41.8526 78.9057 55.0569 78.0185 68.0842Z" fill="#F6E8CC"/>
<path d="M60.7467 53.2885C63.7521 53.2885 66.1885 50.8604 66.1885 47.8653C66.1885 44.8702 63.7521 42.4421 60.7467 42.4421C57.7413 42.4421 55.3049 44.8702 55.3049 47.8653C55.3049 50.8604 57.7413 53.2885 60.7467 53.2885Z" fill="#31231E"/>
<path d="M34.9574 53.2885C37.9628 53.2885 40.3992 50.8604 40.3992 47.8653C40.3992 44.8702 37.9628 42.4421 34.9574 42.4421C31.952 42.4421 29.5156 44.8702 29.5156 47.8653C29.5156 50.8604 31.952 53.2885 34.9574 53.2885Z" fill="#31231E"/>
</svg>
