<svg width="2000" height="286" viewBox="0 0 2000 286" fill="none" xmlns="http://www.w3.org/2000/svg">
<g clip-path="url(#clip0_23_196)">
<path d="M858.9 235.8C842 234.5 825.4 227.3 810.2 220.3C793 212.3 777.8 201.1 760 194.3C742.9 187.7 724.5 183.4 707.2 178.3C692.9 174 678.6 169.8 664.3 165.5V158.5C664.3 158.1 664.6 157.7 665 157.7C675.7 157.6 698 155 708.6 139.8C708.9 139.4 708.8 138.7 708.3 138.5C697 133.3 693 129.9 686.2 121.8C685.7 121.3 686.1 120.3 686.8 120.4C692.1 121.3 697.6 118.3 700.1 114.9C700.5 114.4 700.2 113.6 699.6 113.6C692.6 112.8 685.9 107.2 681.4 98.4C681.1 97.8 681.5 97.1 682.1 97.2C687.1 98.1 690.5 94.9 691.9 93.2C692.2 92.8 692.1 92.1 691.7 91.9C685.8 88.8 680.5 84.2 677.7 81.6C677.2 81.1 677.5 80.1 678.2 80.2C680.1 80.4 683 80.3 686.8 78.6C687.3 78.4 687.4 77.5 686.9 77.2C681.4 73.3 675.8 65.8 673.4 62.3C673 61.7 673.4 60.9 674 61C675.2 61.2 677.1 61.2 679.7 60.5C680.3 60.4 680.4 59.5 680 59.1C667.8 47.6 661.7 26.4 659.8 18.7C659.6 17.9 658.7 17.9 658.5 18.7C656.6 26.4 650.4 47.6 638.3 59.1C637.8 59.5 638 60.4 638.6 60.5C641.2 61.2 643.1 61.2 644.3 61C644.9 60.9 645.3 61.7 644.9 62.3C642.4 65.8 636.9 73.3 631.4 77.2C630.9 77.5 631 78.4 631.5 78.6C635.2 80.3 638.1 80.4 640.1 80.2C640.8 80.1 641.1 81.1 640.6 81.6C637.8 84.3 632.6 88.9 626.6 91.9C626.2 92.1 626.1 92.8 626.4 93.2C627.8 94.8 631.2 98.1 636.2 97.2C636.8 97.1 637.2 97.8 636.9 98.4C632.3 107.2 625.7 112.8 618.7 113.6C618.1 113.7 617.9 114.4 618.2 114.9C620.7 118.3 626.2 121.3 631.5 120.4C632.2 120.3 632.5 121.2 632.1 121.8C625.3 129.9 621.3 133.3 610 138.5C609.6 138.7 609.4 139.3 609.7 139.8C620.3 155 642.6 157.7 653.3 157.7C653.7 157.7 654 158.1 654 158.5V163.4C632.662 159.302 582.096 149.706 560.25 145.562C553.362 144.256 546.702 142.056 540.39 139.008L477.793 108.783C473.454 106.688 468.697 105.6 463.879 105.6H0V275.7H892.8C892.8 275.7 894.1 238.5 858.9 235.8Z" fill="#32544D"/>
<path d="M1495.4 154.4C1462.9 165.2 1408.6 167.1 1408.6 167.1C1408.6 167.1 1363.1 162.7 1315.7 160.2V150C1315.7 149.5 1316 149.1 1316.4 149.1C1327.7 149 1351.3 146.2 1362.5 130.1C1362.8 129.6 1362.7 129 1362.2 128.8C1350.2 123.3 1346 119.7 1338.8 111.1C1338.3 110.5 1338.7 109.5 1339.4 109.6C1345 110.5 1350.8 107.3 1353.5 103.8C1353.9 103.3 1353.6 102.4 1353 102.4C1345.5 101.6 1338.6 95.6 1333.7 86.3C1333.4 85.7 1333.8 84.9 1334.4 85C1339.7 86 1343.3 82.5 1344.8 80.8C1345.2 80.4 1345 79.7 1344.6 79.4C1338.3 76.2 1332.8 71.3 1329.8 68.5C1329.2 68 1329.6 66.9 1330.3 67C1332.3 67.2 1335.4 67.1 1339.4 65.3C1340 65 1340.1 64.1 1339.5 63.8C1333.7 59.7 1327.8 51.8 1325.2 48C1324.8 47.4 1325.2 46.5 1325.9 46.6C1327.2 46.8 1329.1 46.8 1331.9 46.1C1332.5 45.9 1332.7 45 1332.2 44.6C1319.3 32.4 1312.8 10 1310.8 1.9C1310.6 1.1 1309.6 1.1 1309.4 1.9C1307.5 9.5 1301.7 29.4 1290.6 41.9C1290.7 41.6 1290.6 41.2 1290.4 41C1278.2 29.5 1272.1 8.3 1270.2 0.6C1270 -0.2 1269.1 -0.2 1268.9 0.6C1267 8.3 1260.8 29.5 1248.7 41C1248.2 41.4 1248.4 42.3 1249 42.4C1251.6 43.1 1253.5 43.1 1254.7 42.9C1255.3 42.8 1255.7 43.6 1255.3 44.2C1252.8 47.7 1247.3 55.2 1241.8 59.1C1241.3 59.4 1241.4 60.3 1241.9 60.5C1245.6 62.2 1248.5 62.3 1250.5 62.1C1251.2 62 1251.5 63 1251 63.5C1248.2 66.2 1243 70.8 1237 73.8C1236.6 74 1236.5 74.7 1236.8 75.1C1238.2 76.7 1241.6 80 1246.6 79.1C1247.2 79 1247.6 79.7 1247.3 80.3C1242.7 89.1 1236.1 94.7 1229.1 95.5C1228.5 95.6 1228.3 96.3 1228.6 96.8C1231.1 100.2 1236.6 103.2 1241.9 102.3C1242.6 102.2 1242.9 103.1 1242.5 103.7C1235.7 111.8 1231.7 115.2 1220.4 120.4C1220 120.6 1219.8 121.2 1220.1 121.7C1227.8 132.8 1241.8 137.2 1252.9 138.8C1253.9 143.5 1255.1 148.7 1255.2 149.4C1255.4 150.7 1255.6 151.9 1255.9 153.2C1252.5 148.7 1246.4 137.7 1246.7 138.6C1247.3 140.6 1248.1 142.5 1249 144.4C1250.3 147.2 1253.7 154.1 1255.8 158.4C1255.6 158.4 1255.5 158.4 1255.3 158.4C1253.3 155.1 1250.7 150.9 1250.5 151.1C1250.2 151.3 1252.2 156.2 1253.2 158.5C1253.1 158.5 1253 158.5 1253 158.5C1249 155.2 1241.3 148.3 1241.7 149C1242.2 149.7 1246.8 154.4 1250.9 158.5C1249.9 158.5 1249 158.5 1248 158.6C1245.4 156.6 1242.7 154.6 1241.4 154.2C1241 154.1 1243.5 156.2 1246.4 158.7C1240.2 158.9 1234.5 159.3 1229.6 159.8C1180.8 165.2 1144.6 218.6 1144.6 218.6C1144.6 218.6 1396 221.3 1436.6 224C1450.7 224.9 1459 228.5 1463.7 232.8C1471 239.4 1466.9 251.5 1457.2 252.3C1435.3 254.2 1388.3 257.2 1358 251.1C1317.3 243 1295.6 286.4 1295.6 286.4H2001.5V164.3C2001.5 164.3 1527.9 143.5 1495.4 154.4ZM1259.2 149.7C1258.1 146.8 1257.3 143.8 1256.6 140.8C1256.5 140.5 1256.4 140 1256.3 139.3C1259.1 139.6 1261.6 139.7 1263.6 139.7C1263.7 139.7 1263.8 139.7 1263.9 139.8C1263.3 143 1262.7 146.1 1262.5 146.8C1262 148.7 1261.6 150.7 1261.1 152.6C1260.5 149.7 1258.8 143 1258.8 143.9C1258.8 145.8 1258.9 147.8 1259.2 149.7ZM1274.8 143.3C1275.8 143.8 1276.9 144.2 1277.9 144.6C1276.8 145.3 1275.8 146.1 1275.1 146.7C1275 146.8 1274.9 146.9 1274.8 147V143.3ZM1276.4 158.6C1279.4 157.3 1281.7 156.4 1281.3 156.5C1279.6 156.9 1277.8 157.3 1276.1 157.7C1275.6 157.8 1275.2 158 1274.7 158.1V155.3C1277.6 153.5 1280.6 152.2 1280.1 152.3C1278.5 152.7 1276.8 153.1 1275.3 153.8C1275.1 153.9 1274.9 154 1274.7 154.1V149C1276.1 147.6 1277.7 146.2 1279 145C1288.3 148.2 1297.8 149 1303.8 149C1304.2 149 1304.5 149.4 1304.5 149.9V159.6C1295 159.1 1285.5 158.8 1276.4 158.6ZM1284.5 42.8C1285.7 43 1287.6 43 1290.2 42.3C1290.2 42.3 1290.2 42.3 1290.3 42.3C1289.6 43.1 1288.9 43.8 1288.2 44.5C1287.7 45 1287.9 45.9 1288.5 46C1291.3 46.7 1293.2 46.7 1294.5 46.5C1295.2 46.4 1295.6 47.3 1295.2 47.9C1294.3 49.3 1292.9 51.2 1291.2 53.2C1288.1 49.8 1285.5 46.2 1284 44.1C1283.4 43.6 1283.8 42.7 1284.5 42.8ZM1254.9 142.3C1254.6 141.4 1254.2 140.3 1253.8 139C1254.1 139 1254.4 139.1 1254.8 139.1C1255.4 142.1 1256.1 145 1257.1 147.9C1257 147.7 1257 147.5 1256.9 147.4C1256.2 145.7 1255.5 144 1254.9 142.3Z" fill="#32544D"/>
<path d="M191.778 101.296C192.032 101.296 192.222 101.549 192.222 101.802V108H198.763V101.802C198.763 101.549 198.953 101.296 199.207 101.296C206.001 101.232 220.162 99.5879 226.893 89.974C227.083 89.721 227.02 89.2783 226.702 89.1518C219.527 85.8629 216.987 83.7124 212.669 78.5892C212.351 78.273 212.605 77.6405 213.05 77.7037C216.415 78.273 219.908 76.3755 221.495 74.225C221.749 73.9088 221.559 73.4028 221.178 73.4028C216.733 72.8968 212.478 69.3549 209.621 63.789C209.43 63.4095 209.684 62.9667 210.065 63.03C213.24 63.5992 215.399 61.5752 216.288 60.5C216.479 60.247 216.415 59.8043 216.161 59.6778C212.415 57.717 209.049 54.8076 207.271 53.1631C206.954 52.8469 207.144 52.2144 207.589 52.2776C208.795 52.4041 210.637 52.3409 213.05 51.2656C213.367 51.1391 213.431 50.5699 213.113 50.3802C209.621 47.9135 206.065 43.1698 204.541 40.9561C204.287 40.5766 204.541 40.0706 204.922 40.1338C205.684 40.2603 206.89 40.2603 208.541 39.8176C208.922 39.7543 208.986 39.1851 208.732 38.9321C200.985 31.6585 197.112 18.2497 195.905 13.3795C195.778 12.8735 195.207 12.8735 195.08 13.3795C193.873 18.2497 189.936 31.6585 182.253 38.9321C181.935 39.1851 182.062 39.7543 182.443 39.8176C184.094 40.2603 185.301 40.2603 186.063 40.1338C186.444 40.0706 186.698 40.5766 186.444 40.9561C184.856 43.1698 181.364 47.9135 177.871 50.3802C177.554 50.5699 177.617 51.1391 177.935 51.2656C180.284 52.3409 182.126 52.4041 183.396 52.2776C183.84 52.2144 184.031 52.8469 183.713 53.1631C181.935 54.8708 178.633 57.7803 174.823 59.6778C174.569 59.8043 174.506 60.247 174.696 60.5C175.585 61.512 177.744 63.5992 180.919 63.03C181.3 62.9667 181.554 63.4095 181.364 63.789C178.443 69.3549 174.252 72.8968 169.807 73.4028C169.426 73.4661 169.299 73.9088 169.489 74.225C171.077 76.3755 174.569 78.273 177.935 77.7037C178.379 77.6405 178.57 78.2097 178.316 78.5892C173.998 83.7124 171.458 85.8629 164.282 89.1518C164.028 89.2783 163.901 89.6578 164.092 89.974C170.823 99.5879 184.983 101.296 191.778 101.296Z" fill="#32544D"/>
<path d="M252.187 100.237C252.481 100.237 252.702 100.53 252.702 100.823V108H260.28V100.823C260.28 100.53 260.501 100.237 260.795 100.237C268.668 100.164 285.076 98.2596 292.876 87.1278C293.097 86.8349 293.023 86.3222 292.655 86.1758C284.341 82.3675 281.398 79.8775 276.394 73.9454C276.026 73.5792 276.321 72.8469 276.836 72.9201C280.735 73.5792 284.782 71.3822 286.622 68.8921C286.916 68.526 286.695 67.9401 286.254 67.9401C281.103 67.3542 276.173 63.253 272.862 56.8083C272.642 56.3688 272.936 55.8562 273.377 55.9294C277.056 56.5885 279.558 54.245 280.588 53C280.809 52.7071 280.735 52.1944 280.441 52.0479C276.1 49.7776 272.2 46.4088 270.14 44.5047C269.772 44.1385 269.993 43.4061 270.508 43.4794C271.906 43.6258 274.04 43.5526 276.836 42.3076C277.204 42.1611 277.277 41.502 276.909 41.2823C272.862 38.4261 268.742 32.9334 266.976 30.3702C266.682 29.9308 266.976 29.3449 267.418 29.4181C268.3 29.5646 269.698 29.5646 271.612 29.0519C272.053 28.9787 272.127 28.3196 271.832 28.0266C262.856 19.6045 258.367 4.07856 256.969 -1.56059C256.822 -2.14647 256.16 -2.14647 256.013 -1.56059C254.615 4.07856 250.053 19.6045 241.15 28.0266C240.782 28.3196 240.929 28.9787 241.371 29.0519C243.284 29.5646 244.682 29.5646 245.565 29.4181C246.006 29.3449 246.3 29.9308 246.006 30.3702C244.167 32.9334 240.12 38.4261 236.073 41.2823C235.705 41.502 235.779 42.1611 236.146 42.3076C238.869 43.5526 241.003 43.6258 242.474 43.4794C242.989 43.4061 243.21 44.1385 242.842 44.5047C240.782 46.482 236.956 49.8509 232.541 52.0479C232.247 52.1944 232.173 52.7071 232.394 53C233.424 54.1718 235.926 56.5885 239.605 55.9294C240.046 55.8562 240.34 56.3688 240.12 56.8083C236.735 63.253 231.879 67.3542 226.728 67.9401C226.287 68.0133 226.14 68.526 226.36 68.8921C228.2 71.3822 232.247 73.5792 236.146 72.9201C236.662 72.8469 236.882 73.506 236.588 73.9454C231.585 79.8775 228.641 82.3675 220.327 86.1758C220.033 86.3222 219.886 86.7616 220.106 87.1278C227.906 98.2596 244.314 100.237 252.187 100.237Z" fill="#32544D"/>
<path d="M1753.95 148.59C1754.26 148.59 1754.49 148.87 1754.49 149.149V156H1762.49V149.149C1762.49 148.87 1762.72 148.59 1763.03 148.59C1771.34 148.52 1788.64 146.702 1796.87 136.077C1797.1 135.797 1797.02 135.308 1796.64 135.168C1787.87 131.533 1784.76 129.156 1779.48 123.493C1779.1 123.144 1779.41 122.445 1779.95 122.515C1784.06 123.144 1788.33 121.047 1790.27 118.67C1790.58 118.32 1790.35 117.761 1789.88 117.761C1784.45 117.202 1779.25 113.287 1775.76 107.135C1775.53 106.716 1775.84 106.226 1776.3 106.296C1780.18 106.925 1782.82 104.688 1783.91 103.5C1784.14 103.22 1784.06 102.731 1783.75 102.591C1779.17 100.424 1775.06 97.2084 1772.89 95.3908C1772.5 95.0413 1772.73 94.3422 1773.28 94.4121C1774.75 94.5519 1777 94.482 1779.95 93.2936C1780.34 93.1538 1780.42 92.5246 1780.03 92.3149C1775.76 89.5886 1771.41 84.3455 1769.55 81.8988C1769.24 81.4794 1769.55 80.9201 1770.02 80.99C1770.95 81.1298 1772.42 81.1298 1774.44 80.6405C1774.91 80.5706 1774.98 79.9414 1774.67 79.6618C1765.2 71.6225 1760.47 56.8023 1758.99 51.4194C1758.84 50.8602 1758.14 50.8602 1757.99 51.4194C1756.51 56.8023 1751.7 71.6225 1742.31 79.6618C1741.92 79.9414 1742.08 80.5706 1742.54 80.6405C1744.56 81.1298 1746.03 81.1298 1746.97 80.99C1747.43 80.9201 1747.74 81.4794 1747.43 81.8988C1745.49 84.3455 1741.22 89.5886 1736.95 92.3149C1736.57 92.5246 1736.64 93.1538 1737.03 93.2936C1739.9 94.482 1742.15 94.5519 1743.71 94.4121C1744.25 94.3422 1744.48 95.0413 1744.09 95.3908C1741.92 97.2783 1737.88 100.494 1733.23 102.591C1732.92 102.731 1732.84 103.22 1733.07 103.5C1734.16 104.619 1736.8 106.925 1740.68 106.296C1741.14 106.226 1741.45 106.716 1741.22 107.135C1737.65 113.287 1732.53 117.202 1727.1 117.761C1726.63 117.831 1726.48 118.32 1726.71 118.67C1728.65 121.047 1732.92 123.144 1737.03 122.515C1737.57 122.445 1737.81 123.074 1737.5 123.493C1732.22 129.156 1729.11 131.533 1720.34 135.168C1720.03 135.308 1719.88 135.727 1720.11 136.077C1728.34 146.702 1745.65 148.59 1753.95 148.59Z" fill="#32544D"/>
<path d="M1802.09 149.402C1802.49 149.402 1802.8 149.764 1802.8 150.126V159H1813.18V150.126C1813.18 149.764 1813.48 149.402 1813.88 149.402C1824.67 149.312 1847.15 146.957 1857.83 133.194C1858.13 132.832 1858.03 132.198 1857.53 132.017C1846.14 127.309 1842.11 124.23 1835.25 116.896C1834.75 116.443 1835.15 115.538 1835.86 115.629C1841.2 116.443 1846.74 113.727 1849.26 110.648C1849.67 110.196 1849.36 109.471 1848.76 109.471C1841.7 108.747 1834.95 103.676 1830.41 95.7084C1830.11 95.1651 1830.51 94.5313 1831.12 94.6218C1836.16 95.4367 1839.59 92.5393 1841 91C1841.3 90.6378 1841.2 90.004 1840.8 89.8229C1834.85 87.016 1829.51 82.8509 1826.68 80.4967C1826.18 80.0439 1826.48 79.1385 1827.19 79.229C1829.1 79.4101 1832.03 79.3196 1835.86 77.7803C1836.36 77.5992 1836.46 76.7843 1835.96 76.5126C1830.41 72.9814 1824.77 66.1904 1822.35 63.0213C1821.95 62.478 1822.35 61.7537 1822.96 61.8442C1824.17 62.0253 1826.08 62.0253 1828.7 61.3915C1829.31 61.3009 1829.41 60.486 1829 60.1238C1816.71 49.7111 1810.56 30.5153 1808.64 23.5433C1808.44 22.8189 1807.53 22.8189 1807.33 23.5433C1805.42 30.5153 1799.17 49.7111 1786.97 60.1238C1786.47 60.486 1786.67 61.3009 1787.27 61.3915C1789.9 62.0253 1791.81 62.0253 1793.02 61.8442C1793.62 61.7537 1794.03 62.478 1793.62 63.0213C1791.1 66.1904 1785.56 72.9814 1780.02 76.5126C1779.51 76.7843 1779.61 77.5992 1780.12 77.7803C1783.85 79.3196 1786.77 79.4101 1788.79 79.229C1789.49 79.1385 1789.79 80.0439 1789.29 80.4967C1786.47 82.9414 1781.23 87.1065 1775.18 89.8229C1774.78 90.004 1774.68 90.6378 1774.98 91C1776.39 92.4487 1779.82 95.4367 1784.86 94.6218C1785.46 94.5313 1785.86 95.1651 1785.56 95.7084C1780.92 103.676 1774.27 108.747 1767.22 109.471C1766.61 109.562 1766.41 110.196 1766.71 110.648C1769.23 113.727 1774.78 116.443 1780.12 115.629C1780.82 115.538 1781.13 116.353 1780.72 116.896C1773.87 124.23 1769.84 127.309 1758.45 132.017C1758.04 132.198 1757.84 132.742 1758.15 133.194C1768.83 146.957 1791.31 149.402 1802.09 149.402Z" fill="#32544D"/>
<path d="M1870.09 161.402C1870.49 161.402 1870.8 161.764 1870.8 162.126V171H1881.18V162.126C1881.18 161.764 1881.48 161.402 1881.88 161.402C1892.67 161.312 1915.15 158.957 1925.83 145.194C1926.13 144.832 1926.03 144.198 1925.53 144.017C1914.14 139.309 1910.11 136.23 1903.25 128.896C1902.75 128.443 1903.15 127.538 1903.86 127.628C1909.2 128.443 1914.74 125.727 1917.26 122.648C1917.67 122.196 1917.36 121.471 1916.76 121.471C1909.7 120.747 1902.95 115.676 1898.41 107.708C1898.11 107.165 1898.51 106.531 1899.12 106.622C1904.16 107.437 1907.59 104.539 1909 103C1909.3 102.638 1909.2 102.004 1908.8 101.823C1902.85 99.016 1897.51 94.8509 1894.68 92.4967C1894.18 92.0439 1894.48 91.1385 1895.19 91.229C1897.1 91.4101 1900.03 91.3196 1903.86 89.7803C1904.36 89.5992 1904.46 88.7843 1903.96 88.5126C1898.41 84.9814 1892.77 78.1904 1890.35 75.0213C1889.95 74.478 1890.35 73.7537 1890.96 73.8442C1892.17 74.0253 1894.08 74.0253 1896.7 73.3915C1897.31 73.3009 1897.41 72.486 1897 72.1238C1884.71 61.7111 1878.56 42.5153 1876.64 35.5433C1876.44 34.8189 1875.53 34.8189 1875.33 35.5433C1873.42 42.5153 1867.17 61.7111 1854.97 72.1238C1854.47 72.486 1854.67 73.3009 1855.27 73.3915C1857.9 74.0253 1859.81 74.0253 1861.02 73.8442C1861.62 73.7537 1862.03 74.478 1861.62 75.0213C1859.1 78.1904 1853.56 84.9814 1848.02 88.5126C1847.51 88.7843 1847.61 89.5992 1848.12 89.7803C1851.85 91.3196 1854.77 91.4101 1856.79 91.229C1857.49 91.1385 1857.79 92.0439 1857.29 92.4967C1854.47 94.9414 1849.23 99.1065 1843.18 101.823C1842.78 102.004 1842.68 102.638 1842.98 103C1844.39 104.449 1847.82 107.437 1852.86 106.622C1853.46 106.531 1853.86 107.165 1853.56 107.708C1848.92 115.676 1842.27 120.747 1835.22 121.471C1834.61 121.562 1834.41 122.196 1834.71 122.648C1837.23 125.727 1842.78 128.443 1848.12 127.628C1848.82 127.538 1849.13 128.353 1848.72 128.896C1841.87 136.23 1837.84 139.309 1826.45 144.017C1826.04 144.198 1825.84 144.742 1826.15 145.194C1836.83 158.957 1859.31 161.402 1870.09 161.402Z" fill="#32544D"/>
<path d="M155.95 100.59C156.261 100.59 156.494 100.87 156.494 101.149V108H164.488V101.149C164.488 100.87 164.72 100.59 165.031 100.59C173.335 100.52 190.642 98.7024 198.869 88.0766C199.102 87.7969 199.024 87.3076 198.636 87.1678C189.866 83.5326 186.762 81.1558 181.484 75.4933C181.096 75.1438 181.407 74.4447 181.95 74.5147C186.063 75.1438 190.332 73.0466 192.272 70.6698C192.583 70.3202 192.35 69.761 191.884 69.761C186.451 69.2017 181.251 65.287 177.759 59.1352C177.526 58.7157 177.837 58.2264 178.302 58.2963C182.183 58.9254 184.822 56.6884 185.908 55.5C186.141 55.2204 186.063 54.731 185.753 54.5912C181.174 52.4241 177.06 49.2084 174.887 47.3908C174.499 47.0413 174.732 46.3422 175.275 46.4121C176.75 46.5519 179.001 46.482 181.95 45.2936C182.338 45.1538 182.416 44.5246 182.028 44.3149C177.759 41.5885 173.413 36.3455 171.55 33.8988C171.24 33.4794 171.55 32.9201 172.016 32.99C172.947 33.1298 174.422 33.1298 176.44 32.6405C176.905 32.5706 176.983 31.9414 176.672 31.6618C167.204 23.6225 162.47 8.80226 160.995 3.41944C160.84 2.86019 160.141 2.86019 159.986 3.41944C158.511 8.80226 153.7 23.6225 144.309 31.6618C143.921 31.9414 144.076 32.5706 144.542 32.6405C146.559 33.1298 148.034 33.1298 148.965 32.99C149.431 32.9201 149.741 33.4794 149.431 33.8988C147.491 36.3455 143.222 41.5885 138.954 44.3149C138.566 44.5246 138.643 45.1538 139.031 45.2936C141.903 46.482 144.154 46.5519 145.706 46.4121C146.249 46.3422 146.482 47.0413 146.094 47.3908C143.921 49.2783 139.885 52.494 135.228 54.5912C134.918 54.731 134.84 55.2204 135.073 55.5C136.16 56.6185 138.798 58.9254 142.679 58.2963C143.145 58.2264 143.455 58.7157 143.222 59.1352C139.652 65.287 134.53 69.2017 129.097 69.761C128.631 69.8309 128.476 70.3202 128.709 70.6698C130.649 73.0466 134.918 75.1438 139.031 74.5147C139.574 74.4447 139.807 75.0739 139.497 75.4933C134.219 81.1558 131.115 83.5326 122.345 87.1678C122.034 87.3076 121.879 87.727 122.112 88.0766C130.339 98.7024 147.646 100.59 155.95 100.59Z" fill="#32544D"/>
<path d="M124.95 101.225C125.261 101.225 125.494 101.481 125.494 101.736V108H133.488V101.736C133.488 101.481 133.72 101.225 134.031 101.225C142.335 101.161 159.642 99.4993 167.869 89.7843C168.102 89.5286 168.024 89.0812 167.636 88.9534C158.866 85.6298 155.762 83.4567 150.484 78.2796C150.096 77.9601 150.407 77.3209 150.95 77.3848C155.063 77.9601 159.332 76.0426 161.272 73.8695C161.583 73.5499 161.35 73.0386 160.884 73.0386C155.451 72.5273 150.251 68.9481 146.759 63.3236C146.526 62.9401 146.837 62.4927 147.302 62.5566C151.183 63.1318 153.822 61.0866 154.908 60C155.141 59.7443 155.063 59.2969 154.753 59.1691C150.174 57.1878 146.06 54.2477 143.887 52.5859C143.499 52.2663 143.732 51.6272 144.275 51.6911C145.75 51.8189 148.001 51.755 150.95 50.6684C151.338 50.5406 151.416 49.9654 151.028 49.7736C146.759 47.281 142.413 42.4873 140.55 40.2503C140.24 39.8668 140.55 39.3555 141.016 39.4194C141.947 39.5473 143.422 39.5473 145.44 39.0999C145.905 39.036 145.983 38.4607 145.672 38.2051C136.204 30.8549 131.47 17.3049 129.995 12.3835C129.84 11.8722 129.141 11.8722 128.986 12.3835C127.511 17.3049 122.7 30.8549 113.309 38.2051C112.921 38.4607 113.076 39.036 113.542 39.0999C115.559 39.5473 117.034 39.5473 117.965 39.4194C118.431 39.3555 118.741 39.8668 118.431 40.2503C116.491 42.4873 112.222 47.281 107.954 49.7736C107.566 49.9654 107.643 50.5406 108.031 50.6684C110.903 51.755 113.154 51.8189 114.706 51.6911C115.249 51.6272 115.482 52.2663 115.094 52.5859C112.921 54.3116 108.885 57.2517 104.228 59.1691C103.918 59.2969 103.84 59.7443 104.073 60C105.16 61.0226 107.798 63.1318 111.679 62.5566C112.145 62.4927 112.455 62.9401 112.222 63.3236C108.652 68.9481 103.53 72.5273 98.0971 73.0386C97.6314 73.1025 97.4762 73.5499 97.709 73.8695C99.6493 76.0426 103.918 77.9601 108.031 77.3848C108.575 77.3209 108.807 77.8961 108.497 78.2796C103.219 83.4567 100.115 85.6298 91.3449 88.9534C91.0345 89.0812 90.8793 89.4647 91.1121 89.7843C99.3388 99.4993 116.646 101.225 124.95 101.225Z" fill="#32544D"/>
</g>
<defs>
<clipPath id="clip0_23_196">
<rect width="2000" height="286" fill="white"/>
</clipPath>
</defs>
</svg>
