<svg width="2000" height="829" viewBox="0 0 2000 829" fill="none" xmlns="http://www.w3.org/2000/svg">
<g clip-path="url(#clip0_23_230)">
<path d="M2000 829V60C2000 60 1720.2 83.2641 1716.4 79.3641L1643.1 6.0641C1635.7 -1.3359 1624 -2.0359 1615.8 4.3641L1438.7 142.664C1434.5 145.964 1429.2 147.464 1423.9 146.964L1333.5 137.664C1328.9 137.164 1324.2 138.264 1320.3 140.764L1098.4 208.064C1091.8 212.264 1083.4 212.364 1076.7 208.364L763.1 93.5641C757.4 90.1641 750.4 89.6641 744.3 92.2641L672.7 122.964C664.6 126.464 655.1 124.364 649.2 117.764L560.4 18.3641C552.3 9.2641 538 9.1641 529.8 18.1641L440.9 115.464C435.1 121.864 426 123.864 418 120.664L375.5 103.664C368.1 100.764 359.7 102.264 353.9 107.664L284.7 171.164L0 60V829H2000Z" fill="#A5C0BA"/>
</g>
<defs>
<clipPath id="clip0_23_230">
<rect width="2000" height="829" fill="white"/>
</clipPath>
</defs>
</svg>
