<svg width="2000" height="398" viewBox="0 0 2000 398" fill="none" xmlns="http://www.w3.org/2000/svg">
<g clip-path="url(#clip0_23_225)">
<path d="M1010.17 219.504L974.567 218.1V215.091C974.567 214.991 974.668 214.791 974.768 214.791C978.278 214.791 985.8 213.888 989.31 208.774C989.41 208.674 989.41 208.373 989.21 208.373C985.399 206.668 984.095 205.465 981.788 202.758C981.588 202.557 981.788 202.256 981.989 202.256C983.794 202.557 985.599 201.554 986.402 200.451C986.502 200.251 986.402 200.05 986.201 200.05C983.894 199.749 981.688 197.944 980.083 194.936C979.983 194.735 980.083 194.535 980.284 194.535C981.989 194.836 983.092 193.733 983.593 193.231C983.694 193.131 983.694 192.83 983.493 192.83C981.487 191.827 979.783 190.323 978.88 189.421C978.679 189.22 978.78 188.919 979.08 188.919C979.682 189.02 980.685 188.919 981.889 188.418C982.089 188.318 982.089 188.017 981.889 187.917C980.083 186.613 978.178 184.106 977.376 182.903C977.275 182.702 977.376 182.402 977.576 182.502C977.977 182.602 978.579 182.602 979.482 182.301C979.682 182.301 979.682 182 979.582 181.8C975.57 177.989 973.464 170.87 972.863 168.363C972.762 168.062 972.461 168.062 972.461 168.363C971.86 170.97 969.754 177.989 965.742 181.8C965.541 181.9 965.642 182.201 965.842 182.301C966.745 182.502 967.347 182.502 967.748 182.502C967.948 182.502 968.049 182.702 967.948 182.903C967.347 183.705 966.344 185.209 965.04 186.413C963.836 185.51 962.834 184.608 962.132 184.006C961.931 183.805 962.031 183.404 962.332 183.505C963.034 183.605 964.137 183.505 965.541 182.903C965.742 182.803 965.742 182.502 965.541 182.402C963.435 180.897 961.43 178.09 960.427 176.786C960.326 176.586 960.427 176.285 960.627 176.285C961.129 176.385 961.73 176.385 962.733 176.084C962.934 175.984 963.034 175.683 962.834 175.583C958.321 171.271 955.914 163.349 955.212 160.441C955.111 160.14 954.81 160.14 954.71 160.441C954.008 163.349 951.702 171.271 947.088 175.583C946.888 175.783 946.988 176.084 947.188 176.084C948.191 176.285 948.893 176.285 949.295 176.285C949.495 176.285 949.696 176.586 949.495 176.786C948.593 178.09 946.486 180.897 944.38 182.402C944.18 182.502 944.18 182.903 944.38 182.903C945.784 183.505 946.888 183.605 947.59 183.505C947.891 183.505 947.991 183.805 947.79 184.006C946.787 185.009 944.782 186.713 942.575 187.917C942.375 188.017 942.375 188.218 942.475 188.418C942.976 189.02 944.28 190.223 946.186 189.922C946.386 189.922 946.587 190.123 946.486 190.424C944.782 193.733 942.274 195.838 939.667 196.139C939.466 196.139 939.366 196.44 939.466 196.641C940.369 197.944 942.475 199.047 944.481 198.746C944.681 198.746 944.882 199.047 944.681 199.248C942.375 202.056 940.87 203.359 937.46 204.964C935.956 203.961 934.953 202.958 933.549 201.354C933.449 201.153 933.549 200.852 933.75 200.953C935.354 201.253 937.059 200.251 937.862 199.248C937.962 199.047 937.862 198.847 937.761 198.847C935.555 198.646 933.549 196.841 932.145 194.134C932.045 193.933 932.145 193.733 932.346 193.733C933.85 194.034 934.953 193.031 935.354 192.529C935.455 192.429 935.455 192.229 935.254 192.128C933.449 191.226 931.744 189.722 930.942 188.919C930.741 188.719 930.841 188.418 931.142 188.518C931.744 188.619 932.647 188.518 933.85 188.017C934.051 187.917 934.051 187.716 933.85 187.616C932.145 186.413 930.44 184.106 929.638 183.003C929.538 182.803 929.638 182.602 929.838 182.602C930.24 182.702 930.741 182.702 931.644 182.502C931.844 182.502 931.844 182.201 931.744 182.101C927.933 178.491 926.027 171.973 925.426 169.566C925.325 169.366 925.025 169.366 925.025 169.566C924.423 171.973 922.517 178.491 918.706 182.101C918.606 182.201 918.606 182.502 918.807 182.502C919.609 182.702 920.211 182.702 920.612 182.602C920.812 182.602 920.913 182.803 920.812 183.003C920.01 184.106 918.305 186.413 916.6 187.616C916.4 187.716 916.5 188.017 916.6 188.017C917.804 188.518 918.706 188.619 919.308 188.518C919.509 188.518 919.609 188.819 919.509 188.919C918.606 189.722 917.001 191.226 915.196 192.128C915.096 192.229 914.996 192.429 915.096 192.529C915.497 193.031 916.6 194.034 918.105 193.733C918.305 193.733 918.405 193.933 918.305 194.134C918.004 194.735 917.703 195.237 917.302 195.638C915.196 194.836 913.19 192.93 911.786 190.123C911.686 189.922 911.786 189.621 912.087 189.621C913.993 190.022 915.296 188.719 915.798 188.117C915.898 187.917 915.898 187.716 915.698 187.616C913.391 186.413 911.385 184.708 910.382 183.705C910.182 183.505 910.282 183.103 910.583 183.204C911.285 183.304 912.388 183.204 913.892 182.602C914.093 182.502 914.093 182.201 913.892 182C911.786 180.496 909.68 177.689 908.677 176.285C908.477 176.084 908.677 175.783 908.878 175.783C909.379 175.884 910.081 175.884 911.084 175.583C911.285 175.483 911.385 175.182 911.185 175.081C906.571 170.669 904.164 162.547 903.462 159.639C903.362 159.338 903.061 159.338 902.961 159.639C902.259 162.547 899.852 170.669 895.239 175.081C895.038 175.282 895.138 175.583 895.339 175.583C896.342 175.783 897.044 175.783 897.545 175.783C897.746 175.783 897.946 176.084 897.746 176.285C896.843 177.689 894.637 180.496 892.531 182C892.33 182.101 892.33 182.502 892.531 182.602C893.935 183.204 895.038 183.304 895.84 183.204C896.141 183.204 896.241 183.605 896.041 183.705C894.938 184.708 892.932 186.513 890.726 187.616C890.525 187.716 890.525 187.917 890.625 188.117C891.127 188.719 892.431 190.022 894.336 189.621C894.537 189.621 894.737 189.822 894.637 190.123C892.932 193.532 890.324 195.638 887.617 195.939C887.416 195.939 887.316 196.24 887.416 196.44C888.419 197.744 890.525 198.847 892.531 198.546C892.731 198.546 892.932 198.847 892.731 199.047C890.124 202.156 888.62 203.459 884.307 205.465C884.106 205.565 884.106 205.766 884.207 205.966C888.319 211.782 896.843 212.785 900.855 212.785C900.955 212.785 901.156 212.885 901.156 213.086V215.292L854.521 213.487C855.524 212.785 856.427 211.883 857.129 210.88C857.229 210.78 857.229 210.479 857.028 210.479C853.217 208.774 851.914 207.571 849.607 204.863C849.406 204.663 849.607 204.362 849.808 204.362C851.613 204.663 853.418 203.66 854.22 202.557C854.321 202.356 854.22 202.156 854.02 202.156C851.713 201.855 849.507 200.05 847.902 197.042C847.802 196.841 847.902 196.641 848.103 196.641C849.808 196.941 850.911 195.838 851.412 195.337C851.512 195.237 851.512 194.936 851.312 194.936C849.306 193.933 847.601 192.429 846.699 191.527C846.498 191.326 846.598 191.025 846.899 191.025C847.501 191.126 848.504 191.025 849.707 190.524C849.908 190.424 849.908 190.123 849.707 190.022C847.902 188.719 845.997 186.212 845.194 185.009C845.094 184.808 845.194 184.507 845.395 184.608C845.796 184.708 846.398 184.708 847.3 184.407C847.501 184.407 847.501 184.106 847.401 183.906C843.389 180.095 841.283 172.976 840.681 170.469C840.581 170.168 840.28 170.168 840.28 170.469C839.879 172.274 838.776 176.084 836.77 179.594C834.463 177.789 832.257 174.881 831.254 173.377C831.053 173.176 831.254 172.775 831.555 172.775C832.056 172.875 832.859 172.875 834.062 172.575C834.263 172.474 834.363 172.173 834.162 171.973C828.847 166.959 826.139 157.734 825.337 154.324C825.237 154.023 824.836 154.023 824.735 154.324C823.933 157.633 821.225 166.959 815.91 171.973C815.709 172.173 815.809 172.575 816.01 172.575C817.113 172.875 817.916 172.875 818.517 172.775C818.818 172.775 818.918 173.076 818.818 173.377C817.916 174.68 816.11 177.087 814.105 178.892C813.102 177.689 812.199 176.485 811.698 175.783C811.497 175.583 811.698 175.182 811.998 175.182C812.5 175.282 813.302 175.282 814.506 174.981C814.706 174.881 814.807 174.58 814.606 174.379C809.291 169.366 806.583 160.14 805.781 156.731C805.68 156.43 805.279 156.43 805.179 156.731C804.377 160.04 801.669 169.366 796.353 174.379C796.153 174.58 796.253 174.981 796.454 174.981C797.557 175.282 798.359 175.282 798.961 175.182C799.262 175.182 799.362 175.482 799.262 175.783C798.159 177.287 795.752 180.597 793.345 182.301C793.144 182.502 793.144 182.803 793.445 182.903C795.05 183.605 796.353 183.705 797.156 183.605C797.457 183.605 797.657 184.006 797.356 184.206C796.153 185.41 793.846 187.415 791.239 188.719C791.038 188.819 791.038 189.12 791.138 189.321C791.74 190.022 793.244 191.426 795.451 191.025C795.752 191.025 795.852 191.326 795.752 191.527C794.047 194.836 791.64 197.142 789.032 197.944C788.23 197.142 787.428 196.34 786.625 195.237C786.425 195.036 786.625 194.635 786.926 194.635C789.233 195.036 791.64 193.733 792.743 192.229C792.943 192.028 792.743 191.627 792.542 191.627C789.433 191.326 786.625 188.819 784.62 185.009C784.519 184.708 784.72 184.407 784.92 184.507C787.127 184.908 788.631 183.505 789.233 182.803C789.333 182.602 789.333 182.301 789.133 182.201C786.525 180.897 784.218 178.892 783.015 177.689C782.814 177.488 782.915 176.987 783.215 177.087C784.018 177.187 785.322 177.087 786.926 176.385C787.127 176.285 787.227 175.884 787.026 175.783C784.619 174.079 782.213 170.87 781.109 169.265C780.909 169.065 781.109 168.664 781.41 168.664C781.912 168.764 782.714 168.764 783.917 168.463C784.118 168.363 784.218 168.062 784.018 167.862C778.702 162.848 775.995 153.622 775.192 150.213C775.092 149.912 774.691 149.912 774.591 150.213C773.788 153.422 771.381 161.745 766.568 166.959C763.158 162.547 761.352 156.23 760.751 153.823C760.65 153.522 760.35 153.522 760.249 153.823C759.547 156.731 757.241 164.653 752.627 168.965C752.427 169.165 752.527 169.466 752.728 169.466C753.73 169.667 754.432 169.667 754.834 169.667C755.034 169.667 755.235 169.967 755.034 170.168C754.132 171.471 752.026 174.279 749.919 175.783C749.719 175.884 749.719 176.285 749.919 176.285C751.323 176.886 752.427 176.987 753.129 176.886C753.43 176.886 753.53 177.187 753.329 177.388C752.326 178.39 750.321 180.095 748.114 181.298C747.914 181.399 747.914 181.599 748.014 181.8C748.515 182.402 749.819 183.605 751.725 183.304C751.925 183.304 752.126 183.505 752.026 183.805C750.321 187.114 747.813 189.22 745.206 189.521C745.005 189.521 744.905 189.822 745.005 190.022C745.908 191.326 748.014 192.429 750.02 192.128C750.22 192.128 750.421 192.429 750.22 192.63C747.713 195.638 746.209 196.942 741.896 198.847C741.696 198.947 741.696 199.148 741.796 199.348C743.401 201.554 745.607 203.159 748.014 204.161L722.54 200.551L698.371 180.897V179.092C698.371 178.892 698.471 178.691 698.672 178.691C703.887 178.691 714.718 177.388 719.833 169.967C719.933 169.767 719.933 169.466 719.732 169.366C714.216 166.859 712.311 165.154 709.001 161.243C708.801 160.943 709.001 160.541 709.302 160.541C711.91 160.943 714.517 159.539 715.821 157.834C716.022 157.633 715.821 157.232 715.62 157.132C712.211 156.731 709.001 154.023 706.795 149.712C706.695 149.411 706.895 149.11 707.096 149.11C709.503 149.611 711.208 148.007 711.91 147.205C712.11 147.004 712.01 146.703 711.81 146.603C708.901 145.099 706.394 142.893 704.99 141.589C704.689 141.389 704.89 140.887 705.19 140.887C706.093 140.988 707.497 140.887 709.403 140.085C709.703 139.985 709.703 139.584 709.503 139.383C706.795 137.478 704.087 133.868 702.884 132.163C702.683 131.863 702.884 131.461 703.185 131.562C703.786 131.662 704.689 131.662 705.993 131.361C706.294 131.261 706.394 130.86 706.093 130.659C700.176 125.044 697.167 114.715 696.265 111.005C696.164 110.604 695.663 110.604 695.663 111.005C694.961 113.813 693.156 120.231 689.746 125.645C689.746 125.445 689.746 125.345 689.545 125.244C686.637 123.74 684.13 121.534 682.726 120.231C682.425 120.03 682.625 119.529 682.926 119.529C683.829 119.629 685.233 119.529 687.138 118.726C687.439 118.626 687.439 118.225 687.239 118.025C684.531 116.119 681.823 112.509 680.62 110.805C680.419 110.504 680.62 110.103 680.92 110.203C681.522 110.303 682.425 110.303 683.729 110.002C684.029 109.902 684.13 109.501 683.829 109.301C677.912 103.685 674.903 93.3567 674 89.6465C673.9 89.2454 673.399 89.2454 673.399 89.6465C672.496 93.3567 669.487 103.685 663.57 109.301C663.37 109.501 663.47 109.902 663.671 110.002C664.974 110.303 665.877 110.303 666.479 110.203C666.78 110.203 666.98 110.604 666.78 110.805C665.576 112.509 662.868 116.119 660.161 118.025C659.96 118.225 659.96 118.626 660.261 118.726C662.066 119.529 663.47 119.629 664.473 119.529C664.774 119.529 664.974 119.93 664.674 120.231C663.269 121.534 660.762 123.74 657.854 125.244C657.653 125.345 657.553 125.645 657.754 125.846C658.456 126.648 660.06 128.253 662.567 127.751C662.868 127.651 663.069 128.052 662.868 128.353C660.662 132.665 657.453 135.372 654.043 135.773C653.742 135.773 653.642 136.174 653.842 136.475C655.046 138.08 657.754 139.584 660.361 139.183C660.662 139.082 660.863 139.584 660.662 139.885C657.352 143.795 655.447 145.5 649.931 148.007C649.73 148.107 649.63 148.408 649.831 148.609C655.046 156.029 665.877 157.333 670.992 157.333C671.192 157.333 671.293 157.533 671.293 157.734V163.75L631.979 156.33C631.979 156.129 632.18 156.029 632.38 156.029C634.988 156.43 637.595 155.026 638.899 153.322C639.1 153.121 638.899 152.72 638.699 152.62C635.289 152.219 632.08 149.511 629.873 145.199C629.773 144.898 629.973 144.598 630.174 144.598C632.581 145.099 634.286 143.495 634.988 142.692C635.188 142.492 635.088 142.191 634.888 142.091C631.979 140.587 629.472 138.38 628.068 137.077C627.767 136.876 627.968 136.375 628.268 136.375C629.171 136.475 630.575 136.375 632.481 135.573C632.782 135.472 632.782 135.071 632.581 134.871C629.873 132.966 627.165 129.356 625.962 127.651C625.761 127.35 625.962 126.949 626.263 127.049C626.864 127.15 627.767 127.15 629.071 126.849C629.372 126.749 629.472 126.347 629.171 126.147C623.254 120.531 620.245 110.203 619.343 106.493C619.242 106.092 618.741 106.092 618.741 106.493C618.24 108.498 617.136 112.309 615.331 116.32C612.724 114.715 610.417 112.81 609.214 111.507C608.913 111.206 609.113 110.704 609.514 110.704C610.517 110.805 612.022 110.704 614.027 109.902C614.328 109.802 614.328 109.301 614.128 109.1C611.219 106.994 608.311 103.083 607.007 101.278C606.807 100.978 607.007 100.577 607.308 100.577C607.91 100.677 608.913 100.677 610.317 100.376C610.618 100.276 610.718 99.8746 610.517 99.6741C604.099 93.6575 600.889 82.4266 599.887 78.4156C599.786 78.0145 599.285 78.0145 599.185 78.4156C598.182 82.4266 594.972 93.5572 588.554 99.6741C588.353 99.8746 588.454 100.376 588.755 100.376C590.159 100.677 591.061 100.677 591.763 100.577C592.064 100.476 592.265 100.978 592.064 101.278C591.061 102.682 589.156 105.29 587.05 107.295C586.348 106.393 585.746 105.49 585.244 104.888C585.044 104.588 585.244 104.186 585.545 104.186C586.147 104.287 587.15 104.287 588.554 103.986C588.855 103.886 588.955 103.485 588.755 103.284C582.336 97.2674 579.127 86.0366 578.124 82.0255C578.024 81.6244 577.522 81.6244 577.422 82.0255C576.62 85.3346 574.313 93.457 569.9 99.5738C570 99.3732 570 99.0724 569.8 98.8719C566.49 96.5655 563.181 92.0531 561.676 89.9473C561.476 89.6465 561.676 89.1451 562.078 89.1451C562.78 89.2454 563.883 89.2454 565.487 88.8443C565.788 88.744 565.889 88.2426 565.688 88.0421C558.367 81.1231 554.656 68.4883 553.553 63.8756C553.453 63.3743 552.851 63.3743 552.751 63.8756C551.647 68.4883 547.937 81.1231 540.716 88.0421C538.61 86.6382 536.905 85.0338 535.802 84.0311C535.501 83.7302 535.702 83.2288 536.103 83.2288C537.106 83.3291 538.61 83.2288 540.616 82.4266C540.916 82.3264 540.917 81.825 540.716 81.6244C537.808 79.5186 534.899 75.6079 533.595 73.8029C533.395 73.5021 533.595 73.101 533.896 73.101C534.498 73.2013 535.501 73.2013 536.905 72.9005C537.206 72.8002 537.306 72.3991 537.106 72.1985C530.687 66.182 527.478 54.9511 526.475 50.9401C526.375 50.539 525.873 50.539 525.773 50.9401C524.77 54.9511 521.561 66.0817 515.142 72.1985C514.942 72.3991 515.042 72.9005 515.343 72.9005C516.747 73.2013 517.649 73.2013 518.351 73.101C518.652 73.0007 518.853 73.5021 518.652 73.8029C517.549 75.3071 515.443 78.2151 513.136 80.3208C512.434 79.7192 511.732 79.1175 511.231 78.6162C510.93 78.3153 511.131 77.814 511.532 77.814C512.535 77.9142 514.039 77.814 516.045 77.0118C516.346 76.9115 516.346 76.4101 516.145 76.2095C513.237 74.1038 510.328 70.193 509.024 68.388C508.824 68.0872 509.025 67.6861 509.325 67.6861C509.927 67.7864 510.93 67.7864 512.334 67.4856C512.635 67.3853 512.735 66.9842 512.535 66.7836C506.116 60.7671 502.907 49.5362 501.904 45.5252C501.804 45.1241 501.302 45.1241 501.202 45.5252C500.801 47.1296 500.099 49.7368 498.996 52.745C495.185 46.8288 493.078 39.5086 492.276 36.4001C492.176 35.999 491.674 35.999 491.574 36.4001C490.772 39.7092 488.465 47.8315 484.052 53.9483C482.548 52.2437 481.244 50.4387 480.442 49.3357C480.241 49.0348 480.442 48.5335 480.843 48.5335C481.545 48.6337 482.648 48.6337 484.253 48.2326C484.554 48.1323 484.654 47.631 484.454 47.4304C477.132 40.5114 473.422 27.8766 472.319 23.264C472.218 22.7626 471.617 22.7626 471.516 23.264C470.413 27.8766 466.702 40.5114 459.381 47.4304C459.08 47.7312 459.181 48.2326 459.582 48.2326C461.187 48.6337 462.29 48.6337 462.992 48.5335C463.393 48.4332 463.593 48.9346 463.393 49.3357C462.49 50.7395 460.685 53.0459 458.78 55.1516C457.075 53.9483 455.57 52.5445 454.567 51.642C454.267 51.3412 454.467 50.8398 454.868 50.8398C455.871 50.9401 457.376 50.8398 459.381 50.0376C459.682 49.9373 459.682 49.4359 459.482 49.2354C456.573 47.1296 453.665 43.2188 452.361 41.4139C452.16 41.113 452.361 40.7119 452.662 40.7119C453.264 40.8122 454.267 40.8122 455.671 40.5114C455.971 40.4111 456.072 40.01 455.871 39.8095C449.453 33.7929 446.243 22.562 445.241 18.551C445.14 18.1499 444.639 18.1499 444.538 18.551C443.636 22.0607 441.129 30.8849 436.214 37.2023C433.406 35.0965 430.699 31.3863 429.495 29.6816C429.295 29.3808 429.495 28.9797 429.796 28.9797C430.398 29.08 431.401 29.08 432.805 28.7791C433.105 28.6789 433.206 28.2778 433.005 28.0772C426.587 22.0607 423.377 10.8298 422.375 6.81875C422.274 6.41765 421.773 6.41765 421.673 6.81875C420.67 10.8298 417.46 21.9604 411.042 28.0772C410.841 28.2778 410.942 28.7791 411.242 28.7791C412.646 29.08 413.549 29.08 414.251 28.9797C414.552 28.8794 414.753 29.3808 414.552 29.6816C413.348 31.3863 410.942 34.6954 408.334 36.8012C403.721 30.5841 401.213 22.0607 400.311 18.551C400.211 18.1499 399.709 18.1499 399.609 18.551C398.706 22.0607 396.199 30.8849 391.285 37.2023C388.477 35.0965 385.769 31.3863 384.565 29.6816C384.365 29.3808 384.565 28.9797 384.866 28.9797C385.468 29.08 386.471 29.08 387.875 28.7791C388.176 28.6789 388.276 28.2778 388.076 28.0772C381.657 22.0607 378.448 10.8298 377.445 6.81875C377.345 6.41765 376.843 6.41765 376.743 6.81875C375.74 10.8298 372.531 21.9604 366.112 28.0772C365.912 28.2778 366.012 28.7791 366.313 28.7791C367.717 29.08 368.619 29.08 369.322 28.9797C369.622 28.8794 369.823 29.3808 369.622 29.6816C368.319 31.5869 365.41 35.4976 362.502 37.5031C362.201 37.7037 362.301 38.1048 362.602 38.3053C364.608 39.2078 366.112 39.3081 367.115 39.1075C367.516 39.1075 367.617 39.6089 367.416 39.9097C365.912 41.3136 363.204 43.7202 360.095 45.3246C359.894 45.4249 359.794 45.826 359.995 46.0266C360.697 46.929 362.502 48.6337 365.109 48.1323C365.41 48.0321 365.611 48.4332 365.51 48.734C363.104 53.3467 359.593 56.355 355.883 56.7561C355.582 56.7561 355.482 57.1572 355.682 57.458C356.986 59.263 359.894 60.7671 362.702 60.366C363.003 60.2657 363.204 60.7671 363.003 61.0679C359.393 65.3798 357.287 67.0845 351.37 69.8922C351.169 69.9925 351.069 70.2933 351.269 70.5941C356.886 78.6162 368.619 80.02 374.236 80.02C374.436 80.02 374.637 80.2206 374.637 80.4211V81.6244C374.537 81.6244 374.537 81.7247 374.436 81.7247C374.236 81.825 374.135 82.1258 374.336 82.4266C374.436 82.6272 374.637 82.7275 374.737 82.928V85.4349L317.672 81.0228V73.9032C317.672 73.7027 317.873 73.5021 318.074 73.5021C323.69 73.5021 335.424 72.0982 341.04 64.0762C341.24 63.8756 341.14 63.4745 340.94 63.3743C335.023 60.6668 332.816 58.8618 329.306 54.55C329.105 54.2492 329.306 53.7478 329.607 53.8481C332.415 54.3494 335.323 52.745 336.627 50.9401C336.828 50.6392 336.727 50.2381 336.427 50.2381C332.716 49.837 329.206 46.8288 326.799 42.2161C326.598 41.9153 326.899 41.5141 327.2 41.6144C329.808 42.1158 331.613 40.4111 332.315 39.5086C332.515 39.3081 332.415 38.907 332.214 38.8067C329.105 37.2023 326.297 34.7957 324.893 33.3918C324.592 33.091 324.793 32.5896 325.194 32.5896C326.197 32.6899 327.701 32.5896 329.707 31.7874C330.008 31.6871 330.008 31.1857 329.807 30.9852C326.899 28.8794 323.991 24.9687 322.687 23.1637C322.486 22.8629 322.687 22.4618 322.988 22.4618C323.59 22.562 324.592 22.562 325.997 22.2612C326.297 22.1609 326.398 21.7598 326.197 21.5593C319.779 15.5427 316.569 4.31186 315.566 0.300827C315.466 -0.100276 314.965 -0.100276 314.864 0.300827C313.862 4.31186 310.652 15.4425 304.234 21.5593C304.033 21.7598 304.133 22.2612 304.434 22.2612C305.838 22.562 306.741 22.562 307.443 22.4618C307.744 22.3615 307.944 22.8629 307.744 23.1637C306.44 25.0689 303.532 28.9797 300.623 30.9852C300.322 31.1857 300.423 31.5868 300.724 31.7874C302.729 32.6899 304.234 32.7902 305.237 32.5896C305.638 32.5896 305.738 33.091 305.538 33.3918C304.334 34.5951 302.228 36.4001 299.721 38.0045C297.514 35.8987 295.408 33.1913 294.405 31.6871C294.205 31.3863 294.405 30.9852 294.706 30.9852C295.308 31.0855 296.311 31.0855 297.715 30.7846C298.016 30.6844 298.116 30.2833 297.915 30.0827C291.497 24.0662 288.288 12.8353 287.285 8.82426C287.185 8.42316 286.683 8.42316 286.583 8.82426C285.58 12.8353 282.371 23.9659 275.952 30.0827C275.752 30.2833 275.852 30.7846 276.153 30.7846C277.557 31.0855 278.459 31.0855 279.161 30.9852C279.462 30.8849 279.663 31.3863 279.462 31.6871C278.159 33.5924 275.25 37.5031 272.342 39.5086C272.041 39.7092 272.141 40.1103 272.442 40.3108C274.448 41.2133 275.952 41.3136 276.955 41.113C277.356 41.113 277.456 41.6144 277.256 41.9153C275.752 43.3191 273.044 45.7257 269.935 47.3301C269.734 47.4304 269.634 47.8315 269.835 48.0321C270.537 48.9346 272.342 50.6392 274.949 50.1379C275.25 50.0376 275.451 50.4387 275.35 50.7395C272.943 55.3522 269.433 58.3605 265.723 58.7616C265.422 58.7616 265.321 59.1627 265.522 59.4635C266.826 61.2685 269.734 62.7726 272.542 62.3715C272.843 62.2712 273.044 62.7726 272.843 63.0734C269.233 67.3853 267.127 69.09 261.21 71.8977C261.009 71.998 260.909 72.2988 261.109 72.5996C266.024 79.6189 274.147 81.5242 280.164 81.9253V352.87H1034.34C1034.34 352.87 1034.94 295.713 1034.94 263.123C1034.94 230.534 1010.17 219.504 1010.17 219.504ZM686.938 131.562C687.84 131.762 688.542 131.762 689.044 131.662C689.345 131.662 689.545 132.063 689.345 132.264C689.144 132.564 688.843 132.966 688.542 133.266C688.041 132.765 687.539 132.163 686.938 131.562ZM685.333 127.852C687.539 128.253 689.144 126.949 689.946 126.147C688.944 127.751 687.74 129.356 686.336 130.659C685.835 129.957 685.433 129.255 685.032 128.453C684.832 128.152 685.032 127.751 685.333 127.852ZM676.608 158.135C677.912 159.639 680.419 160.943 682.826 160.541C683.127 160.441 683.327 160.943 683.127 161.243C681.823 162.848 680.619 164.051 679.416 165.154L676.608 164.653V158.135ZM455.871 60.4663C455.671 60.1654 455.971 59.7643 456.272 59.8646C456.673 59.9649 456.974 59.9649 457.375 59.9649C458.378 60.1654 459.281 60.1654 459.883 60.0652C460.284 60.0652 460.484 60.6668 460.184 60.9676C459.482 61.5693 458.579 62.3715 457.576 63.274C456.974 62.3715 456.373 61.469 455.871 60.4663ZM482.548 60.8674C482.247 60.5665 482.448 59.9649 482.849 59.9649C482.949 59.9649 483.15 59.9649 483.25 59.9649C483.05 60.366 482.849 60.6668 482.548 60.8674C482.548 60.9676 482.548 60.9676 482.548 60.8674ZM418.463 88.0421V88.744L417.159 88.6437C417.561 88.4432 417.962 88.2426 418.463 88.0421ZM423.979 87.5407C425.283 88.3429 426.787 88.9446 428.191 89.5462L423.979 89.2454V87.5407ZM611.52 119.729C612.323 119.93 613.025 119.829 613.727 119.629C613.225 120.531 612.724 121.334 612.222 122.136C611.821 121.534 611.52 121.033 611.219 120.331C611.019 120.03 611.219 119.629 611.52 119.729ZM570.101 104.888C569.9 105.189 569.7 105.49 569.399 105.791C568.496 105.189 567.694 104.588 566.992 103.986C568.296 104.287 569.198 104.287 569.8 104.186C570.101 104.186 570.301 104.588 570.101 104.888ZM564.384 100.677C565.487 100.777 567.293 100.677 569.499 99.7743C569.599 99.7743 569.599 99.6741 569.599 99.6741C568.697 100.978 567.593 102.281 566.49 103.284C566.39 103.384 566.39 103.585 566.39 103.685C565.487 102.883 564.685 102.181 564.083 101.579C563.783 101.178 563.983 100.577 564.384 100.677ZM537.808 92.1534C540.415 92.6548 542.22 90.9501 542.922 90.0476C543.123 89.847 543.023 89.4459 542.822 89.3457C542.722 89.2454 542.521 89.2454 542.421 89.1451C543.023 89.1451 543.524 89.1451 543.925 89.1451C544.326 89.0448 544.527 89.5462 544.326 89.9473C543.323 91.3512 541.518 93.8581 539.412 95.9639C538.71 95.0614 538.008 93.9584 537.406 92.755C537.306 92.4542 537.507 92.0531 537.808 92.1534ZM431.3 39.0073C432.002 39.1075 432.905 39.1075 434.108 38.8067C433.808 39.1075 433.507 39.5086 433.105 39.8095C432.905 40.01 433.005 40.5114 433.306 40.5114C434.71 40.8122 435.613 40.8122 436.315 40.7119C436.616 40.6117 436.816 41.113 436.616 41.4139C436.315 41.9153 435.813 42.5169 435.312 43.2188C433.507 41.9153 432.002 40.6117 431.1 39.7092C430.699 39.5086 430.899 39.0073 431.3 39.0073ZM411.142 39.0073C411.543 39.0073 411.644 39.5086 411.443 39.8095C410.54 40.6117 409.237 41.815 407.732 42.918C407.331 42.4166 406.93 41.815 406.629 41.4139C406.429 41.113 406.629 40.7119 406.93 40.7119C407.532 40.8122 408.535 40.8122 409.939 40.5114C410.24 40.4111 410.34 40.01 410.139 39.8095C409.838 39.6089 409.638 39.3081 409.337 39.0073C410.039 39.1075 410.641 39.1075 411.142 39.0073ZM386.27 39.0073C386.972 39.1075 387.875 39.1075 389.078 38.8067C388.778 39.1075 388.477 39.5086 388.076 39.8095C387.875 40.01 387.975 40.5114 388.276 40.5114C389.68 40.8122 390.583 40.8122 391.285 40.7119C391.586 40.6117 391.786 41.113 391.586 41.4139C391.285 41.9153 390.783 42.5169 390.282 43.2188C388.477 41.9153 386.972 40.6117 386.07 39.7092C385.669 39.5086 385.869 39.0073 386.27 39.0073ZM299.32 54.4497C299.119 54.2492 299.019 54.0486 298.818 53.8481C298.918 53.8481 298.918 53.8481 299.019 53.8481C299.32 53.7478 299.42 54.1489 299.32 54.4497ZM310.351 73.4018C310.652 73.4018 310.753 73.6024 310.753 73.8029V80.4211L300.824 79.6189C304.334 78.5159 307.844 76.5104 310.351 73.4018ZM295.107 41.0128C295.809 41.113 296.712 41.113 297.815 40.8122C298.718 41.4139 299.921 41.815 301.426 41.5141C301.726 41.4139 301.927 41.815 301.827 42.1158C301.125 43.4194 300.423 44.5224 299.62 45.5252C297.615 44.1213 295.91 42.7175 294.907 41.7147C294.606 41.5142 294.807 41.0128 295.107 41.0128ZM963.636 190.424C963.536 190.223 963.636 189.922 963.937 189.922C965.04 190.123 966.043 189.722 966.645 189.321C966.645 189.421 966.645 189.421 966.544 189.521C966.043 190.022 965.14 190.724 964.238 191.527C963.937 191.126 963.736 190.825 963.636 190.424ZM957.217 212.986C957.217 212.785 957.318 212.685 957.518 212.685C958.321 212.685 959.323 212.585 960.427 212.484C964.037 214.389 968.35 214.891 970.857 214.891C970.957 214.891 971.057 214.991 971.057 215.192V218.1L957.217 217.598V212.986ZM927.331 212.484C930.139 212.484 935.655 211.883 939.266 208.674C943.578 211.983 949.696 212.685 953.005 212.685C953.106 212.685 953.306 212.785 953.306 212.986V217.398L927.231 216.395V212.785C927.131 212.585 927.231 212.484 927.331 212.484ZM915.497 200.852C915.999 200.953 916.5 200.953 917.001 200.953C917.202 200.953 917.302 201.253 917.202 201.354C917.001 201.554 916.801 201.755 916.701 201.955C916.199 201.654 915.798 201.253 915.497 200.852ZM905.568 213.186C905.568 212.986 905.669 212.885 905.869 212.885C908.276 212.885 912.187 212.484 915.798 211.08C918.706 212.183 921.815 212.484 923.721 212.484C923.821 212.484 923.921 212.585 923.921 212.785V216.295L905.568 215.593V213.186ZM814.105 184.307C813.904 184.106 814.004 183.605 814.305 183.705C814.606 183.705 815.007 183.705 815.408 183.705C815.107 184.006 814.706 184.206 814.405 184.507C814.205 184.407 814.105 184.407 814.105 184.307ZM833.862 181.298C834.463 181.399 835.366 181.399 836.369 181.098C835.867 181.8 835.366 182.502 834.864 183.103C834.363 182.702 833.962 182.301 833.661 182C833.46 181.7 833.561 181.298 833.862 181.298ZM817.414 181.8C817.214 181.599 817.013 181.499 816.812 181.298C816.913 181.298 817.013 181.298 817.113 181.298C817.414 181.298 817.514 181.599 817.414 181.8ZM768.674 168.764C768.974 168.764 769.075 169.065 768.974 169.366C768.573 169.967 767.971 170.77 767.269 171.672C766.868 171.171 766.467 170.669 766.267 170.268C766.166 170.068 766.267 169.767 766.467 169.767C766.969 169.867 767.57 169.867 768.573 169.566C768.774 169.466 768.874 169.165 768.674 169.065C768.573 168.965 768.473 168.864 768.373 168.764C768.473 168.764 768.573 168.764 768.674 168.764Z" fill="#567A73"/>
<path d="M1738.77 88.2426C1733.16 85.6355 1731.15 83.9308 1727.74 79.9197C1727.54 79.6189 1727.74 79.2178 1728.04 79.2178C1730.65 79.6189 1733.46 78.1148 1734.66 76.5104C1734.86 76.3098 1734.66 75.9087 1734.46 75.8084C1730.95 75.4073 1727.64 72.5996 1725.33 68.1875C1725.13 67.8866 1725.43 67.4855 1725.73 67.5858C1728.24 68.0872 1729.95 66.3825 1730.65 65.5803C1730.85 65.3798 1730.75 65.0789 1730.55 64.9787C1727.64 63.4745 1724.93 61.1682 1723.53 59.8646C1723.23 59.5638 1723.43 59.0624 1723.83 59.1627C1724.83 59.2629 1726.24 59.1627 1728.14 58.3605C1728.44 58.2602 1728.44 57.8591 1728.24 57.6585C1725.53 55.7533 1722.73 51.9428 1721.52 50.2381C1721.32 49.9373 1721.52 49.5362 1721.82 49.5362C1722.42 49.6365 1723.33 49.6365 1724.63 49.3356C1724.93 49.2354 1725.03 48.8343 1724.73 48.6337C1718.61 42.918 1715.61 32.2888 1714.6 28.4783C1714.5 28.0772 1714 28.0772 1713.9 28.4783C1712.9 32.2888 1709.89 42.918 1703.77 48.6337C1703.57 48.8343 1703.67 49.2354 1703.87 49.3356C1705.18 49.6365 1706.08 49.6365 1706.68 49.5362C1706.98 49.5362 1707.18 49.9373 1706.98 50.2381C1706.58 50.8398 1705.98 51.7423 1705.18 52.6447C1703.07 50.539 1701.16 48.0321 1700.26 46.6282C1700.06 46.3274 1700.26 45.9263 1700.56 45.9263C1701.16 46.0265 1702.17 46.0265 1703.57 45.7257C1703.87 45.6254 1703.97 45.2243 1703.77 45.0238C1697.35 39.0072 1694.14 27.7764 1693.14 23.7653C1693.04 23.3642 1692.54 23.3642 1692.44 23.7653C1691.44 27.7764 1688.23 38.907 1681.81 45.0238C1681.61 45.2243 1681.71 45.7257 1682.01 45.7257C1683.41 46.0265 1684.31 46.0265 1685.02 45.9263C1685.32 45.826 1685.52 46.3274 1685.32 46.6282C1684.01 48.5334 1681.11 52.4442 1678.2 54.4497C1677.9 54.6503 1678 55.0514 1678.3 55.2519C1680.3 56.1544 1681.81 56.2547 1682.81 56.0541C1683.21 56.0541 1683.31 56.5555 1683.11 56.8563C1681.61 58.2602 1678.9 60.6668 1675.79 62.2712C1675.59 62.3715 1675.49 62.7726 1675.69 62.9731C1676.39 63.8756 1678.2 65.5803 1680.8 65.0789C1681.11 64.9787 1681.31 65.3798 1681.21 65.6806C1679.8 68.388 1678 70.4938 1676.09 71.8977C1675.49 71.296 1674.79 70.4938 1674.09 69.6916C1673.88 69.4911 1674.09 69.09 1674.29 69.09C1676.59 69.4911 1678.9 68.1875 1680 66.7836C1680.2 66.5831 1680 66.2822 1679.8 66.182C1676.79 65.8811 1673.99 63.4745 1672.08 59.664C1671.98 59.4635 1672.18 59.0624 1672.38 59.1627C1674.49 59.5638 1675.99 58.1599 1676.59 57.458C1676.69 57.2574 1676.69 56.9566 1676.49 56.8563C1673.99 55.5527 1671.78 53.5472 1670.58 52.4442C1670.37 52.2436 1670.48 51.8425 1670.78 51.8425C1671.58 51.9428 1672.88 51.8425 1674.39 51.1406C1674.59 51.0403 1674.69 50.6392 1674.49 50.539C1672.18 48.8343 1669.77 45.7257 1668.67 44.2216C1668.47 44.021 1668.67 43.6199 1668.97 43.6199C1669.47 43.7202 1670.27 43.7202 1671.38 43.4194C1671.58 43.3191 1671.68 43.0183 1671.48 42.8177C1666.26 37.9042 1663.66 28.8794 1662.85 25.5703C1662.75 25.2695 1662.35 25.2695 1662.25 25.5703C1661.45 28.6788 1659.04 37.2023 1654.23 42.2161C1652.12 40.8122 1650.32 39.2078 1649.31 38.205C1649.01 37.9042 1649.21 37.4028 1649.61 37.4028C1650.62 37.5031 1652.12 37.4028 1654.13 36.6006C1654.43 36.5004 1654.43 35.999 1654.23 35.7984C1651.32 33.6926 1648.41 29.7819 1647.11 27.9769C1646.91 27.6761 1647.11 27.275 1647.41 27.275C1648.01 27.3753 1649.01 27.3753 1650.42 27.0744C1650.72 26.9742 1650.82 26.5731 1650.62 26.3725C1644.2 20.356 1640.99 9.12508 1639.99 5.11405C1639.89 4.71295 1639.39 4.71295 1639.29 5.11405C1638.28 9.12508 1635.07 20.2557 1628.65 26.3725C1628.45 26.5731 1628.55 27.0744 1628.85 27.0744C1630.26 27.3753 1631.16 27.3753 1631.86 27.275C1632.16 27.1747 1632.37 27.6761 1632.16 27.9769C1630.86 29.8822 1627.95 33.7929 1625.04 35.7984C1624.74 35.999 1624.84 36.4001 1625.14 36.6006C1627.15 37.5031 1628.65 37.6034 1629.66 37.4028C1630.06 37.4028 1630.16 37.9042 1629.96 38.205C1628.45 39.6089 1625.75 42.0155 1622.64 43.6199C1622.44 43.7202 1622.34 44.1213 1622.54 44.3219C1623.24 45.2243 1625.04 46.929 1627.65 46.4277C1627.95 46.3274 1628.15 46.7285 1628.05 47.0293C1625.65 51.642 1622.14 54.6503 1618.42 55.0514C1618.12 55.0514 1618.02 55.4525 1618.22 55.7533C1619.53 57.5583 1622.44 59.0624 1625.24 58.6613C1625.55 58.561 1625.75 59.0624 1625.55 59.3632C1621.93 63.6751 1619.83 65.3798 1613.91 68.1875C1613.71 68.2878 1613.61 68.5886 1613.81 68.8894C1619.43 76.9115 1631.16 78.3153 1636.78 78.3153C1636.98 78.3153 1637.18 78.5159 1637.18 78.7164V85.3346L1555.24 91.652C1554.04 91.7523 1552.84 91.9528 1551.73 92.2537L1523.25 99.3732C1521.65 99.7743 1520.14 100.376 1518.64 101.078L1495.07 113.211C1491.46 111.406 1489.95 110.002 1487.45 107.094C1487.25 106.894 1487.45 106.493 1487.65 106.493C1489.75 106.894 1491.96 105.59 1492.96 104.287C1493.16 104.086 1492.96 103.785 1492.76 103.785C1489.95 103.485 1487.25 101.178 1485.44 97.6685C1485.34 97.468 1485.44 97.1672 1485.74 97.1672C1487.75 97.5683 1489.15 96.2647 1489.65 95.5628C1489.75 95.3622 1489.75 95.1616 1489.55 95.0614C1487.15 93.8581 1485.04 91.9528 1483.94 90.8498C1483.74 90.6492 1483.84 90.2481 1484.14 90.2481C1484.94 90.3484 1486.04 90.2481 1487.55 89.6465C1487.75 89.5462 1487.75 89.2454 1487.55 89.0448C1485.34 87.4404 1483.13 84.4321 1482.13 83.0283C1481.93 82.8277 1482.13 82.4266 1482.43 82.5269C1482.93 82.6272 1483.64 82.6272 1484.74 82.3264C1484.94 82.2261 1485.04 81.9253 1484.84 81.7247C1479.93 77.112 1477.42 68.5886 1476.72 65.48C1476.62 65.1792 1476.21 65.1792 1476.21 65.48C1475.41 68.5886 1473.01 77.112 1468.09 81.7247C1467.89 81.9253 1467.99 82.2261 1468.19 82.3264C1469.19 82.6272 1470 82.6272 1470.5 82.5269C1470.8 82.5269 1470.9 82.8277 1470.8 83.0283C1469.8 84.4321 1467.59 87.4404 1465.38 89.0448C1465.18 89.1451 1465.18 89.5462 1465.38 89.6465C1466.89 90.3484 1468.09 90.3484 1468.79 90.2481C1469.09 90.2481 1469.19 90.6492 1468.99 90.8498C1467.89 91.9528 1465.78 93.7578 1463.38 95.0614C1463.18 95.1616 1463.18 95.4625 1463.28 95.5628C1463.88 96.2647 1465.18 97.5683 1467.19 97.1672C1467.39 97.1672 1467.59 97.468 1467.49 97.6685C1465.68 101.178 1462.98 103.485 1460.17 103.785C1459.97 103.785 1459.87 104.086 1459.97 104.287C1460.97 105.691 1463.18 106.894 1465.28 106.493C1465.58 106.493 1465.68 106.794 1465.48 107.094C1462.78 110.404 1461.17 111.707 1456.56 113.813C1456.36 113.913 1456.36 114.114 1456.46 114.314C1460.77 120.431 1469.7 121.534 1474.01 121.534C1474.21 121.534 1474.31 121.634 1474.31 121.835V123.74L1459.77 131.261C1457.26 129.656 1455.55 128.052 1453.25 125.345C1453.05 125.044 1453.25 124.643 1453.55 124.643C1456.16 125.044 1458.96 123.54 1460.17 121.935C1460.37 121.735 1460.17 121.334 1459.97 121.233C1456.46 120.832 1453.15 118.025 1450.84 113.612C1450.64 113.312 1450.94 112.91 1451.14 113.011C1453.65 113.512 1455.35 111.807 1456.06 111.005C1456.26 110.805 1456.16 110.504 1455.96 110.404C1453.05 108.899 1450.34 106.593 1449.04 105.289C1448.74 104.989 1448.94 104.487 1449.34 104.588C1450.34 104.688 1451.74 104.588 1453.65 103.785C1453.95 103.685 1453.95 103.284 1453.75 103.083C1451.04 101.178 1448.23 97.3677 1447.03 95.663C1446.83 95.3622 1447.03 94.9611 1447.33 94.9611C1447.93 95.0614 1448.84 95.0614 1450.14 94.7605C1450.44 94.6603 1450.54 94.2592 1450.24 94.0586C1444.12 88.3429 1441.11 77.7137 1440.11 73.9032C1440.01 73.5021 1439.51 73.5021 1439.41 73.9032C1438.41 77.7137 1435.4 88.2426 1429.28 94.0586C1429.08 94.2592 1429.18 94.6603 1429.38 94.7605C1430.68 95.0614 1431.59 95.0614 1432.19 94.9611C1432.49 94.9611 1432.69 95.3622 1432.49 95.663C1431.28 97.468 1428.48 101.178 1425.77 103.083C1425.57 103.284 1425.57 103.685 1425.87 103.785C1427.77 104.588 1429.18 104.688 1430.18 104.588C1430.48 104.588 1430.68 105.089 1430.48 105.289C1429.38 106.393 1427.47 107.997 1425.27 109.401C1423.36 107.496 1421.76 105.29 1420.85 103.986C1420.65 103.685 1420.85 103.284 1421.16 103.284C1421.76 103.384 1422.66 103.384 1423.96 103.083C1424.26 102.983 1424.37 102.582 1424.06 102.382C1418.05 96.6658 1414.94 86.0366 1413.93 82.2261C1413.83 81.825 1413.33 81.825 1413.23 82.2261C1412.23 86.0366 1409.22 96.5655 1403.1 102.382C1402.9 102.582 1403 102.983 1403.2 103.083C1404.51 103.384 1405.41 103.384 1406.01 103.284C1406.31 103.284 1406.51 103.685 1406.31 103.986C1405.11 105.791 1402.3 109.501 1399.59 111.406C1399.39 111.607 1399.39 112.008 1399.69 112.108C1401.6 112.91 1403 113.011 1404.01 112.91C1404.31 112.91 1404.51 113.412 1404.31 113.612C1403.4 114.515 1401.9 115.818 1400.09 117.122C1397.39 115.417 1394.98 113.312 1393.58 112.008C1393.28 111.707 1393.48 111.105 1393.88 111.105C1395.08 111.206 1396.79 111.105 1399.09 110.103C1399.39 110.002 1399.49 109.401 1399.19 109.2C1395.78 106.794 1392.47 102.281 1390.87 100.075C1390.67 99.7743 1390.87 99.1727 1391.27 99.2729C1391.97 99.3732 1393.18 99.3732 1394.78 98.9721C1395.08 98.8719 1395.28 98.3705 1394.98 98.0696C1387.56 91.0503 1383.75 78.1148 1382.54 73.4018C1382.44 72.9004 1381.84 72.9004 1381.74 73.4018C1380.54 78.1148 1376.83 91.0503 1369.31 98.0696C1369.01 98.3705 1369.11 98.8719 1369.51 98.9721C1371.11 99.3732 1372.21 99.3732 1373.02 99.2729C1373.42 99.1727 1373.62 99.7743 1373.42 100.075C1371.91 102.281 1368.5 106.794 1365.09 109.2C1364.79 109.401 1364.79 109.902 1365.19 110.103C1367.5 111.105 1369.31 111.206 1370.41 111.105C1370.81 111.005 1371.01 111.707 1370.71 112.008C1369.31 113.312 1366.9 115.518 1364.09 117.222C1362.39 115.417 1360.98 113.512 1360.18 112.309C1359.98 112.008 1360.18 111.607 1360.48 111.607C1361.08 111.707 1362.09 111.707 1363.49 111.406C1363.79 111.306 1363.89 110.905 1363.69 110.704C1357.27 104.688 1354.06 93.457 1353.06 89.4459C1352.96 89.0448 1352.46 89.0448 1352.36 89.4459C1351.35 93.457 1348.15 104.588 1341.73 110.704C1341.53 110.905 1341.63 111.406 1341.93 111.406C1343.33 111.707 1344.23 111.707 1344.94 111.607C1345.24 111.507 1345.44 112.008 1345.24 112.309C1343.93 114.214 1341.02 118.125 1338.12 120.13C1337.82 120.331 1337.92 120.732 1338.22 120.933C1340.22 121.835 1341.73 121.935 1342.73 121.735C1343.13 121.735 1343.23 122.236 1343.03 122.537C1341.53 123.941 1338.82 126.347 1335.71 127.952C1335.51 128.052 1335.41 128.453 1335.61 128.654C1336.31 129.556 1338.12 131.261 1340.72 130.76C1341.02 130.659 1341.23 131.06 1341.12 131.361C1338.72 135.974 1335.21 138.982 1331.5 139.383C1331.2 139.383 1331.1 139.784 1331.3 140.085C1332.6 141.89 1335.51 143.394 1338.32 142.993C1338.62 142.893 1338.82 143.394 1338.62 143.695C1335.01 148.007 1332.9 149.712 1326.98 152.519C1326.78 152.62 1326.68 152.92 1326.88 153.221C1331.3 159.539 1339.52 161.745 1345.54 162.346L1335.71 164.252C1332.2 164.954 1328.99 166.458 1326.18 168.664L1291.48 196.841C1288.47 199.248 1284.86 200.852 1281.05 201.454L1246.75 206.367V198.145C1246.75 197.944 1246.85 197.844 1247.05 197.844C1251.17 197.844 1259.79 196.741 1264 190.925C1264.1 190.724 1264.1 190.524 1263.9 190.424C1259.49 188.418 1257.99 187.114 1255.28 183.906C1255.08 183.705 1255.28 183.304 1255.48 183.404C1257.58 183.705 1259.69 182.602 1260.69 181.298C1260.79 181.098 1260.69 180.797 1260.49 180.797C1257.78 180.496 1255.18 178.29 1253.47 174.881C1253.37 174.68 1253.47 174.379 1253.77 174.379C1255.68 174.781 1257.08 173.477 1257.58 172.875C1257.68 172.675 1257.68 172.474 1257.48 172.374C1255.18 171.171 1253.17 169.366 1252.07 168.363C1251.87 168.162 1251.97 167.761 1252.27 167.761C1252.97 167.862 1254.17 167.761 1255.58 167.16C1255.78 167.059 1255.78 166.759 1255.58 166.558C1253.47 165.054 1251.27 162.146 1250.36 160.742C1250.16 160.541 1250.36 160.241 1250.56 160.241C1251.07 160.341 1251.77 160.341 1252.77 160.04C1252.97 159.94 1253.07 159.639 1252.87 159.438C1248.16 154.926 1245.75 146.804 1245.05 143.795C1244.95 143.495 1244.65 143.495 1244.55 143.795C1243.84 146.804 1241.44 155.026 1236.72 159.438C1236.52 159.639 1236.62 159.94 1236.82 160.04C1237.83 160.341 1238.53 160.341 1239.03 160.241C1239.23 160.241 1239.43 160.541 1239.23 160.742C1238.23 162.146 1236.12 165.054 1234.02 166.558C1233.82 166.658 1233.82 167.059 1234.02 167.16C1235.42 167.761 1236.62 167.862 1237.33 167.761C1237.63 167.761 1237.73 168.162 1237.53 168.363C1236.42 169.366 1234.42 171.171 1232.11 172.374C1231.91 172.474 1231.91 172.675 1232.01 172.875C1232.51 173.477 1233.92 174.781 1235.82 174.379C1236.02 174.379 1236.22 174.58 1236.12 174.881C1234.82 177.287 1233.21 179.092 1231.31 180.095C1230 178.691 1228.9 177.187 1228.3 176.285C1228.1 176.084 1228.3 175.783 1228.5 175.783C1229 175.884 1229.7 175.884 1230.71 175.583C1230.91 175.483 1231.01 175.182 1230.81 174.981C1226.09 170.469 1223.69 162.346 1222.98 159.338C1222.88 159.037 1222.58 159.037 1222.48 159.338C1221.78 162.346 1219.37 170.569 1214.66 174.981C1214.46 175.182 1214.56 175.483 1214.76 175.583C1215.76 175.884 1216.47 175.884 1216.97 175.783C1217.17 175.783 1217.37 176.084 1217.17 176.285C1216.87 176.686 1216.47 177.187 1216.06 177.789C1216.06 177.689 1216.06 177.488 1215.96 177.488C1213.56 175.783 1211.05 172.474 1209.95 170.87C1209.75 170.569 1209.95 170.268 1210.25 170.268C1210.75 170.368 1211.65 170.368 1212.75 170.068C1213.06 169.967 1213.06 169.667 1212.85 169.466C1207.44 164.352 1204.73 155.026 1203.93 151.617C1203.83 151.316 1203.43 151.316 1203.33 151.617C1202.53 155.026 1199.72 164.352 1194.4 169.466C1194.2 169.667 1194.3 170.068 1194.5 170.068C1195.61 170.368 1196.51 170.368 1197.01 170.268C1197.31 170.268 1197.51 170.569 1197.31 170.87C1196.21 172.474 1193.8 175.683 1191.29 177.488C1191.09 177.689 1191.09 177.989 1191.39 178.09C1193 178.792 1194.3 178.892 1195.2 178.792C1195.5 178.792 1195.71 179.193 1195.4 179.393C1194.2 180.597 1191.89 182.602 1189.19 184.006C1188.99 184.106 1188.99 184.407 1189.09 184.608C1189.69 185.31 1191.19 186.814 1193.4 186.312C1193.7 186.312 1193.8 186.613 1193.7 186.814C1191.79 190.424 1189.09 192.83 1186.18 193.432C1186.18 193.332 1186.08 193.332 1186.08 193.231C1185.98 193.031 1186.08 192.83 1186.28 192.83C1187.98 193.131 1189.09 192.028 1189.59 191.527C1189.69 191.426 1189.69 191.126 1189.49 191.126C1187.48 190.123 1185.78 188.619 1184.87 187.716C1184.67 187.516 1184.77 187.215 1185.07 187.215C1185.68 187.315 1186.68 187.215 1187.88 186.713C1188.08 186.613 1188.08 186.312 1187.88 186.212C1186.08 184.908 1184.17 182.402 1183.37 181.198C1183.27 180.998 1183.37 180.697 1183.57 180.797C1183.97 180.897 1184.57 180.897 1185.48 180.597C1185.68 180.597 1185.68 180.296 1185.58 180.095C1181.56 176.285 1179.46 169.165 1178.86 166.658C1178.76 166.357 1178.46 166.357 1178.46 166.658C1177.85 169.265 1175.75 176.285 1171.74 180.095C1171.54 180.195 1171.64 180.496 1171.84 180.597C1172.74 180.797 1173.34 180.797 1173.74 180.797C1173.94 180.797 1174.04 180.998 1173.94 181.198C1173.14 182.402 1171.23 184.908 1169.43 186.212C1169.23 186.312 1169.33 186.613 1169.43 186.713C1170.63 187.315 1171.64 187.315 1172.24 187.215C1172.44 187.215 1172.54 187.516 1172.44 187.716C1171.54 188.619 1169.73 190.123 1167.82 191.126C1167.72 191.226 1167.62 191.426 1167.72 191.527C1168.23 192.028 1169.33 193.131 1171.03 192.83C1171.23 192.83 1171.34 193.031 1171.23 193.231C1169.73 196.139 1167.52 198.045 1165.12 198.345C1164.92 198.345 1164.82 198.646 1164.92 198.746C1165.72 199.85 1167.62 200.852 1169.33 200.551C1169.53 200.551 1169.63 200.852 1169.53 201.053C1169.23 201.454 1168.93 201.755 1168.63 202.056C1166.72 201.354 1165.02 199.749 1163.71 197.242C1163.61 197.042 1163.71 196.841 1163.91 196.841C1165.62 197.142 1166.72 196.039 1167.22 195.538C1167.32 195.437 1167.32 195.137 1167.12 195.137C1165.12 194.134 1163.41 192.63 1162.51 191.727C1162.31 191.527 1162.41 191.226 1162.71 191.226C1163.31 191.326 1164.31 191.226 1165.52 190.724C1165.72 190.624 1165.72 190.323 1165.52 190.223C1163.71 188.919 1161.81 186.413 1161.01 185.209C1160.9 185.009 1161.01 184.708 1161.21 184.808C1161.61 184.908 1162.21 184.908 1163.11 184.608C1163.31 184.608 1163.31 184.307 1163.21 184.106C1159.2 180.296 1157.09 173.176 1156.49 170.669C1156.39 170.368 1156.09 170.368 1156.09 170.669C1155.49 172.875 1153.88 178.491 1150.88 182.502C1147.17 178.29 1145.26 171.672 1144.56 169.065C1144.46 168.764 1144.16 168.764 1144.06 169.065C1143.35 171.772 1141.15 179.393 1136.84 183.505C1136.74 183.605 1136.74 183.705 1136.74 183.805C1133.02 179.594 1131.02 172.875 1130.42 170.368C1130.32 170.068 1130.02 170.068 1129.92 170.368C1129.21 173.076 1127.01 180.697 1122.69 184.808C1122.49 185.009 1122.59 185.31 1122.8 185.31C1123.7 185.51 1124.4 185.51 1124.8 185.51C1125 185.51 1125.2 185.811 1125 186.011C1124.1 187.315 1122.09 189.922 1120.19 191.326C1119.99 191.426 1120.09 191.727 1120.19 191.827C1121.49 192.429 1122.59 192.429 1123.2 192.429C1123.4 192.429 1123.6 192.73 1123.4 192.93C1122.39 193.933 1120.49 195.538 1118.38 196.641C1118.18 196.741 1118.18 196.942 1118.28 197.142C1118.78 197.744 1119.99 198.847 1121.79 198.546C1121.99 198.546 1122.19 198.746 1122.09 198.947C1120.49 202.056 1118.08 204.061 1115.57 204.362C1115.37 204.362 1115.27 204.663 1115.37 204.863C1116.28 206.067 1118.18 207.17 1120.09 206.869C1120.29 206.869 1120.49 207.17 1120.29 207.37C1117.88 210.278 1116.48 211.481 1112.47 213.286C1112.16 212.785 1111.76 212.284 1111.46 211.682C1111.36 211.481 1111.46 211.181 1111.76 211.281C1113.57 211.582 1114.77 210.479 1115.27 209.877C1115.37 209.777 1115.37 209.476 1115.17 209.376C1113.07 208.273 1111.16 206.668 1110.16 205.665C1109.96 205.465 1110.06 205.164 1110.36 205.164C1111.06 205.264 1112.06 205.164 1113.37 204.562C1113.57 204.462 1113.57 204.161 1113.37 204.061C1111.36 202.657 1109.46 200.05 1108.55 198.746C1108.45 198.546 1108.55 198.245 1108.75 198.245C1109.16 198.345 1109.86 198.345 1110.76 198.045C1110.96 197.944 1111.06 197.643 1110.86 197.543C1106.55 193.432 1104.34 185.911 1103.64 183.103C1103.54 182.803 1103.24 182.803 1103.14 183.103C1102.44 185.811 1100.23 193.432 1095.92 197.543C1095.72 197.744 1095.82 198.045 1096.02 198.045C1096.92 198.245 1097.62 198.245 1098.02 198.245C1098.22 198.245 1098.42 198.546 1098.22 198.746C1097.32 200.05 1095.32 202.657 1093.41 204.061C1093.21 204.161 1093.31 204.462 1093.41 204.562C1094.71 205.164 1095.82 205.164 1096.42 205.164C1096.62 205.164 1096.82 205.465 1096.62 205.665C1095.62 206.668 1093.71 208.273 1091.6 209.376C1091.4 209.476 1091.4 209.677 1091.5 209.877C1092.01 210.479 1093.21 211.582 1095.01 211.281C1095.22 211.281 1095.42 211.481 1095.22 211.682C1093.61 214.791 1091.2 216.796 1088.7 217.097C1088.5 217.097 1088.4 217.398 1088.5 217.598C1089.4 218.802 1091.3 219.905 1093.21 219.604C1093.41 219.604 1093.61 219.905 1093.41 220.105C1091 223.013 1089.6 224.217 1085.49 226.021C1085.29 226.122 1085.29 226.322 1085.39 226.523C1089.2 231.938 1097.12 232.94 1100.93 232.94C1101.03 232.94 1101.13 233.041 1101.13 233.241V233.442C1095.22 240.261 1090.1 249.987 1090.1 263.424V350.664C1090.1 352.068 1091.2 353.171 1092.61 353.171H1728.24C1728.24 340.436 1727.94 331.812 1727.94 331.812L1729.24 101.579C1729.24 99.7743 1729.04 97.9694 1728.54 96.2647C1732.35 94.9611 1736.06 92.755 1738.57 89.2454C1739.07 88.6437 1738.97 88.3429 1738.77 88.2426ZM1241.64 197.744C1241.74 197.744 1241.94 197.844 1241.94 198.045V206.769L1240.53 206.969C1240.74 206.668 1240.94 206.468 1241.14 206.167C1241.24 205.966 1241.24 205.766 1241.04 205.665C1236.62 203.66 1235.12 202.356 1232.41 199.148C1232.21 198.947 1232.41 198.546 1232.61 198.646C1234.22 198.947 1235.92 198.245 1237.02 197.242C1238.83 197.643 1240.43 197.744 1241.64 197.744ZM1233.21 183.304C1233.51 183.304 1233.61 183.605 1233.41 183.805C1232.81 184.507 1232.21 185.209 1231.71 185.811C1230.71 185.009 1229.8 184.206 1229.2 183.605C1229 183.404 1229.1 183.003 1229.4 183.003C1229.8 183.003 1230.31 183.103 1230.81 183.003C1231.61 183.304 1232.41 183.404 1233.21 183.304ZM1211.35 178.591C1212.15 178.691 1213.46 178.591 1215.06 177.889C1214.36 178.792 1213.56 179.694 1212.65 180.597C1212.05 180.095 1211.55 179.594 1211.15 179.193C1210.85 178.992 1211.05 178.591 1211.35 178.591ZM1186.98 200.953C1186.78 200.752 1186.98 200.451 1187.18 200.451C1187.28 200.451 1187.48 200.451 1187.58 200.451C1187.38 200.652 1187.18 200.852 1186.98 200.953ZM1190.59 196.44C1190.89 196.44 1191.09 196.841 1190.89 197.042C1190.69 197.343 1190.39 197.643 1190.19 197.844C1189.19 197.443 1188.28 196.841 1187.48 195.939C1188.38 196.34 1189.49 196.54 1190.59 196.44ZM1179.96 212.885C1182.17 212.885 1185.98 212.484 1189.39 210.98C1191.79 211.883 1194.2 212.384 1196.41 212.585L1179.76 214.089V213.086C1179.76 212.986 1179.86 212.885 1179.96 212.885ZM1175.95 212.885C1176.05 212.885 1176.15 212.986 1176.15 213.186V214.49L1166.32 215.392C1168.03 214.69 1169.63 213.788 1170.93 212.384C1172.94 212.785 1174.74 212.885 1175.95 212.885ZM1148.77 184.507C1149.67 184.708 1150.27 184.708 1150.68 184.708C1150.88 184.708 1150.98 184.908 1150.88 185.109C1150.68 185.41 1150.37 185.811 1150.07 186.212C1149.57 185.61 1149.07 185.009 1148.77 184.507ZM1164.92 204.562C1165.02 204.562 1165.02 204.562 1165.12 204.562C1165.02 204.663 1164.82 204.763 1164.72 204.863C1164.62 204.663 1164.72 204.562 1164.92 204.562ZM1134.93 185.31C1135.33 185.41 1136.03 185.41 1136.94 185.109C1137.14 185.009 1137.24 184.708 1137.04 184.608C1136.74 184.307 1136.53 184.106 1136.23 183.805C1136.23 183.805 1136.23 183.805 1136.33 183.805C1137.24 184.006 1137.94 184.006 1138.34 184.006C1138.54 184.006 1138.74 184.307 1138.54 184.507C1138.04 185.209 1137.14 186.513 1136.03 187.616C1135.43 186.914 1135.03 186.212 1134.63 185.811C1134.63 185.61 1134.73 185.31 1134.93 185.31ZM1122.39 219.403C1120.09 219.804 1117.78 220.506 1115.67 221.609C1115.37 221.71 1115.17 221.91 1114.87 222.01C1114.17 221.409 1113.57 220.607 1112.77 219.704C1112.57 219.504 1112.77 219.203 1112.97 219.203C1114.57 219.504 1116.28 218.701 1117.28 217.699C1119.08 218.601 1120.79 219.102 1122.39 219.403ZM1422.66 112.91C1423.26 113.011 1424.06 113.011 1425.07 112.71C1425.77 113.011 1426.67 113.111 1427.67 113.011C1427.98 112.91 1428.18 113.312 1427.98 113.612C1427.37 114.715 1426.77 115.718 1425.97 116.721C1424.47 115.618 1423.16 114.415 1422.36 113.612C1422.16 113.312 1422.36 112.81 1422.66 112.91ZM1395.78 121.534C1397.09 121.735 1398.19 121.534 1399.09 121.133C1399.79 121.434 1400.7 121.534 1401.7 121.434C1402 121.334 1402.2 121.735 1402 122.036C1401 123.941 1399.79 125.645 1398.39 126.849C1397.29 125.545 1396.18 124.041 1395.28 122.236C1395.18 121.935 1395.48 121.434 1395.78 121.534ZM1368.1 122.236C1367.4 123.54 1366.7 124.643 1365.9 125.645C1364.29 124.442 1362.99 123.239 1362.09 122.437C1361.78 122.136 1361.99 121.634 1362.39 121.634C1363.09 121.735 1364.09 121.735 1365.29 121.334C1366 121.534 1366.8 121.534 1367.7 121.434C1368 121.434 1368.3 121.935 1368.1 122.236ZM1651.42 46.4277C1653.02 46.7285 1654.43 46.1268 1655.33 45.5252C1654.53 46.6282 1653.43 47.9318 1652.22 49.1351C1651.82 48.5334 1651.42 47.8315 1651.02 47.1296C1650.82 46.7285 1651.12 46.3274 1651.42 46.4277ZM1641.99 78.7164C1641.99 78.6162 1641.99 78.5159 1642.09 78.4156C1644.8 81.5242 1648.81 83.2288 1652.42 84.031L1641.99 84.8332V78.7164Z" fill="#567A73"/>
<path d="M1123.2 358.385H1005.46C996.731 358.385 996.832 372.023 1005.56 372.023H1013.08C1024.61 372.023 1020.6 376.936 1017.89 376.936C1011.07 376.936 1012.88 383.555 1017.19 383.555H1054.7C1056.91 383.555 1058.61 385.36 1057.31 387.165C1053.39 392.379 1056.7 397.794 1064.43 397.894C1072.15 397.794 1075.46 392.479 1071.55 387.165C1070.24 385.36 1071.95 383.555 1074.15 383.555H1111.66C1115.98 383.555 1117.78 376.936 1110.96 376.936C1108.25 376.936 1104.24 372.023 1115.77 372.023H1123.3C1131.92 372.023 1132.02 358.385 1123.2 358.385Z" fill="#DCE8E5"/>
<path d="M1018.59 229.832C1024.01 236.25 1026.82 244.572 1026.82 252.996V315.467C1026.82 315.869 1026.92 316.27 1026.92 316.671V351.166H1103.64V340.436C1103.54 340.436 1103.54 340.436 1103.44 340.436V248.483C1103.44 233.843 1100.93 223.414 1086.59 217.498C1076.16 213.186 1064.33 212.284 1053.09 212.083C1034.14 211.682 1009.17 213.788 990.915 218.701C1000.84 222.612 1013.98 224.317 1018.59 229.832Z" fill="#DCE8E5"/>
<path d="M1106.05 351.166H1104.54C1105.65 347.255 1103.64 342.241 1098.42 342.241C1096.32 342.241 1094.81 343.043 1093.71 344.246C1093.31 339.935 1090.4 335.924 1084.79 335.924C1080.07 335.924 1077.26 338.832 1076.16 342.241C1075.36 342.04 1074.56 341.94 1073.65 341.94C1067.74 341.94 1064.73 346.553 1064.63 351.166H1063.82C1063.72 346.553 1060.72 341.94 1054.8 341.94C1053.9 341.94 1053.09 342.04 1052.29 342.241C1051.19 338.731 1048.38 335.924 1043.67 335.924C1038.15 335.924 1035.14 339.935 1034.74 344.246C1033.64 343.043 1032.03 342.241 1030.03 342.241C1024.81 342.241 1022.71 347.255 1023.91 351.166H1022.41C1013.78 351.166 1013.78 364.803 1022.51 364.803H1029.83C1031.53 366.508 1033.24 368.112 1035.04 369.817C1035.14 369.917 1035.34 370.017 1035.44 370.118L1035.54 370.218C1035.64 370.318 1035.74 370.318 1035.74 370.318C1036.25 370.619 1036.85 370.82 1037.55 370.82H1091.1C1091.81 370.82 1092.41 370.619 1092.91 370.318C1093.01 370.318 1093.11 370.218 1093.11 370.218L1093.21 370.118C1093.31 370.017 1093.51 369.917 1093.61 369.817C1095.32 368.112 1097.02 366.508 1098.83 364.803H1106.15C1114.67 364.703 1114.77 351.166 1106.05 351.166Z" fill="white"/>
<path d="M0 77H293V353H0V77Z" fill="#567A73"/>
<path d="M1725 77H2000V353H1725V77Z" fill="#567A73"/>
<path d="M143.467 71.5659C143.672 71.5659 143.827 71.771 143.827 71.976V77H149.122V71.976C149.122 71.771 149.276 71.5659 149.482 71.5659C154.983 71.5147 166.448 70.1818 171.897 62.3895C172.051 62.1844 172 61.8256 171.743 61.723C165.933 59.0573 163.877 57.3142 160.381 53.1618C160.124 52.9055 160.33 52.3928 160.69 52.4441C163.414 52.9055 166.242 51.3675 167.527 49.6245C167.733 49.3682 167.579 48.9581 167.27 48.9581C163.671 48.5479 160.227 45.6771 157.913 41.1658C157.759 40.8582 157.965 40.4993 158.273 40.5506C160.844 41.012 162.592 39.3715 163.311 38.5C163.466 38.2949 163.414 37.9361 163.209 37.8336C160.175 36.2443 157.451 33.8862 156.011 32.5533C155.754 32.2969 155.908 31.7843 156.268 31.8356C157.245 31.9381 158.736 31.8868 160.69 31.0153C160.947 30.9128 160.998 30.4514 160.741 30.2976C157.913 28.2983 155.034 24.4534 153.8 22.6591C153.595 22.3515 153.8 21.9414 154.109 21.9927C154.726 22.0952 155.703 22.0952 157.039 21.7364C157.348 21.6851 157.399 21.2237 157.194 21.0186C150.921 15.1232 147.785 4.25499 146.808 0.30759C146.706 -0.10253 146.243 -0.10253 146.14 0.30759C145.163 4.25499 141.976 15.1232 135.755 21.0186C135.498 21.2237 135.601 21.6851 135.909 21.7364C137.246 22.0952 138.223 22.0952 138.84 21.9927C139.148 21.9414 139.354 22.3515 139.148 22.6591C137.863 24.4534 135.035 28.2983 132.208 30.2976C131.951 30.4514 132.002 30.9128 132.259 31.0153C134.161 31.8868 135.652 31.9381 136.68 31.8356C137.04 31.7843 137.195 32.2969 136.938 32.5533C135.498 33.9374 132.825 36.2956 129.74 37.8336C129.534 37.9361 129.483 38.2949 129.637 38.5C130.357 39.3202 132.105 41.012 134.675 40.5506C134.984 40.4993 135.19 40.8582 135.035 41.1658C132.67 45.6771 129.277 48.5479 125.678 48.9581C125.37 49.0093 125.267 49.3682 125.421 49.6245C126.707 51.3675 129.534 52.9055 132.259 52.4441C132.619 52.3928 132.773 52.8542 132.568 53.1618C129.072 57.3142 127.015 59.0573 121.206 61.723C121 61.8256 120.897 62.1332 121.051 62.3895C126.501 70.1818 137.966 71.5659 143.467 71.5659Z" fill="#567A73"/>
<path d="M1877.47 77.5659C1877.67 77.5659 1877.83 77.771 1877.83 77.976V83H1883.12V77.976C1883.12 77.771 1883.28 77.5659 1883.48 77.5659C1888.98 77.5147 1900.45 76.1818 1905.9 68.3895C1906.05 68.1844 1906 67.8256 1905.74 67.723C1899.93 65.0573 1897.88 63.3142 1894.38 59.1618C1894.12 58.9055 1894.33 58.3928 1894.69 58.4441C1897.41 58.9055 1900.24 57.3675 1901.53 55.6245C1901.73 55.3682 1901.58 54.9581 1901.27 54.9581C1897.67 54.5479 1894.23 51.6771 1891.91 47.1658C1891.76 46.8582 1891.96 46.4993 1892.27 46.5506C1894.84 47.012 1896.59 45.3715 1897.31 44.5C1897.47 44.2949 1897.41 43.9361 1897.21 43.8336C1894.18 42.2443 1891.45 39.8862 1890.01 38.5533C1889.75 38.2969 1889.91 37.7843 1890.27 37.8356C1891.25 37.9381 1892.74 37.8868 1894.69 37.0153C1894.95 36.9128 1895 36.4514 1894.74 36.2976C1891.91 34.2983 1889.03 30.4534 1887.8 28.6591C1887.59 28.3515 1887.8 27.9414 1888.11 27.9927C1888.73 28.0952 1889.7 28.0952 1891.04 27.7364C1891.35 27.6851 1891.4 27.2237 1891.19 27.0186C1884.92 21.1232 1881.79 10.255 1880.81 6.30759C1880.71 5.89747 1880.24 5.89747 1880.14 6.30759C1879.16 10.255 1875.98 21.1232 1869.76 27.0186C1869.5 27.2237 1869.6 27.6851 1869.91 27.7364C1871.25 28.0952 1872.22 28.0952 1872.84 27.9927C1873.15 27.9414 1873.35 28.3515 1873.15 28.6591C1871.86 30.4534 1869.04 34.2983 1866.21 36.2976C1865.95 36.4514 1866 36.9128 1866.26 37.0153C1868.16 37.8868 1869.65 37.9381 1870.68 37.8356C1871.04 37.7843 1871.19 38.2969 1870.94 38.5533C1869.5 39.9374 1866.82 42.2956 1863.74 43.8336C1863.53 43.9361 1863.48 44.2949 1863.64 44.5C1864.36 45.3202 1866.1 47.012 1868.68 46.5506C1868.98 46.4993 1869.19 46.8582 1869.04 47.1658C1866.67 51.6771 1863.28 54.5479 1859.68 54.9581C1859.37 55.0093 1859.27 55.3682 1859.42 55.6245C1860.71 57.3675 1863.53 58.9055 1866.26 58.4441C1866.62 58.3928 1866.77 58.8542 1866.57 59.1618C1863.07 63.3142 1861.02 65.0573 1855.21 67.723C1855 67.8256 1854.9 68.1332 1855.05 68.3895C1860.5 76.1818 1871.97 77.5659 1877.47 77.5659Z" fill="#567A73"/>
<path d="M116.621 72.4128C116.782 72.4128 116.903 72.5859 116.903 72.759V77H121.056V72.759C121.056 72.5859 121.177 72.4128 121.339 72.4128C125.653 72.3695 134.645 71.2443 138.919 64.6664C139.04 64.4933 139 64.1904 138.798 64.1039C134.242 61.8535 132.629 60.3822 129.887 56.8768C129.685 56.6605 129.847 56.2277 130.129 56.271C132.266 56.6605 134.484 55.3622 135.492 53.8908C135.653 53.6744 135.532 53.3282 135.29 53.3282C132.468 52.982 129.766 50.5586 127.952 46.7503C127.831 46.4907 127.992 46.1878 128.234 46.231C130.25 46.6205 131.621 45.2357 132.185 44.5C132.306 44.3269 132.266 44.024 132.105 43.9374C129.726 42.5959 127.589 40.6052 126.46 39.48C126.258 39.2636 126.379 38.8309 126.661 38.8742C127.427 38.9607 128.597 38.9174 130.129 38.1818C130.331 38.0952 130.371 37.7057 130.169 37.5759C127.952 35.8881 125.694 32.6425 124.726 31.1278C124.565 30.8682 124.726 30.522 124.968 30.5652C125.452 30.6518 126.218 30.6518 127.266 30.3489C127.508 30.3056 127.548 29.9161 127.387 29.743C122.468 24.7663 120.008 15.5919 119.242 12.2597C119.161 11.9134 118.798 11.9134 118.718 12.2597C117.952 15.5919 115.452 24.7663 110.573 29.743C110.371 29.9161 110.452 30.3056 110.694 30.3489C111.742 30.6518 112.508 30.6518 112.992 30.5652C113.234 30.522 113.395 30.8682 113.234 31.1278C112.226 32.6425 110.008 35.8881 107.79 37.5759C107.589 37.7057 107.629 38.0952 107.831 38.1818C109.323 38.9174 110.492 38.9607 111.298 38.8742C111.581 38.8309 111.702 39.2636 111.5 39.48C110.371 40.6485 108.274 42.6392 105.855 43.9374C105.694 44.024 105.653 44.3269 105.774 44.5C106.339 45.1924 107.71 46.6205 109.726 46.231C109.968 46.1878 110.129 46.4907 110.008 46.7503C108.153 50.5586 105.492 52.982 102.669 53.3282C102.427 53.3715 102.347 53.6744 102.468 53.8908C103.476 55.3622 105.694 56.6605 107.831 56.271C108.113 56.2277 108.234 56.6172 108.073 56.8768C105.331 60.3822 103.718 61.8535 99.1613 64.1039C99 64.1904 98.9194 64.4501 99.0403 64.6664C103.315 71.2443 112.306 72.4128 116.621 72.4128Z" fill="#567A73"/>
<path d="M92.1452 71.4953C92.3387 71.4953 92.4839 71.7031 92.4839 71.9108V77H97.4677V71.9108C97.4677 71.7031 97.6129 71.4953 97.8064 71.4953C102.984 71.4434 113.774 70.0932 118.903 62.1997C119.048 61.992 119 61.6285 118.758 61.5246C113.29 58.8242 111.355 57.0586 108.065 52.8522C107.823 52.5925 108.016 52.0732 108.355 52.1252C110.919 52.5925 113.581 51.0346 114.79 49.269C114.984 49.0093 114.839 48.5939 114.548 48.5939C111.161 48.1784 107.919 45.2703 105.742 40.7004C105.597 40.3888 105.79 40.0253 106.081 40.0772C108.5 40.5446 110.145 38.8828 110.823 38C110.968 37.7923 110.919 37.4288 110.726 37.3249C107.871 35.715 105.306 33.3262 103.952 31.976C103.71 31.7164 103.855 31.1971 104.194 31.249C105.113 31.3529 106.516 31.3009 108.355 30.4181C108.597 30.3142 108.645 29.8469 108.403 29.6911C105.742 27.6658 103.032 23.771 101.871 21.9534C101.677 21.6418 101.871 21.2264 102.161 21.2783C102.742 21.3822 103.661 21.3822 104.919 21.0186C105.21 20.9667 105.258 20.4993 105.065 20.2916C99.1613 14.3196 96.2097 3.31025 95.2903 -0.688415C95.1935 -1.10386 94.7581 -1.10386 94.6613 -0.688415C93.7419 3.31025 90.7419 14.3196 84.8871 20.2916C84.6452 20.4993 84.7419 20.9667 85.0323 21.0186C86.2903 21.3822 87.2097 21.3822 87.7903 21.2783C88.0806 21.2264 88.2742 21.6418 88.0806 21.9534C86.871 23.771 84.2097 27.6658 81.5484 29.6911C81.3065 29.8469 81.3548 30.3142 81.5968 30.4181C83.3871 31.3009 84.7903 31.3529 85.7581 31.249C86.0968 31.1971 86.2419 31.7164 86 31.976C84.6452 33.3782 82.129 35.767 79.2258 37.3249C79.0323 37.4288 78.9839 37.7923 79.129 38C79.8065 38.8309 81.4516 40.5446 83.871 40.0772C84.1613 40.0253 84.3548 40.3888 84.2097 40.7004C81.9839 45.2703 78.7903 48.1784 75.4032 48.5939C75.1129 48.6458 75.0161 49.0093 75.1613 49.269C76.371 51.0346 79.0323 52.5925 81.5968 52.1252C81.9355 52.0732 82.0806 52.5406 81.8871 52.8522C78.5968 57.0586 76.6613 58.8242 71.1936 61.5246C71 61.6285 70.9032 61.9401 71.0484 62.1997C76.1774 70.0932 86.9677 71.4953 92.1452 71.4953Z" fill="#567A73"/>
<path d="M1830.15 77.4953C1830.34 77.4953 1830.48 77.7031 1830.48 77.9108V83H1835.47V77.9108C1835.47 77.7031 1835.61 77.4953 1835.81 77.4953C1840.98 77.4434 1851.77 76.0932 1856.9 68.1997C1857.05 67.992 1857 67.6285 1856.76 67.5246C1851.29 64.8242 1849.35 63.0586 1846.06 58.8522C1845.82 58.5925 1846.02 58.0732 1846.35 58.1252C1848.92 58.5925 1851.58 57.0346 1852.79 55.269C1852.98 55.0093 1852.84 54.5939 1852.55 54.5939C1849.16 54.1784 1845.92 51.2703 1843.74 46.7004C1843.6 46.3888 1843.79 46.0253 1844.08 46.0772C1846.5 46.5446 1848.15 44.8828 1848.82 44C1848.97 43.7923 1848.92 43.4288 1848.73 43.3249C1845.87 41.715 1843.31 39.3262 1841.95 37.976C1841.71 37.7164 1841.85 37.1971 1842.19 37.249C1843.11 37.3529 1844.52 37.3009 1846.35 36.4181C1846.6 36.3142 1846.65 35.8469 1846.4 35.6911C1843.74 33.6658 1841.03 29.771 1839.87 27.9534C1839.68 27.6418 1839.87 27.2264 1840.16 27.2783C1840.74 27.3822 1841.66 27.3822 1842.92 27.0186C1843.21 26.9667 1843.26 26.4993 1843.06 26.2916C1837.16 20.3196 1834.21 9.31025 1833.29 5.31158C1833.19 4.89614 1832.76 4.89614 1832.66 5.31158C1831.74 9.31025 1828.74 20.3196 1822.89 26.2916C1822.65 26.4993 1822.74 26.9667 1823.03 27.0186C1824.29 27.3822 1825.21 27.3822 1825.79 27.2783C1826.08 27.2264 1826.27 27.6418 1826.08 27.9534C1824.87 29.771 1822.21 33.6658 1819.55 35.6911C1819.31 35.8469 1819.35 36.3142 1819.6 36.4181C1821.39 37.3009 1822.79 37.3529 1823.76 37.249C1824.1 37.1971 1824.24 37.7164 1824 37.976C1822.65 39.3782 1820.13 41.767 1817.23 43.3249C1817.03 43.4288 1816.98 43.7923 1817.13 44C1817.81 44.8309 1819.45 46.5446 1821.87 46.0772C1822.16 46.0253 1822.35 46.3888 1822.21 46.7004C1819.98 51.2703 1816.79 54.1784 1813.4 54.5939C1813.11 54.6458 1813.02 55.0093 1813.16 55.269C1814.37 57.0346 1817.03 58.5925 1819.6 58.1252C1819.94 58.0732 1820.08 58.5406 1819.89 58.8522C1816.6 63.0586 1814.66 64.8242 1809.19 67.5246C1809 67.6285 1808.9 67.9401 1809.05 68.1997C1814.18 76.0932 1824.97 77.4953 1830.15 77.4953Z" fill="#567A73"/>
<path d="M68.1452 71.4953C68.3387 71.4953 68.4839 71.7031 68.4839 71.9108V77H73.4677V71.9108C73.4677 71.7031 73.6129 71.4953 73.8064 71.4953C78.9839 71.4434 89.7742 70.0932 94.9032 62.1997C95.0484 61.992 95 61.6285 94.7581 61.5246C89.2903 58.8242 87.3548 57.0586 84.0645 52.8522C83.8226 52.5925 84.0161 52.0732 84.3548 52.1252C86.9194 52.5925 89.5806 51.0346 90.7903 49.269C90.9839 49.0093 90.8387 48.5939 90.5484 48.5939C87.1613 48.1784 83.9194 45.2703 81.7419 40.7004C81.5968 40.3888 81.7903 40.0253 82.0806 40.0772C84.5 40.5446 86.1452 38.8828 86.8226 38C86.9677 37.7923 86.9194 37.4288 86.7258 37.3249C83.871 35.715 81.3065 33.3262 79.9516 31.976C79.7097 31.7164 79.8548 31.1971 80.1936 31.249C81.1129 31.3529 82.5161 31.3009 84.3548 30.4181C84.5968 30.3142 84.6452 29.8469 84.4032 29.6911C81.7419 27.6658 79.0323 23.771 77.871 21.9534C77.6774 21.6418 77.871 21.2264 78.1613 21.2783C78.7419 21.3822 79.6613 21.3822 80.9194 21.0186C81.2097 20.9667 81.2581 20.4993 81.0645 20.2916C75.1613 14.3196 72.2097 3.31025 71.2903 -0.688415C71.1935 -1.10386 70.7581 -1.10386 70.6613 -0.688415C69.7419 3.31025 66.7419 14.3196 60.8871 20.2916C60.6452 20.4993 60.7419 20.9667 61.0323 21.0186C62.2903 21.3822 63.2097 21.3822 63.7903 21.2783C64.0806 21.2264 64.2742 21.6418 64.0806 21.9534C62.871 23.771 60.2097 27.6658 57.5484 29.6911C57.3065 29.8469 57.3548 30.3142 57.5968 30.4181C59.3871 31.3009 60.7903 31.3529 61.7581 31.249C62.0968 31.1971 62.2419 31.7164 62 31.976C60.6452 33.3782 58.129 35.767 55.2258 37.3249C55.0323 37.4288 54.9839 37.7923 55.129 38C55.8065 38.8309 57.4516 40.5446 59.871 40.0772C60.1613 40.0253 60.3548 40.3888 60.2097 40.7004C57.9839 45.2703 54.7903 48.1784 51.4032 48.5939C51.1129 48.6458 51.0161 49.0093 51.1613 49.269C52.371 51.0346 55.0323 52.5925 57.5968 52.1252C57.9355 52.0732 58.0806 52.5406 57.8871 52.8522C54.5968 57.0586 52.6613 58.8242 47.1936 61.5246C47 61.6285 46.9032 61.9401 47.0484 62.1997C52.1774 70.0932 62.9677 71.4953 68.1452 71.4953Z" fill="#567A73"/>
<path d="M1803.15 81.4953C1803.34 81.4953 1803.48 81.7031 1803.48 81.9108V87H1808.47V81.9108C1808.47 81.7031 1808.61 81.4953 1808.81 81.4953C1813.98 81.4434 1824.77 80.0932 1829.9 72.1997C1830.05 71.992 1830 71.6285 1829.76 71.5246C1824.29 68.8242 1822.35 67.0586 1819.06 62.8522C1818.82 62.5925 1819.02 62.0732 1819.35 62.1252C1821.92 62.5925 1824.58 61.0346 1825.79 59.269C1825.98 59.0093 1825.84 58.5939 1825.55 58.5939C1822.16 58.1784 1818.92 55.2703 1816.74 50.7004C1816.6 50.3888 1816.79 50.0253 1817.08 50.0772C1819.5 50.5446 1821.15 48.8828 1821.82 48C1821.97 47.7923 1821.92 47.4288 1821.73 47.3249C1818.87 45.715 1816.31 43.3262 1814.95 41.976C1814.71 41.7164 1814.85 41.1971 1815.19 41.249C1816.11 41.3529 1817.52 41.3009 1819.35 40.4181C1819.6 40.3142 1819.65 39.8469 1819.4 39.6911C1816.74 37.6658 1814.03 33.771 1812.87 31.9534C1812.68 31.6418 1812.87 31.2264 1813.16 31.2783C1813.74 31.3822 1814.66 31.3822 1815.92 31.0186C1816.21 30.9667 1816.26 30.4993 1816.06 30.2916C1810.16 24.3196 1807.21 13.3103 1806.29 9.31158C1806.19 8.89614 1805.76 8.89614 1805.66 9.31158C1804.74 13.3103 1801.74 24.3196 1795.89 30.2916C1795.65 30.4993 1795.74 30.9667 1796.03 31.0186C1797.29 31.3822 1798.21 31.3822 1798.79 31.2783C1799.08 31.2264 1799.27 31.6418 1799.08 31.9534C1797.87 33.771 1795.21 37.6658 1792.55 39.6911C1792.31 39.8469 1792.35 40.3142 1792.6 40.4181C1794.39 41.3009 1795.79 41.3529 1796.76 41.249C1797.1 41.1971 1797.24 41.7164 1797 41.976C1795.65 43.3782 1793.13 45.767 1790.23 47.3249C1790.03 47.4288 1789.98 47.7923 1790.13 48C1790.81 48.8309 1792.45 50.5446 1794.87 50.0772C1795.16 50.0253 1795.35 50.3888 1795.21 50.7004C1792.98 55.2703 1789.79 58.1784 1786.4 58.5939C1786.11 58.6458 1786.02 59.0093 1786.16 59.269C1787.37 61.0346 1790.03 62.5925 1792.6 62.1252C1792.94 62.0732 1793.08 62.5406 1792.89 62.8522C1789.6 67.0586 1787.66 68.8242 1782.19 71.5246C1782 71.6285 1781.9 71.9401 1782.05 72.1997C1787.18 80.0932 1797.97 81.4953 1803.15 81.4953Z" fill="#567A73"/>
<path d="M197.621 72.4128C197.782 72.4128 197.903 72.5859 197.903 72.759V77H202.056V72.759C202.056 72.5859 202.177 72.4128 202.339 72.4128C206.653 72.3695 215.645 71.2443 219.919 64.6664C220.04 64.4933 220 64.1904 219.798 64.1039C215.242 61.8535 213.629 60.3822 210.887 56.8768C210.685 56.6605 210.847 56.2277 211.129 56.271C213.266 56.6605 215.484 55.3622 216.492 53.8908C216.653 53.6744 216.532 53.3282 216.29 53.3282C213.468 52.982 210.766 50.5586 208.952 46.7503C208.831 46.4907 208.992 46.1878 209.234 46.231C211.25 46.6205 212.621 45.2357 213.185 44.5C213.306 44.3269 213.266 44.024 213.105 43.9374C210.726 42.5959 208.589 40.6052 207.46 39.48C207.258 39.2636 207.379 38.8309 207.661 38.8742C208.427 38.9607 209.597 38.9174 211.129 38.1818C211.331 38.0952 211.371 37.7057 211.169 37.5759C208.952 35.8881 206.694 32.6425 205.726 31.1278C205.565 30.8682 205.726 30.522 205.968 30.5652C206.452 30.6518 207.218 30.6518 208.266 30.3489C208.508 30.3056 208.548 29.9161 208.387 29.743C203.468 24.7663 201.008 15.5919 200.242 12.2597C200.161 11.9134 199.798 11.9134 199.718 12.2597C198.952 15.5919 196.452 24.7663 191.573 29.743C191.371 29.9161 191.452 30.3056 191.694 30.3489C192.742 30.6518 193.508 30.6518 193.992 30.5652C194.234 30.522 194.395 30.8682 194.234 31.1278C193.226 32.6425 191.008 35.8881 188.79 37.5759C188.589 37.7057 188.629 38.0952 188.831 38.1818C190.323 38.9174 191.492 38.9607 192.298 38.8742C192.581 38.8309 192.702 39.2636 192.5 39.48C191.371 40.6485 189.274 42.6392 186.855 43.9374C186.694 44.024 186.653 44.3269 186.774 44.5C187.339 45.1924 188.71 46.6205 190.726 46.231C190.968 46.1878 191.129 46.4907 191.008 46.7503C189.153 50.5586 186.492 52.982 183.669 53.3282C183.427 53.3715 183.347 53.6744 183.468 53.8908C184.476 55.3622 186.694 56.6605 188.831 56.271C189.113 56.2277 189.234 56.6172 189.073 56.8768C186.331 60.3822 184.718 61.8535 180.161 64.1039C180 64.1904 179.919 64.4501 180.04 64.6664C184.315 71.2443 193.306 72.4128 197.621 72.4128Z" fill="#567A73"/>
<path d="M1923.62 72.4128C1923.78 72.4128 1923.9 72.5859 1923.9 72.759V77H1928.06V72.759C1928.06 72.5859 1928.18 72.4128 1928.34 72.4128C1932.65 72.3695 1941.65 71.2443 1945.92 64.6664C1946.04 64.4933 1946 64.1904 1945.8 64.1039C1941.24 61.8535 1939.63 60.3822 1936.89 56.8768C1936.69 56.6605 1936.85 56.2277 1937.13 56.271C1939.27 56.6605 1941.48 55.3622 1942.49 53.8908C1942.65 53.6744 1942.53 53.3282 1942.29 53.3282C1939.47 52.982 1936.77 50.5586 1934.95 46.7503C1934.83 46.4907 1934.99 46.1878 1935.23 46.231C1937.25 46.6205 1938.62 45.2357 1939.19 44.5C1939.31 44.3269 1939.27 44.024 1939.1 43.9374C1936.73 42.5959 1934.59 40.6052 1933.46 39.48C1933.26 39.2636 1933.38 38.8309 1933.66 38.8742C1934.43 38.9607 1935.6 38.9174 1937.13 38.1818C1937.33 38.0952 1937.37 37.7057 1937.17 37.5759C1934.95 35.8881 1932.69 32.6425 1931.73 31.1278C1931.56 30.8682 1931.73 30.522 1931.97 30.5652C1932.45 30.6518 1933.22 30.6518 1934.27 30.3489C1934.51 30.3056 1934.55 29.9161 1934.39 29.743C1929.47 24.7663 1927.01 15.5919 1926.24 12.2597C1926.16 11.9134 1925.8 11.9134 1925.72 12.2597C1924.95 15.5919 1922.45 24.7663 1917.57 29.743C1917.37 29.9161 1917.45 30.3056 1917.69 30.3489C1918.74 30.6518 1919.51 30.6518 1919.99 30.5652C1920.23 30.522 1920.4 30.8682 1920.23 31.1278C1919.23 32.6425 1917.01 35.8881 1914.79 37.5759C1914.59 37.7057 1914.63 38.0952 1914.83 38.1818C1916.32 38.9174 1917.49 38.9607 1918.3 38.8742C1918.58 38.8309 1918.7 39.2636 1918.5 39.48C1917.37 40.6485 1915.27 42.6392 1912.85 43.9374C1912.69 44.024 1912.65 44.3269 1912.77 44.5C1913.34 45.1924 1914.71 46.6205 1916.73 46.231C1916.97 46.1878 1917.13 46.4907 1917.01 46.7503C1915.15 50.5586 1912.49 52.982 1909.67 53.3282C1909.43 53.3715 1909.35 53.6744 1909.47 53.8908C1910.48 55.3622 1912.69 56.6605 1914.83 56.271C1915.11 56.2277 1915.23 56.6172 1915.07 56.8768C1912.33 60.3822 1910.72 61.8535 1906.16 64.1039C1906 64.1904 1905.92 64.4501 1906.04 64.6664C1910.31 71.2443 1919.31 72.4128 1923.62 72.4128Z" fill="#567A73"/>
</g>
<defs>
<clipPath id="clip0_23_225">
<rect width="2000" height="398" fill="white"/>
</clipPath>
</defs>
</svg>
