<?xml version="1.0" encoding="utf-8"?>
<!-- Generator: Adobe Illustrator 24.0.1, SVG Export Plug-In . SVG Version: 6.00 Build 0)  -->
<svg version="1.1" id="Layer_1" xmlns="http://www.w3.org/2000/svg" xmlns:xlink="http://www.w3.org/1999/xlink" x="0px" y="0px"
	 viewBox="0 0 80 67" style="enable-background:new 0 0 80 67;" xml:space="preserve">
<style type="text/css">
	.st0{fill:none;}
	.st1{fill:#FFFFFF;}
	.st2{fill:#D07634;}
	.st3{fill:#C0D7E3;}
</style>
<path class="st0" d="M39.9,19.8c0-0.1,0-0.2-0.1-0.3l0.3,1.7c0-0.3-0.1-0.6-0.1-0.9C40,20.1,39.9,20,39.9,19.8z"/>
<path class="st0" d="M57.9,27.6c0,0,0,0,0-0.1C57.9,27.5,57.9,27.5,57.9,27.6L57.9,27.6z"/>
<path class="st0" d="M67.7,37.8c0.9,1,1.5,2.2,1.9,3.4c0.7,2.4,0.2,5.1-1.5,7.1c0,0,0.1-0.1,0.1-0.1c1.7-1.9,2.2-4.6,1.5-7.1
	C69.3,39.8,68.7,38.7,67.7,37.8c-0.1-0.3-0.4-0.5-0.6-0.8l0,0.2C67.3,37.4,67.5,37.6,67.7,37.8z"/>
<path class="st1" d="M66,35c0.1-0.5,0.4-1,0.7-1.4c-0.4,0.4-0.7,0.9-0.8,1.5c-0.2,1,0.5,1.6,1.2,2.1l0-0.2
	C66.4,36.5,65.8,35.9,66,35z"/>
<path class="st1" d="M25.1,41.8c0.5,1.5,1.3,2.7,2.3,3.8c1,1.1,2.2,1.9,3.7,2.4c1.4,0.5,3.3,0.6,5.4,0.3l1.8-0.3
	c1.1-0.1,2.2-0.4,3.2-0.8c0.1,0,0.1-0.1,0.2-0.1c-0.1,0.4-0.2,0.8-0.3,1.2c-0.4,1.4-0.7,2.5-0.8,3.3c0,0.4,0,0.7,0,0.9
	c0.1,0.3,0.2,0.5,0.4,0.6c0.2,0.2,0.6,0.3,1,0.4c0.5,0.1,1.1,0.2,1.8,0.3c1.2,0.2,2.2,0.4,3,0.3c0.6,0.1,1.1,0,1.3-0.3
	c0.1-0.1,0.2-0.5,0.4-1c0.2-0.6,0.4-1.2,0.6-2c0.2-0.8,0.4-1.6,0.6-2.5c0.2-0.9,0.4-1.7,0.5-2.6c0.1-1.1,0.2-1.8,0.3-2.4
	c0-0.6,0.1-1.1,0.1-1.7l2.9,0.7c0,0.1,0,0.1,0,0.2l2.1,0.5l-0.1,0.7l-0.1,0.7c0,0.1-0.1,0.2-0.1,0.4c-0.1,0.2-0.1,0.3-0.2,0.5
	l-0.3,1.8c0,0,0,0,0,0l-0.6,3.8c-0.2,1.1-0.3,1.9-0.4,2.5c-0.1,0.6,0,1.1,0.1,1.4c0.1,0.3,0.4,0.6,0.7,0.7c0.4,0.2,0.9,0.3,1.5,0.4
	l0.4,0.1l1.6,0.3c0.8,0.1,1.5,0.2,2.2,0.2s1.1-0.1,1.2-0.3c0.1-0.1,0.2-0.4,0.4-0.9s0.3-1.2,0.5-1.9c0.2-0.7,0.3-1.5,0.5-2.3
	c0,0-0.1,0-0.1,0c0-0.1,0-0.1,0-0.2C63,50,63.1,49,63.3,48l0.3-2.1l0.2-1l0.1-0.5c0-0.2,0-0.4,0-0.5l2.6-15.4
	c0.2-0.9,0.2-1.6,0.2-2.2c0-0.6-0.1-1.1-0.3-1.4c-0.1-0.3-0.3-0.6-0.6-0.7c-0.2-0.1-0.5-0.2-0.9-0.3c-0.6-0.1-1.1-0.2-1.6-0.3
	c-0.5-0.1-0.9-0.1-1.3-0.2c-0.2-0.1-0.3-0.1-0.5-0.1c0-0.1,0-0.1,0-0.2V23c0,0,0,0,0,0l-0.3,0.2L59.5,23c0,0-1.1-0.1-1.3,0.9
	c-0.1,0.6-0.2,1.9-0.3,2.8c0,0,0,0,0.1,0c0,0.2-0.1,0.5-0.1,0.8c0,0.1,0,0.1,0,0.1l0,0c-0.1,0.8-0.2,1.6-0.3,2.5
	c-0.1,1.4-0.3,2.9-0.5,4.4l-3.7-0.6c-0.4-0.7-1-1.3-1.6-1.8c0-0.4,0.1-0.8,0.2-1.2c0.2-0.9,0.3-1.8,0.5-2.7c0.2-0.8,0.3-1.6,0.5-2.4
	c0.2-0.7,0.3-1.4,0.4-1.9c0.3-1.8-0.7-2.1-2.3-2.4c-1.2-0.2-4.6-1.2-5.2,0.2c-1,2.3-1.1,5.2-1.4,7.6c-0.1,1.1-0.3,2.1-0.4,3.2
	c0,0,0.1,0,0.1,0c-0.1,1.2-0.3,2.3-0.4,3.4L43,40.4l-0.1-0.7c-0.1-0.4-0.2-0.6-0.5-0.8c-0.2-0.2-0.5-0.2-0.8-0.2
	c-2.2,0.4-6.7,3.2-8.5,0.6c-0.2-0.4-0.4-0.9-0.5-1.4c-0.8-3.2-1.1-6.5-1.6-9.9c-0.3-1.3-0.2-2.7,0.1-4c0.2-0.1,0.4-0.2,0.5-0.3
	c0,0,0,0,0,0c1.3-0.6,3-0.8,4.4-0.9c1-0.1,2.6,0.4,3.5-0.1c0.5-0.3,0.7-0.9,0.6-1.5l-0.3-1.7c-0.1-0.4-0.2-1-0.2-1.4l-0.4-2.2
	c0,0-0.5-1.4-4.2-1c-0.8,0.1-1.8,0.2-2.8,0.3c-2.5,0.7-4.4,1.7-5.8,2.7c-0.9,0.8-1.6,1.6-2.2,2.5c-0.1,0-0.1,0.1-0.2,0.1
	c-0.1,0.1-0.2,0.1-0.3,0.2c-0.2,0.3-0.3,0.6-0.5,0.9c-0.6,1.3-0.9,2.8-0.8,4.3c0,1.5,0.2,3.1,0.4,4.6l0.3,2.1
	c0.1,0.4,0.2,0.7,0.2,0.7l0.5,3.4l0.1,0.1l0.5,2.7c0,0,0-0.1,0.1-0.1C24.6,40.2,24.8,41,25.1,41.8z M51.8,32.3
	c0.6,0.5,1.2,1.1,1.6,1.8l-1.9-0.3C51.6,33.3,51.7,32.8,51.8,32.3z"/>
<path class="st1" d="M54.1,45.7c-0.2-0.5-0.4-1-0.5-1.5C53.8,44.7,53.9,45.2,54.1,45.7z"/>
<g>
	<path class="st2" d="M32.6,37.9c0.1,0.5,0.3,1,0.5,1.4c1.8,2.6,6.3-0.2,8.5-0.6c0.3,0,0.6,0,0.8,0.2c0.3,0.2,0.4,0.4,0.5,0.8
		l0.1,0.7l0.8-4.5c0.1-1.1,0.3-2.2,0.4-3.4c0,0-0.1,0-0.1,0c0,0,0,0,0,0c-3.1,0.1-6.2-1.4-7.5-4c-1-2.2-3-3.5-5-4.8
		c-0.2,0.1-0.4,0.2-0.5,0.3c-0.3,1.3-0.4,2.7-0.1,4C31.5,31.4,31.8,34.7,32.6,37.9z"/>
	<path class="st2" d="M51.8,32.3c-0.1,0.5-0.2,1-0.3,1.5l1.9,0.3C53,33.4,52.4,32.8,51.8,32.3z"/>
	<path class="st2" d="M79.4,58c-1.8-2.8-4.2-5.3-5.3-8.5c-1.8-5.3-3.4-10.6-2.5-16.1c0.1-0.6,0.2-1.2,0.3-1.8c0,0-0.1,0-0.1,0
		c0,0,0,0.1,0,0.1c-0.1-0.1-0.4-0.1-0.6-0.1c-1.1,0.1-2.6,0.5-3.7,1.3c-0.3,0.2-0.5,0.4-0.8,0.7C66.4,34,66.1,34.5,66,35
		c-0.2,0.9,0.4,1.5,1.1,2c0.3,0.2,0.5,0.4,0.7,0.7c0.9,1,1.5,2.1,1.9,3.4c0.7,2.5,0.2,5.2-1.5,7.1c0,0-0.1,0.1-0.1,0.1c0,0,0,0,0,0
		c-0.6,0.7-1.4,1.3-2.2,1.8c-0.7,0.4-1.5,0.7-2.3,0.8c-0.3,0.1-0.5,0.1-0.7,0.2c-0.2,0.9-0.3,1.6-0.5,2.3c-0.2,0.7-0.3,1.4-0.5,1.9
		s-0.3,0.8-0.4,0.9c-0.1,0.2-0.5,0.3-1.2,0.3s-1.4-0.1-2.2-0.2L56.5,56l-0.4-0.1c-0.6-0.1-1.1-0.2-1.5-0.4c-0.3-0.1-0.6-0.4-0.7-0.7
		c-0.1-0.3-0.2-0.8-0.1-1.4c0.1-0.6,0.2-1.4,0.4-2.5l0.6-3.8c-0.3-0.4-0.5-0.9-0.7-1.3c-0.2-0.5-0.4-1-0.5-1.5c0-0.1,0-0.2-0.1-0.3
		c-0.1-0.5-0.1-1-0.1-1.4l0,0c0-0.1,0-0.1,0-0.2l-2.9-0.7c0,0.6-0.1,1.1-0.1,1.7c-0.1,0.6-0.2,1.3-0.3,2.4c-0.1,0.9-0.3,1.7-0.5,2.6
		c-0.2,0.9-0.4,1.7-0.6,2.5c-0.2,0.8-0.4,1.4-0.6,2c-0.2,0.5-0.3,0.9-0.4,1c-0.2,0.3-0.7,0.4-1.3,0.3c-0.8,0.1-1.8-0.1-3-0.3
		c-0.7-0.1-1.3-0.2-1.8-0.3c-0.4-0.1-0.8-0.2-1-0.4c-0.2-0.1-0.3-0.3-0.4-0.6c0-0.2,0-0.5,0-0.9c0.1-0.8,0.4-1.9,0.8-3.3
		c0.1-0.4,0.2-0.8,0.3-1.2c-0.1,0-0.1,0.1-0.2,0.1c-1,0.4-2.1,0.7-3.2,0.8l-1.8,0.3c-2.1,0.3-4,0.2-5.4-0.3
		c-1.5-0.5-2.7-1.3-3.7-2.4c-1-1.1-1.8-2.3-2.3-3.8c-0.3-0.8-0.5-1.6-0.7-2.4c0,0,0,0.1-0.1,0.1c-0.7,1.1-2.3,2-3.2,2.4
		c-2,0.8-4.6,1.2-5.4,3.5c-0.9,2.7,0.5,5.3,2.7,6.8c1.3,0.8,2.9,1.3,4.4,1.3c3.1,0,5.9-1.2,8.9-1.6c1.5-0.2,8.4-0.2,7.8,2.9
		c-0.1,0.3-0.3,0.5-0.5,0.7c0,0,0,0-0.1,0.1c-1.5,2.2-7.1,3.8-4.5,7.4c1.4,1.9,3.5,3.3,5.7,3.8c3.8,0.8,6.4-1.2,9.3-2.8
		c4.9-2.6,10.5-2.8,16.1-2.8c3.4,0,6.6,1.6,9.9,2.3c1.5,0.3,3.1-0.3,3.9-1.5C80.2,61,80.2,59.3,79.4,58z"/>
	<path class="st2" d="M7.7,36c-0.1,0-0.2-0.1-0.3-0.1C7.5,36,7.6,36,7.7,36z"/>
	<path class="st2" d="M21.4,35.7c0.8,0.1,1.7,0.4,2.3,1l0.1,0.1l0-0.1l-0.5-3.4c0,0-0.1-0.3-0.2-0.7l-0.3-2.1
		c-0.2-1.5-0.4-3.1-0.4-4.6c-0.1-1.5,0.2-3,0.8-4.3c0.1-0.3,0.3-0.6,0.5-0.9c-0.6,0.4-1.1,0.8-1.5,1.3c-0.9,1-1.6,2.2-2.6,3.2
		c-1.4,1.3-3.1,2.4-4.9,3c-1.2,0.5-2.5,0.7-3.8,1c-0.8,0.2-1.5,0.5-2.2,0.8c-0.7,0.5-1.4,1.1-1.8,1.8c-0.6,1-0.7,2.4,0.2,3.3
		c0.3,0.3,0.8,0.6,0.9,1C7.9,36,7.8,36,7.7,36c0,0,0,0,0,0c1.1,0.4,2.2,0.7,3.3,0.7C15.3,36.9,17.3,35.4,21.4,35.7z"/>
</g>
<g>
	<path class="st3" d="M54.5,20.5c-0.6-2.9-0.3-6-1.3-8.9C51.9,7.5,46.6,4.5,43,7.3c-0.5,0.4-0.8,0.8-1,1.3c-0.5,1.4-0.3,3.1-0.4,4.5
		c0,0.5-0.1,1-0.2,1.6c0,0.1,0,0.2-0.1,0.2c-0.1,0.2-0.1,0.4-0.2,0.6c-0.3,0.9-0.7,1.9-1.4,2.3c-0.1,0-0.1,0.2-0.1,0.3
		c0,0.4,0.1,1,0.2,1.4c0,0.1,0.1,0.3,0.1,0.3c0,0.2,0.1,0.3,0.1,0.5c0.1,0.3,0.1,0.6,0.1,0.9c0,0.6-0.1,1.2-0.6,1.5
		c-0.9,0.5-2.5,0-3.5,0.1c-1.4,0.1-3.1,0.3-4.4,0.9c0,0,0,0,0,0c2,1.3,4,2.6,5,4.8c1.3,2.6,4.4,4.1,7.5,4c0,0,0,0,0,0
		c0.1-1.1,0.3-2.1,0.4-3.2c0.3-2.4,0.4-5.3,1.4-7.6c0.6-1.4,4-0.4,5.2-0.2c1.6,0.3,2.6,0.6,2.3,2.4c-0.1,0.5-0.2,1.2-0.4,1.9
		c-0.2,0.8-0.3,1.6-0.5,2.4c-0.2,0.9-0.3,1.8-0.5,2.7c-0.1,0.4-0.2,0.8-0.2,1.2c0.6,0.5,1.2,1.1,1.6,1.8l3.7,0.6
		c0.2-1.5,0.4-3,0.5-4.4c0.1-0.9,0.1-1.8,0.3-2.5c0,0,0-0.1,0-0.1c0-0.3,0.1-0.5,0.1-0.8c0,0,0,0-0.1,0
		C56.1,25.8,54.7,21.7,54.5,20.5z"/>
	<path class="st3" d="M53.5,42.5c0,0.4,0,0.9,0.1,1.4c0,0.1,0,0.2,0.1,0.3c0.1,0.5,0.3,1,0.5,1.5c0.2,0.5,0.4,0.9,0.7,1.3
		c0,0,0,0,0,0l0.3-1.8c0.1-0.2,0.1-0.3,0.2-0.5c0-0.2,0.1-0.3,0.1-0.4l0.1-0.7l0.1-0.7L53.5,42.5L53.5,42.5z"/>
	<path class="st3" d="M71.2,23.6c-1.2-2-3.2-3.5-5.5-4.2c-1-0.3-1.8-0.2-2.4,0.2c0,0-0.1,0-0.1,0.1c-0.1,0-0.1,0.1-0.2,0.1l-0.1,0.1
		c0,0.1-0.1,0.1-0.1,0.2c0,0,0,0.1-0.1,0.1c-0.1,0.1-0.1,0.1-0.2,0.2c0,0,0,0,0,0.1c-0.1,0.1-0.1,0.2-0.2,0.3c0,0,0,0,0,0.1
		c0,0.1-0.1,0.2-0.1,0.2s0,0.1-0.1,0.1c0,0.1-0.1,0.1-0.1,0.2c0,0,0,0.1-0.1,0.1c0,0.1-0.1,0.1-0.1,0.2v0.1c0,0.1-0.1,0.2-0.1,0.3
		v0.1c0,0.1-0.1,0.2-0.1,0.4v0.1c0,0.1-0.1,0.2-0.1,0.3c0,0,0,0,0,0v0.1c0,0.1,0,0.1,0,0.2c0.2,0,0.3,0,0.5,0.1
		c0.4,0.1,0.8,0.1,1.3,0.2c0.5,0.1,1,0.2,1.6,0.3c0.4,0.1,0.7,0.2,0.9,0.3c0.3,0.1,0.5,0.4,0.6,0.7c0.2,0.3,0.3,0.8,0.3,1.4
		c0,0.6,0,1.3-0.2,2.2l-2.6,15.4c0,0.1,0,0.3,0,0.5l-0.1,0.5l-0.2,1L63.3,48c-0.2,1-0.3,2-0.5,2.9c0,0.1,0,0.1,0,0.2
		c0,0,0.1,0,0.1,0c0.3-0.1,0.4-0.1,0.7-0.2c0.8-0.1,1.6-0.4,2.3-0.8c0.8-0.4,1.6-1,2.2-1.8c0,0,0,0,0,0c1.7-2,2.2-4.7,1.5-7.1
		c-0.4-1.2-1-2.4-1.9-3.4c-0.2-0.2-0.4-0.4-0.6-0.6c-0.7-0.6-1.4-1.1-1.2-2.1c0.1-0.6,0.4-1.1,0.8-1.5c0.2-0.2,0.5-0.5,0.8-0.7
		c1.1-0.8,2.6-1.3,3.7-1.3c0.2,0,0.5,0,0.6,0.1c0,0,0-0.1,0-0.1C72.4,28.8,72.8,26.3,71.2,23.6z"/>
	<path class="st3" d="M32.4,15.1c0.3-0.2,1-0.1,1.5-0.2c0.5-0.1,1-0.1,1.5-0.1c-0.9-3.1-0.5-5.3-1.7-8.7c-1-2.7-3.4-5.2-6.3-6
		c-2.9-0.8-4.2,1.2-4.8,3.5c-0.4,1.8-0.5,2-0.9,3.8c-0.4,1.6-0.7,4.9-3.4,3.3c-0.6-0.4-1-0.9-1.5-1.5c-1.4-1.7-4.3-4-7.4-5.2
		C8.3,3.5,7,3.2,5.9,3.2c-1,0-1.9,0-2.7,0.3S1.7,4.4,1.1,5.2c-2.6,3.6,0,8.6,3.2,11.8c1.6,1.2,3.2,2.2,4.4,2.6
		c0.7,0.2,1.3,0.5,1.9,0.9c0.6,0.5,0.8,0.9,0.9,1.4c0.9,1.6-1.5,2.7-2.7,3.5c-1.5,1-1.7,1.1-3.3,2.1c-2,1.2-3.4,3-1.9,5.4L3.7,33
		c0,0,0,0,0.1,0.1c1,1.3,2.4,2.2,3.9,2.9c0.1,0,0.2,0,0.3,0.1c-0.1-0.4-0.6-0.7-0.9-1c-0.9-0.9-0.8-2.3-0.2-3.3
		C7.3,31.1,8,30.5,8.7,30c0.7-0.3,1.4-0.6,2.2-0.8c1.3-0.3,2.6-0.5,3.8-1c1.8-0.6,3.5-1.7,4.9-3c0.9-0.9,1.7-2.2,2.6-3.2
		c0.4-0.5,0.9-1,1.5-1.3c0.1-0.1,0.2-0.1,0.3-0.2c0.1,0,0.1-0.1,0.2-0.1c0.6-0.9,1.3-1.7,2.2-2.5c1.4-1.1,3.3-2,5.8-2.7
		C32.3,15.1,32.3,15.1,32.4,15.1z"/>
</g>
</svg>
