<?xml version="1.0" encoding="utf-8"?>
<!-- Generator: Adobe Illustrator 24.0.1, SVG Export Plug-In . SVG Version: 6.00 Build 0)  -->
<svg version="1.1" id="Layer_1" xmlns="http://www.w3.org/2000/svg" xmlns:xlink="http://www.w3.org/1999/xlink" x="0px" y="0px"
	 viewBox="0 0 80 67" style="enable-background:new 0 0 80 67;" xml:space="preserve">
<style type="text/css">
	.st0{fill:none;}
	.st1{fill:#FFFFFF;}
	.st2{fill:#5F7A64;}
</style>
<path class="st0" d="M32.2,15.1c-0.1,0-0.2,0.1-0.3,0.1c0.6-0.1,1.2-0.2,1.7-0.2C33.1,15,32.7,14.9,32.2,15.1z"/>
<path class="st0" d="M40.1,21.1c0-0.2-0.1-0.5-0.1-0.7L40.1,21.1z"/>
<path class="st0" d="M57.9,27.6c0,0,0,0,0-0.1C57.9,27.5,57.9,27.5,57.9,27.6L57.9,27.6z"/>
<path class="st0" d="M40,20.4c0-0.1,0-0.3-0.1-0.4L40,20.4z"/>
<path class="st1" d="M25.1,41.8c0.5,1.5,1.3,2.7,2.3,3.8c1,1.1,2.2,1.9,3.7,2.4c1.4,0.5,3.3,0.6,5.4,0.3l1.8-0.3
	c1.1-0.1,2.2-0.4,3.2-0.8c0.1,0,0.1-0.1,0.2-0.1c-0.1,0.4-0.2,0.8-0.3,1.2c-0.4,1.4-0.7,2.5-0.8,3.3c0,0.4,0,0.7,0,0.9
	c0.1,0.3,0.2,0.5,0.4,0.6c0.2,0.2,0.6,0.3,1,0.4c0.5,0.1,1.1,0.2,1.8,0.3c1.2,0.2,2.2,0.4,2.9,0.4c0.6,0.1,1.1,0,1.3-0.3
	c0.1-0.1,0.2-0.5,0.4-1c0.2-0.6,0.4-1.2,0.6-2c0.2-0.8,0.4-1.6,0.6-2.5c0.2-0.9,0.4-1.7,0.5-2.6c0.1-1.1,0.2-1.8,0.3-2.4
	c0-0.6,0.1-1.1,0.1-1.7l5.1,1.2l-0.1,0.7l-0.1,0.7c0,0.1-0.1,0.2-0.1,0.4c-0.1,0.2-0.1,0.3-0.2,0.5l-0.9,5.7
	c-0.2,1.1-0.3,1.9-0.4,2.5c-0.1,0.6,0,1.1,0.1,1.4c0.1,0.3,0.4,0.6,0.7,0.7c0.4,0.2,0.9,0.3,1.5,0.4l0.4,0.1l1.4,0.2
	c0.8,0.1,1.5,0.2,2.2,0.2c0.7,0,1.1-0.1,1.2-0.3c0.1-0.1,0.2-0.4,0.4-0.9s0.3-1.2,0.5-1.9c0.1-0.7,0.3-1.6,0.5-2.5
	c0.2-0.9,0.3-1.9,0.5-2.9l0.3-2.1l0.2-1l0.1-0.5c0-0.2,0-0.4,0-0.5l2.6-15.4c0.2-0.9,0.2-1.6,0.2-2.2c0-0.6-0.1-1.1-0.3-1.4
	c-0.1-0.3-0.3-0.6-0.6-0.7c-0.2-0.1-0.5-0.2-0.9-0.3c-0.6-0.1-1.1-0.2-1.6-0.3s-0.9-0.1-1.3-0.2c-0.2-0.1-0.5-0.1-0.7-0.1
	c0,0,0,0,0-0.1l-0.1,0L59.5,23c0,0-1.1-0.1-1.3,0.9c-0.1,0.6-0.2,1.9-0.3,2.8c0,0,0,0,0.1,0c0,0.2-0.1,0.5-0.1,0.8
	c0,0.1,0,0.1,0,0.1l0,0c-0.1,0.8-0.2,1.6-0.3,2.5c-0.1,1.4-0.3,2.9-0.5,4.4l-5.5-0.9c0.1-0.9,0.3-1.8,0.5-2.7
	c0.2-0.9,0.3-1.8,0.5-2.7c0.2-0.8,0.3-1.6,0.5-2.4c0.2-0.7,0.3-1.4,0.4-1.9c0.3-1.8-0.7-2.1-2.3-2.4c-1.2-0.2-4.6-1.2-5.2,0.2
	c-1,2.3-1.1,5.2-1.4,7.6c-0.2,2.2-0.5,4.4-0.8,6.6L43,40.4l-0.1-0.7c-0.1-0.4-0.2-0.6-0.5-0.8c-0.2-0.2-0.5-0.2-0.8-0.2
	c-2.2,0.4-6.7,3.2-8.5,0.6c-0.2-0.4-0.4-0.9-0.5-1.4c-0.7-3.2-1-6.5-1.6-9.7c-0.3-1.3-0.2-2.7,0.1-4c1.3-1,3.3-1.2,4.9-1.3
	c1-0.1,2.6,0.4,3.5-0.1c0.6-0.4,0.7-1,0.6-1.7L40,20.4c0,0,0,0,0,0c0,0,0,0,0,0L39.9,20c0-0.1-0.1-0.1-0.1-0.1c0-0.3-0.5-1.7-0.2-2
	l-0.4-2.1c0,0-0.5-1.2-3.8-1c0,0,0,0.1,0,0.1c-0.5,0-1,0-1.5,0.1c-0.1,0-0.3,0-0.4,0c-0.5,0.1-1.1,0.1-1.7,0.2
	c-2.4,0.7-4.3,1.6-5.7,2.7c-1.4,1.1-2.3,2.3-2.9,3.7c-0.6,1.3-0.9,2.8-0.8,4.3c0,1.5,0.2,3.1,0.4,4.6l0.3,2.1
	c0.1,0.5,0.1,0.7,0.1,0.9l0.4,3.1l0.1,0.2l0.5,2.7c0,0,0-0.1,0.1-0.1C24.6,40.2,24.8,41,25.1,41.8z"/>
<g>
	<path class="st2" d="M31,28.2c0.6,3.2,0.9,6.5,1.6,9.7c0.1,0.5,0.3,1,0.5,1.4c1.8,2.6,6.3-0.2,8.5-0.6c0.3,0,0.6,0,0.8,0.2
		c0.3,0.2,0.4,0.4,0.5,0.8l0.1,0.7l0.8-4.5c0.3-2.2,0.6-4.4,0.8-6.6c0.3-2.4,0.4-5.3,1.4-7.6c0.6-1.4,4-0.4,5.2-0.2
		c1.6,0.3,2.6,0.6,2.3,2.4c-0.1,0.5-0.2,1.2-0.4,1.9c-0.2,0.8-0.3,1.6-0.5,2.4c-0.2,0.9-0.3,1.8-0.5,2.7c-0.2,0.9-0.4,1.8-0.5,2.7
		l5.5,0.9c0.2-1.5,0.4-3,0.5-4.4c0.1-0.9,0.1-1.8,0.3-2.5c0,0,0-0.1,0-0.1c0-0.3,0.1-0.5,0.1-0.8c0,0,0,0-0.1,0
		c-1.9-1.2-3.2-5.3-3.4-6.4c-0.6-2.9-0.3-6-1.3-8.9C51.9,7.5,46.6,4.5,43,7.3c-1.9,1.5-1.5,4.1-1.6,6.3c0,1.3-0.5,3.5-1.8,4.3
		c0,0,0,0,0,0c-0.2,0.3,0.2,1.7,0.2,2c0.1,0,0.1,0.1,0.1,0.1c0.1,0.1,0.1,0.2,0.1,0.4c0,0,0,0,0,0c0,0,0,0,0,0
		c0,0.2,0.1,0.5,0.1,0.7c0.1,0.7,0,1.3-0.6,1.7c-0.9,0.5-2.5,0-3.5,0.1c-1.6,0.1-3.6,0.3-4.9,1.3C30.8,25.5,30.7,26.9,31,28.2z"/>
	<path class="st2" d="M79.4,58c-1.8-2.8-4.2-5.3-5.3-8.5c-1.8-5.3-3.4-10.6-2.5-16.1c0.5-3.3,1.6-6.4-0.4-9.7
		c-1.2-2-3.2-3.5-5.5-4.2c-2.8-0.9-3.9,1.4-4.5,3.6c0,0,0,0,0,0.1c0.2,0,0.5,0,0.7,0.1c0.4,0.1,0.8,0.1,1.3,0.2s1,0.2,1.6,0.3
		c0.4,0.1,0.7,0.2,0.9,0.3c0.3,0.1,0.5,0.4,0.6,0.7c0.2,0.3,0.3,0.8,0.3,1.4c0,0.6,0,1.3-0.2,2.2l-2.6,15.4c0,0.1,0,0.3,0,0.5
		l-0.1,0.5l-0.2,1l-0.3,2.1c-0.2,1-0.3,2-0.5,2.9c-0.2,0.9-0.4,1.8-0.5,2.5c-0.2,0.7-0.3,1.4-0.5,1.9s-0.3,0.8-0.4,0.9
		c-0.1,0.2-0.5,0.3-1.2,0.3c-0.7,0-1.4-0.1-2.2-0.2L56.5,56l-0.4-0.1c-0.6-0.1-1.1-0.2-1.5-0.4c-0.3-0.1-0.6-0.4-0.7-0.7
		c-0.1-0.3-0.2-0.8-0.1-1.4c0.1-0.6,0.2-1.4,0.4-2.5l0.9-5.7c0.1-0.2,0.1-0.3,0.2-0.5c0-0.2,0.1-0.3,0.1-0.4l0.1-0.7l0.1-0.7
		l-5.1-1.2c0,0.6-0.1,1.1-0.1,1.7c-0.1,0.6-0.2,1.3-0.3,2.4c-0.1,0.9-0.3,1.7-0.5,2.6c-0.2,0.9-0.4,1.7-0.6,2.5
		c-0.2,0.8-0.4,1.4-0.6,2c-0.2,0.5-0.3,0.9-0.4,1c-0.2,0.3-0.7,0.4-1.3,0.3c-0.7,0-1.7-0.2-2.9-0.4c-0.7-0.1-1.3-0.2-1.8-0.3
		c-0.4-0.1-0.8-0.2-1-0.4c-0.2-0.1-0.3-0.3-0.4-0.6c0-0.2,0-0.5,0-0.9c0.1-0.8,0.4-1.9,0.8-3.3c0.1-0.4,0.2-0.8,0.3-1.2
		c-0.1,0-0.1,0.1-0.2,0.1c-1,0.4-2.1,0.7-3.2,0.8l-1.8,0.3c-2.1,0.3-4,0.2-5.4-0.3c-1.5-0.5-2.7-1.3-3.7-2.4c-1-1.1-1.8-2.3-2.3-3.8
		c-0.3-0.8-0.5-1.6-0.7-2.4c0,0,0,0.1-0.1,0.1c-0.7,1.1-2.3,2-3.2,2.4c-2,0.8-4.6,1.2-5.4,3.5c-1.5,4.4,3.1,8.4,7.4,8.3
		c3-0.1,5.8-1.3,8.8-1.7c1.5-0.2,3.2-0.1,4.7,0.2c0.7,0.2,1.7,0.4,2.2,1.1c2.9,3.6-7.8,4.9-4.3,9.7c1.4,1.9,3.5,3.3,5.7,3.8
		c3.8,0.8,6.4-1.2,9.3-2.8c4.9-2.6,10.5-2.8,16.1-2.8c3.4,0,6.6,1.6,9.9,2.3c1.5,0.3,3.1-0.3,3.9-1.5C80.2,61,80.2,59.3,79.4,58z"/>
	<path class="st2" d="M21.5,36.2c0.8,0.1,1.7,0.3,2.3,0.9l-0.1-0.5l-0.4-3.1c0-0.2,0-0.4-0.1-0.9l-0.3-2.1c-0.2-1.5-0.4-3.1-0.4-4.6
		c-0.1-1.5,0.2-3,0.8-4.3c0.6-1.4,1.5-2.6,2.9-3.7c1.3-1.1,3.2-2,5.7-2.7c0.1,0,0.2-0.1,0.3-0.1c0.5-0.2,0.9-0.1,1.4-0.1
		c0.1,0,0.3,0,0.4,0c0.5-0.1,1-0.1,1.5-0.1c0,0,0-0.1,0-0.1c-0.9-3.1-0.5-5.2-1.7-8.6c-1-2.7-3.4-5.2-6.3-6s-4.2,1.2-4.8,3.5
		c-0.4,1.8-0.5,2-0.9,3.8c-0.4,1.6-0.7,4.9-3.4,3.3c-0.6-0.4-1-0.9-1.5-1.5C14.1,5.8,4.9,0.1,1,5.5c-3.9,5.4,3.6,13.6,7.8,15.1
		c0.7,0.2,1.3,0.5,1.9,0.9c2.4,2-0.6,3.4-2,4.2c-1.5,1-1.7,1.1-3.3,2.1c-2.1,1.3-3.5,3.2-1.8,5.6c1.7,2.5,4.9,4,7.8,4
		C15.4,37.5,17.4,36,21.5,36.2z"/>
</g>
</svg>
