<?xml version="1.0" encoding="utf-8"?>
<!-- Generator: Adobe Illustrator 24.0.1, SVG Export Plug-In . SVG Version: 6.00 Build 0)  -->
<svg version="1.1" id="Layer_1" xmlns="http://www.w3.org/2000/svg" xmlns:xlink="http://www.w3.org/1999/xlink" x="0px" y="0px"
	 viewBox="0 0 450 273" style="enable-background:new 0 0 450 273;" xml:space="preserve">
<style type="text/css">
	.st0{fill:#273C2B;}
	.st1{fill:#D07634;}
	.st2{fill:#C0D7E3;}
</style>
<path class="st0" d="M190.5,18.3c0.3,1.5,0.6,2.9,0.8,4.3c0.3,1.4,0.5,2.8,0.7,4.2l2.1,14.2c-0.1,0.1,0,0.3,0,0.7l0.1,0.7l0.2,1.5
	c0.3,1.8,0.6,3.5,0.9,5.1c0.4,1.6,0.6,3.1,0.9,4.5l0.1,0.8c0.2,1.3,0.3,2.4,0.3,3.2s-0.1,1.5-0.4,1.9c-0.2,0.5-0.6,0.8-1.1,1.1
	c-0.5,0.2-1.1,0.4-1.9,0.5l-4,0.6c-0.9,0.1-1.7,0.2-2.5,0.3s-1.8,0.2-2.8,0.2l-1.5-0.3l-0.9-1.2c-1.1-5.3-2.1-10.6-2.9-15.9
	c-0.6-4.3-1.1-8.5-1.5-12.5c-0.4-4.1-0.5-8-0.5-11.8c-3.1,0.3-5.4,0.6-7.1,0.7c-1.6,0.1-2.9,0.2-3.7,0.2s-1.3-0.1-1.4-0.2
	c-0.1-0.1-0.2-0.4-0.3-0.7v-0.1l-1.9-9.5c0.1-0.7,0.3-1.3,0.7-1.8s0.8-0.8,1.3-0.9l33.7-5c1.1-0.2,1.8,0.5,2,2l1.4,9.3
	c0,0.6-0.2,1.1-0.6,1.6c-0.4,0.5-0.9,0.8-1.5,0.9L190.5,18.3z"/>
<path class="st0" d="M230.9,38c0-2.6-0.1-5.1-0.3-7.6s-0.3-4.6-0.3-6.5c0-1.5,0.1-2.7,0.3-3.6s0.5-1.6,0.9-2c0.4-0.5,1-0.8,1.7-0.9
	c0.7-0.2,1.6-0.2,2.6-0.2c0.7,0,1.4,0,2.3,0c0.8,0,1.8,0,2.8,0c0.6,0,1.2,0.1,1.7,0.2c0.5,0.2,0.9,0.5,1.3,1
	c0.4,0.5,0.7,1.3,0.9,2.2c0.2,1,0.3,2.2,0.3,3.9v26.9c0.1,0.1,0.1,0.4,0.1,0.9v0.8v1.8v3.6c0,1.7,0,3.4,0,5.1c0,1.6-0.1,3.1-0.2,4.4
	c-0.1,1.3-0.2,2.4-0.3,3.3s-0.3,1.5-0.5,1.7c-0.1,0.4-0.8,0.7-1.9,0.9c-1.2,0.2-2.4,0.2-3.8,0.2H236h-0.6c-1.1,0-2-0.1-2.6-0.2
	s-1.1-0.5-1.4-1c-0.3-0.5-0.5-1.3-0.6-2.4s-0.1-2.5-0.1-4.4v-9.9c0.1-0.3,0.1-0.6,0.1-0.9c0-0.3,0.1-0.5,0.1-0.8v-1.3V52l-8.9-0.6
	c0.1,1,0.2,2,0.3,2.9c0.1,1,0.1,2.3,0.1,4.1c0,1.5,0,3-0.1,4.6c-0.1,1.6-0.2,3.1-0.3,4.5s-0.3,2.6-0.4,3.5c-0.2,1-0.3,1.6-0.4,1.8
	c-0.3,0.5-1,0.8-2.2,0.9s-2.8,0.1-5.1,0.1c-1.3,0-2.3,0-3.1,0s-1.4-0.1-1.8-0.3c-0.4-0.2-0.7-0.5-0.8-0.8c-0.1-0.4-0.2-0.9-0.2-1.6
	c0-1.4,0.1-3.3,0.4-5.8c0.2-2.4,0.4-5,0.4-7.9V43.9l-0.7-19.3c0-1.5,0-2.7,0.1-3.6s0.2-1.6,0.5-2.1c0.2-0.5,0.5-0.8,0.8-1
	s0.8-0.2,1.3-0.2h9.5c0.6,0.1,1,0.3,1.2,0.7c0.2,0.4,0.3,1.3,0.3,2.6c0,0.9,0,2.1-0.1,3.4s-0.1,2.8-0.1,4.3s-0.1,3.1-0.1,4.7
	c-0.1,1.6-0.1,3.2-0.1,4.7h9.5V38z"/>
<path class="st0" d="M283,11.5c-0.1,0.1-0.1,0.3-0.1,0.6c0.1,0.5-0.1,0.9-0.5,1.2s-1,0.6-1.6,0.8c-0.7,0.2-1.4,0.4-2.3,0.6
	c-0.9,0.2-1.7,0.3-2.5,0.4l-2.8,0.3c-1.2,0.1-2.3,0.2-3.3,0.3s-2.1,0.1-3.3,0.1l0.8,6.3l7.9-1c0.8,0.1,1.4,0.3,2,0.7
	c0.5,0.4,0.9,0.9,1,1.6l1.1,9.2c0,0.7-0.3,1.3-0.6,1.8c-0.4,0.5-0.8,0.8-1.4,0.9l-8.2,1l1,7.9c1.2,0,2.3-0.1,3.3-0.1
	c1-0.1,2.1-0.2,3.1-0.3c1.4-0.2,2.8-0.4,4.2-0.6c1.4-0.2,2.9-0.4,4.5-0.7c0.3,0,0.6,0.2,1,0.5s0.7,0.8,0.8,1.5l1.6,9.2
	c-0.1,1.2-0.8,2-1.9,2.5c-1.2,0.5-2.5,0.8-3.9,0.9l-16.7,2c-2.3,0.3-4.3,0.3-6,0s-2.7-1.2-2.9-2.9L251,5.6c0.1-0.6,0.6-1.2,1.3-1.6
	c0.8-0.4,1.4-0.7,2-0.8l25.3-3.1c0.5,0.2,1,0.6,1.5,0.9c0.5,0.4,0.8,0.9,0.8,1.5L283,11.5z"/>
<path class="st0" d="M154.8,95.3c-0.1,1-0.6,1.8-1.4,2.3c-0.8,0.5-1.6,0.7-2.4,0.6c-0.7-0.1-1.1-0.3-1.5-0.8c-1.8-0.7-3.5-1.1-5-1.3
	c-1.5-0.2-3.2-0.4-4.8-0.9c-1.8-0.2-3.4-0.4-5-0.4c-1.6-0.1-3.2,0.2-4.9,0.9c-1.8,3.1-2.8,6.4-3.2,10c-0.4,3.6-1,7.3-1.8,11.2
	c0.1,1.6,0,3.2-0.2,4.8l-0.6,4.9c-0.2,1.7-0.3,3.4-0.2,5c0.1,1.7,0.4,3.4,1,5.2c1.1,1,2.6,1.7,4.6,2.2c2,0.4,3.7,0.8,5.2,1l2.7,0.4
	c1.3,0.2,2.7,0.1,4.2-0.2s3-0.4,4.5-0.2c0.7,0.1,1.4,0.5,1.9,1.1s0.7,1.4,0.6,2.4l-1.9,14.8c-1.6,1.9-3.8,3-6.7,3.3
	s-5.7,0.2-8.6-0.1l-4.6-0.6c-5.6-0.7-10.1-2.3-13.5-4.7s-6-5.3-7.7-8.7s-2.8-7.1-3.2-11.1c-0.4-4-0.3-8.1,0.3-12.3l1.4-10.7
	c-0.1-0.1-0.1-0.7,0.1-1.9l0.7-5.6c0.5-4,1.3-8,2.2-11.9c0.9-3.9,2.6-7.3,5-10.4c2.4-3,5.7-5.5,10-7.4s10-2.9,17.1-2.9
	c0.6,0.2,1.2,0.3,1.9,0.5c0.7,0.1,1.6,0.3,2.7,0.4c1.4,0.2,2.9,0.5,4.4,0.8s2.9,0.8,4.2,1.4s2.3,1.4,3.1,2.3s1.2,2,1.2,3.2l-0.9,6.7
	l-0.5,3.8c-0.1,0.8-0.2,1.4-0.2,1.8c0,0.3,0,0.6,0,0.8L154.8,95.3z"/>
<path class="st0" d="M190.4,85.5c2.6-0.1,4.7-0.2,6.4-0.4c1.7-0.2,3.3-0.1,4.9,0.1c1.5,0.2,3.2,0.7,4.9,1.4c1.7,0.7,3.8,1.9,6.3,3.5
	c2,1.5,3.6,3.2,5,5.2c1.3,2,2.4,4.1,3.3,6.3c0.9,2.2,1.5,4.4,2,6.8c0.5,2.3,0.8,4.5,1.1,6.6l2.6,22.2c0.7,6.5,0.6,11.8-0.3,15.9
	c-1,4.1-2.7,7.4-5.1,10c-2.5,2.6-5.6,4.5-9.4,5.9c-3.8,1.4-8.1,2.6-13.1,3.5l-1.4,0.2c-3.7,0.4-7.4,0.1-11.3-0.8
	c-3.9-1-7.5-2.4-10.9-4.3c-2.4-1.3-4.4-3.1-5.9-5.3s-2.7-4.6-3.5-7.2c-0.9-2.6-1.5-5.3-1.9-8.1s-0.8-5.4-1.1-7.9l-0.3-2.4
	c-0.4-3.6-0.8-7.2-1-10.9c-0.3-3.7-0.4-7.4-0.2-11s0.6-7,1.5-10.2c0.8-3.2,2.2-6.1,4-8.6s4.3-4.7,7.3-6.3c3-1.7,6.9-2.8,11.5-3.3
	L190.4,85.5z M191.9,106.4c-2.2,0.6-4,1.1-5.3,1.3c-1.4,0.3-2.3,1.1-3,2.5s-0.9,3.8-0.8,7.3c0.1,3.5,0.5,8.8,1.3,15.9
	c0.3,2.7,0.8,5.5,1.4,8.4c0.6,2.9,1.4,5.5,2.3,7.7c1.6,1.1,3.1,1.6,4.7,1.7c1.6,0.1,3.1,0.2,4.5,0.2c1.7-0.4,3.2-0.7,4.6-1.1
	c1.4-0.4,2.5-1.5,3.3-3.4c0.8-2,1.3-4.2,1.4-6.7c0.1-2.5,0-5.1-0.3-7.8c-0.4-3.7-1-7.8-1.6-12c-0.6-4.3-1.5-8.5-2.5-12.6
	c-1.4-0.9-2.8-1.4-4-1.5c-1.3-0.1-2.5-0.1-3.8,0l-2.3,0.3L191.9,106.4z"/>
<path class="st0" d="M246.6,112.1l-1.2,0.4c-0.8,0.3-1.6,0.6-2.5,0.8c-0.9,0.3-1.8,0.5-2.7,0.8l-2.8-0.3l-1.6-2l-4.9-13.4
	c-0.4-1.2,0.2-2.4,1.8-3.7c1.6-1.3,3.7-2.6,6.2-3.9s5.2-2.5,8.1-3.6c2.9-1.1,5.4-2.1,7.6-2.9l9-3.3c2.9-1.1,5.4-1.9,7.5-2.4
	c2.1-0.6,3.9-0.6,5.5-0.1s3,1.7,4.3,3.6s2.7,4.7,4,8.6c0.5,1.2,0.7,3.2,0.8,5.8c0,2.6-0.2,6.1-0.7,10.6s-1.4,10-2.7,16.6
	c-1.3,6.6-2.9,14.5-5,23.7l22.1-8.1h2.9l1.6,2c1.3,3.8,2.2,6.8,2.8,9c0.6,2.2,1,4,1.1,5.2s0.1,2-0.2,2.5c-0.3,0.5-0.7,0.8-1.4,1
	c-1,0.4-2.3,0.8-3.9,1.2c-1.6,0.5-3.6,1.1-5.8,1.9c-4.6,1.7-9.2,3.5-13.8,5.4c-4.6,1.9-9.4,3.8-14.5,5.6c-2.1,0.8-4.1,1.3-6,1.6
	s-3.2-0.2-3.9-1.6l-5.4-14.6c0.7-5.1,1.4-9.9,2.1-14.3c0.6-4.5,1.3-8.8,2-13s1.4-8.3,2.2-12.4c0.8-4.1,1.6-8.3,2.5-12.7L246.6,112.1
	z"/>
<path class="st0" d="M344.9,129.9c0.1,1.6,0.3,3.9,0.6,6.8s0.5,5.8,0.8,8.8c0.3,2.9,0.5,5.5,0.7,7.8s0.3,3.6,0.4,3.9
	c0.1,1.2-0.2,2.4-1,3.6c-0.6,1.1-6.5,2.3-17.6,3.6l-2.3-0.8l-2.1-2l-0.7-8.9c-0.3-3.8-0.6-7.5-0.9-11.2s-0.8-7.5-1.3-11.2
	c-2.9-5.8-5.7-11.2-8.5-16.4c-2.8-5.2-5.3-9.9-7.5-14.2c-2.2-4.2-4-7.8-5.4-10.8c-1.4-2.9-2.1-5-2.2-6.1c-0.1-1.6,0.8-2.7,2.7-3.3
	c1.9-0.6,4.4-1,7.4-1.3c3-0.2,5.5-0.2,7.4,0s3.5,0.7,4.7,1.6s2.3,2.1,3.3,3.7c0.6,1.5,1.6,3.5,2.6,6c0.6,1.5,1.2,2.9,1.7,4.3
	c0.6,1.4,1.1,2.6,1.6,3.7c0.2,0.6,0.5,1.3,0.8,1.9s0.5,1.2,0.8,1.7c0.1,0,0.4-0.9,0.8-2.6s1-3.8,1.7-6.2c0.7-2.4,1.4-4.9,2.2-7.5
	c0.8-2.6,1.7-4.7,2.6-6.4c0.9-1.3,4-2.1,9.5-2.6c2.9-0.2,5.2-0.3,6.9-0.4c1.7,0,3,0,3.9,0.1s1.4,0.3,1.7,0.5
	c0.3,0.2,0.4,0.5,0.4,0.8v0.3c0,0.2-0.1,1-0.5,2.4c-0.3,1.4-1,4-2.1,7.8s-2.7,9.1-4.7,15.8C351.1,109.9,348.3,118.8,344.9,129.9z"/>
<path class="st0" d="M46.5,208.3c-0.3-4-0.7-7.8-1.3-11.6c-0.6-3.7-1-7-1.2-9.9c-0.2-2.3-0.1-4.1,0.1-5.5c0.2-1.4,0.6-2.5,1.2-3.2
	c0.6-0.8,1.4-1.3,2.5-1.6s2.4-0.5,4-0.6c1-0.1,2.2-0.1,3.5-0.2c1.3,0,2.7-0.1,4.3-0.2c0.9-0.1,1.8,0,2.6,0.2s1.5,0.7,2.1,1.4
	c0.6,0.8,1.1,1.9,1.6,3.3c0.4,1.4,0.7,3.4,0.9,5.8l2.8,41c0.1,0.2,0.2,0.6,0.2,1.4l0.1,1.3l0.2,2.7l0.4,5.5c0.2,2.6,0.3,5.2,0.5,7.7
	c0.1,2.5,0.2,4.7,0.2,6.7s-0.1,3.7-0.1,5.1c-0.1,1.4-0.3,2.3-0.5,2.7c-0.1,0.7-1.1,1.2-2.8,1.5c-1.7,0.4-3.6,0.6-5.7,0.8l-3.8,0.3
	l-1,0.1c-1.7,0.1-3,0.1-4,0s-1.7-0.6-2.3-1.3c-0.6-0.8-1-1.9-1.2-3.5s-0.4-3.8-0.6-6.6l-1-15.1c0.1-0.5,0.1-0.9,0.1-1.4
	c0-0.4,0-0.8,0-1.2l-0.1-2l-0.1-1.8L34.2,230c0.3,1.5,0.5,3,0.7,4.4c0.2,1.5,0.4,3.5,0.6,6.3c0.2,2.3,0.3,4.6,0.3,7s0,4.7,0,6.8
	s-0.1,3.9-0.3,5.4c-0.1,1.5-0.3,2.4-0.4,2.8c-0.4,0.8-1.5,1.3-3.2,1.6c-1.7,0.3-4.3,0.5-7.7,0.7c-2,0.1-3.6,0.2-4.7,0.3
	c-1.2,0-2.1-0.1-2.7-0.3c-0.6-0.2-1.1-0.6-1.3-1.2s-0.4-1.4-0.4-2.4c-0.2-2.2-0.2-5.1,0-8.8c0.1-3.7,0-7.7-0.3-12.1l-1.4-20.9
	L10,190.4c-0.2-2.3-0.2-4.1-0.2-5.5s0.2-2.5,0.5-3.3s0.7-1.3,1.2-1.6s1.2-0.4,2-0.5l14.4-1c0.9,0,1.6,0.3,2,0.9
	c0.4,0.6,0.6,1.9,0.8,3.9c0.1,1.4,0.2,3.1,0.2,5.2c0,2,0.1,4.2,0.2,6.5s0.2,4.7,0.3,7.2c0.1,2.5,0.2,4.9,0.4,7.2L46.5,208.3z"/>
<path class="st0" d="M120.1,181.2c2.5,0.4,4.6,0.6,6.3,0.8s3.3,0.5,4.8,1s3,1.2,4.5,2.3c1.5,1,3.4,2.5,5.5,4.6c1.7,1.8,3,3.8,3.9,6
	s1.6,4.5,2.1,6.8s0.7,4.6,0.7,7s0,4.6-0.2,6.7l-1.6,22.3c-0.5,6.5-1.6,11.7-3.3,15.5c-1.7,3.9-4,6.8-6.9,8.9s-6.3,3.4-10.3,4.1
	s-8.5,1-13.5,1l-1.4-0.1c-3.7-0.3-7.3-1.2-10.9-2.9c-3.6-1.7-6.9-3.8-9.9-6.3c-2.1-1.8-3.7-3.9-4.8-6.3c-1.1-2.4-1.8-5-2.1-7.8
	c-0.4-2.7-0.5-5.5-0.4-8.3s0.3-5.5,0.4-7.9l0.2-2.4c0.3-3.6,0.6-7.2,1-10.9s1-7.3,1.9-10.8c0.8-3.5,1.9-6.7,3.3-9.7s3.3-5.5,5.5-7.7
	c2.3-2.2,5.1-3.8,8.4-4.9c3.3-1.1,7.3-1.5,11.9-1.1L120.1,181.2z M117.8,202c-2.3,0.2-4.1,0.3-5.5,0.3s-2.5,0.6-3.4,1.9
	c-0.9,1.3-1.6,3.6-2.1,7s-1.1,8.7-1.7,15.9c-0.2,2.7-0.3,5.6-0.2,8.5c0.1,2.9,0.3,5.6,0.8,8c1.3,1.3,2.8,2.2,4.3,2.6
	c1.5,0.4,3,0.7,4.4,1c1.7-0.1,3.3-0.1,4.7-0.2c1.4-0.1,2.7-1,3.9-2.7c1.2-1.8,2-3.9,2.6-6.4c0.6-2.4,0.9-5,1.1-7.7
	c0.3-3.8,0.5-7.8,0.7-12.1s0.1-8.6-0.1-12.9c-1.2-1.1-2.5-1.9-3.7-2.3c-1.2-0.4-2.5-0.6-3.8-0.7l-2.3-0.2L117.8,202z"/>
<path class="st0" d="M174.4,184.2c2.2-0.1,3.6,0.9,4.1,3c0.1,3.3,0.3,6.7,0.6,10.2c0.3,3.4,0.7,6.8,1.1,10.2
	c0.7,5.6,1.6,11.1,2.5,16.5s1.8,10.7,2.4,15.8c0.2,1.6,0.4,3.2,0.6,4.7c0.2,1.6,0.3,3.1,0.4,4.6c1.7-0.5,3.7-1,5.8-1.6
	c2.1-0.5,4.2-1,6.4-1.4c2.1-0.4,4.2-0.8,6.2-1.2s3.8-0.6,5.4-0.9c1.8,0.1,3.1,1.3,3.9,3.5c0.8,2.2,1.4,5.1,1.9,8.6
	c0.3,2.4,0.3,4.3,0,5.7c-0.3,1.4-1.7,2.6-4.1,3.5c-2.4,1-6.3,1.9-11.5,2.9c-5.2,0.9-12.6,2.2-22.1,3.7l-5.2,0.7
	c-3.5-0.8-5.5-2-5.9-3.8c0.1-2.8,0.1-5.6-0.1-8.5s-0.5-5.8-0.9-8.8l-6.3-37.6c-0.5-3.7-0.9-7.1-1.2-10.4c-0.3-3.3-0.5-6.2-0.6-8.8
	s0.1-4.6,0.3-6.1c0.3-1.5,0.8-2.3,1.5-2.4L174.4,184.2z"/>
<path class="st0" d="M242.2,184.5c2.2,0.1,3.4,1.3,3.8,3.4c-0.3,3.3-0.4,6.7-0.5,10.2c0,3.5,0,6.9,0.1,10.3
	c0.2,5.7,0.5,11.2,0.9,16.7s0.7,10.8,0.8,16c0.1,1.6,0.1,3.2,0.1,4.7c0,1.6,0,3.1-0.1,4.6c1.8-0.3,3.8-0.7,5.9-1
	c2.2-0.3,4.3-0.6,6.5-0.8s4.3-0.4,6.3-0.6c2-0.2,3.8-0.3,5.5-0.3c1.8,0.3,3,1.6,3.5,3.9c0.5,2.2,0.9,5.2,1,8.8
	c0.1,2.5-0.1,4.4-0.5,5.7c-0.4,1.3-1.9,2.4-4.4,3.1s-6.4,1.3-11.7,1.7c-5.3,0.4-12.7,0.9-22.4,1.5l-5.2,0.2
	c-3.4-1.1-5.3-2.6-5.5-4.4c0.4-2.8,0.6-5.6,0.7-8.5s0.1-5.8,0-8.9l-2.5-38.1c-0.1-3.7-0.2-7.2-0.2-10.5s0.1-6.2,0.3-8.8
	s0.5-4.6,0.9-6.1s1-2.2,1.8-2.3L242.2,184.5z"/>
<path class="st0" d="M306.8,178.3c2.6-0.2,4.7-0.4,6.4-0.6c1.7-0.2,3.3-0.2,4.9-0.1s3.2,0.5,4.9,1.2c1.7,0.6,3.9,1.7,6.4,3.2
	c2,1.4,3.7,3.1,5.1,5s2.6,4,3.5,6.1c1,2.1,1.7,4.4,2.2,6.7s1,4.5,1.3,6.5l3.4,22.1c1,6.4,1.1,11.7,0.3,15.9
	c-0.8,4.1-2.4,7.5-4.7,10.2c-2.4,2.7-5.4,4.7-9.1,6.3c-3.7,1.5-8,2.9-12.9,4l-1.4,0.2c-3.6,0.6-7.4,0.4-11.3-0.4s-7.6-2.1-11-3.9
	c-2.5-1.2-4.5-2.9-6.1-5.1c-1.6-2.1-2.8-4.5-3.8-7.1s-1.7-5.3-2.2-8c-0.5-2.8-1-5.4-1.3-7.8l-0.4-2.4c-0.5-3.5-1-7.2-1.5-10.9
	c-0.4-3.7-0.6-7.4-0.6-11s0.4-7,1.1-10.2s1.9-6.1,3.7-8.7c1.8-2.6,4.1-4.8,7.1-6.6s6.8-3,11.3-3.7L306.8,178.3z M309.2,199.1
	c-2.2,0.7-3.9,1.2-5.3,1.5c-1.3,0.3-2.3,1.2-2.9,2.6c-0.6,1.4-0.8,3.9-0.5,7.3c0.2,3.5,0.9,8.7,1.9,15.9c0.4,2.7,1,5.5,1.7,8.3
	c0.7,2.9,1.6,5.4,2.6,7.6c1.6,1,3.2,1.5,4.8,1.6c1.6,0,3.1,0.1,4.5,0c1.7-0.4,3.2-0.9,4.5-1.3c1.4-0.4,2.4-1.6,3.2-3.5
	c0.7-2,1.1-4.3,1.1-6.8s-0.2-5.1-0.6-7.8c-0.6-3.7-1.3-7.7-2-11.9c-0.8-4.2-1.8-8.4-3-12.5c-1.5-0.8-2.8-1.3-4.1-1.4
	c-1.3-0.1-2.5,0-3.8,0.2l-2.2,0.3L309.2,199.1z"/>
<path class="st0" d="M359.7,176c0.2-0.9,0.6-1.7,1.3-2.4c0.7-0.7,1.5-0.9,2.6-0.7l14.7,2.4c0.9,0.2,1.6,1.8,2.1,4.8
	c0.5,3.1,0.8,6.7,1,11c0.2,4.2,0.3,8.7,0.2,13.3c-0.1,4.6-0.2,8.7-0.4,12.1c0.7-3.6,1.6-7,2.7-10c1.1-3.1,2.3-6,3.4-8.9
	c1.2-2.9,2.2-5.8,3.3-8.6c1.1-2.9,1.9-6,2.4-9.4c0.5-0.1,1.1-0.3,1.8-0.7c0.7-0.4,1.6-0.5,2.6-0.3l5.4,0.9c1,0.2,1.8,0.6,2.3,1.2
	c0.5,0.6,0.9,1.3,1,2c-0.2,2.3-0.2,4.8-0.1,7.6s0.3,5.7,0.6,8.7c0.3,3,0.5,6,0.9,9.1c0.3,3,0.5,6,0.6,8.9c1.1-3.5,2.1-7.2,3.2-11.3
	s2.2-7.9,3.4-11.4c1.2-3.5,2.5-6.3,3.8-8.6c1.3-2.2,2.8-3.2,4.4-2.9l14.4,2.4c1,0.2,1.8,0.7,2.3,1.7c0.5,0.9,0.7,2,0.5,3.1
	c-2.8,6.3-5.4,12.5-7.9,18.4c-2.5,6-4.8,11.9-7.1,17.8C423.2,232,421,238,419,244s-4,12.2-6,18.6c-1.4,2.3-2.6,3.7-3.5,4.3
	c-0.9,0.6-1.8,0.9-2.5,0.9l-13.1-2.2c-1.6-0.5-2.5-1.6-2.5-3.3c0.3-2.6,0.6-5.3,0.6-8c0.1-2.7,0-5.2-0.1-7.5s-0.3-4.1-0.6-5.6
	c-0.2-1.4-0.6-2.2-0.9-2.2c-0.2,0-0.8,0.9-1.7,2.8c-0.9,1.9-2,4.1-3.2,6.5s-2.4,4.8-3.6,7.2c-1.2,2.3-2.1,3.9-2.7,4.8
	c-0.6,1.1-1.1,1.7-1.5,2s-1.1,0.4-2.1,0.4l-10.3-1.7c-1.2-0.3-2-2.2-2.4-5.7c-0.4-3.5-0.7-7.9-0.8-13.2c-0.1-5.3-0.2-11.2-0.3-17.7
	c-0.1-6.5-0.3-12.8-0.7-19c-0.2-3.1-0.4-6.6-0.5-10.6c-0.1-3.9-0.1-8.3,0-13.2L359.7,176z"/>
<path class="st1" d="M446,94.6c-0.6-0.7-1.5-1.1-2.4-1.4c-0.8-0.1-1.6-0.2-2.5-0.2c-1.4,0-2.9,0.2-4.3,0.1c-2.1-0.2-4.2-0.8-6.1-1.8
	c-2.1-1.1-3.8-3.2-6.1-3.8c-1.1-0.3-2.2-0.1-3,0.7c-0.5,0.5-0.9,1.1-1.3,1.7c-2.3,3.5-6.2,5.9-7,10.2c-0.7,3.7-4.6,6.6-8.5,6.8
	c-1,0-2.8-0.5-4.2-0.6c-2.2,1.5-4.1,3.9-3.6,6.7c0.5,3,2.4,5.4,2.7,8.4c0.2,2.2-0.4,4.5-1.7,6.3c-0.7,1-1.6,1.8-2.5,2.4
	c-1.2,1.2-2.8,1.6-4.4,1.5c-1.9,0.1-3.9-0.3-5.6-1.5c-2.4-1.6-3.7-4.4-3.7-7.2c0-1.4,0.4-2.8,1-4.1c0.5-1.1,1.8-2.1,1.1-3.4
	c-1.2-2.2-4.6-2.6-6.7-2.2c-0.3,0.1-0.5,0.1-0.7,0.3c-0.1,0.1-0.1,0.3-0.1,0.4c0.2,0.5,0.5,1,0.7,1.5c2.6,5.6,2.5,11.8,2.2,18.1
	c-0.2,3.8-2.1,7.3-3.1,10.9c-0.4,1.7,0.1,3.5,1.4,4.5s3.2,1,4.7,0.2c3.2-1.8,6.2-4.4,9.8-5.4c6-1.7,12-3.2,18.1-1.9
	c3.7,0.8,7,2.2,10.9,0.1c2.3-1.2,4.1-3.4,5-5.9c1.5-4.6-4.9-5.1-7.5-6.5c-0.3-0.2-0.6-0.3-0.7-0.6c-1.5-3.1,5.8-5.1,7.5-5.4
	c3.3-0.5,6.7,0,10-0.9c4.7-1.2,8.4-7,5.4-11.2c-1.5-2.2-4.4-1.9-6.9-2.1c-2-0.2-6.3-1.5-4.6-4.5c0.5-0.8,1.3-1.4,2.2-1.8
	c4.3-1.5,6.9-0.5,11.2-1.8c1.2-0.4,2.4-1,3.4-1.8c0.1-0.5,0.5-0.8,0.7-1.2C447.4,97,446.9,95.5,446,94.6z"/>
<path class="st2" d="M440.3,82.3c-0.6,0.5-1.3,1-1.7,1.6c-2,2.8,1.7,3.4,3.4,3.9c-0.8-0.3-2.1-0.5-3-1.1c-0.2-0.4-0.3-0.7-0.4-1.2
	c0-0.4,0-0.9,0.1-1.3c0.9-1.4,2.9-2.5,3.9-3.3c1-0.8,1.9-1.8,2.7-2.8c0.6-0.8,1.6-2.1,1-3.2c0,0,0,0,0,0
	C444.7,78,442.2,80.9,440.3,82.3z"/>
<path class="st2" d="M384.5,100.2c0.6,0.9,1.2,1.8,1.7,2.7C385.7,102,385.2,101,384.5,100.2z"/>
<path class="st2" d="M384.3,99.8c0.1,0.1,0.1,0.2,0.2,0.3C384.4,100,384.3,99.9,384.3,99.8z"/>
<path class="st2" d="M449,90.5c0.9,0.9,1.3,2.2,0.8,4c-0.7,2-2,3.6-3.7,4.9c0,0,0,0.1,0,0.1c1.7-0.8,3.2-3.2,3.8-4.9
	C450.4,92.7,450,91.4,449,90.5z"/>
<path class="st2" d="M374.6,104.8c0.7-2.5,2.4-4.8,4.6-6.2c1.3-0.8,2.3-0.8,3.3-0.4c-1.7-1-3.9-0.6-6.7,3c-0.7,0.9-0.8,2.2-1.2,3.3
	c-1,3.3,0,7,1.9,9.7c-0.1-0.1-0.1-0.2-0.1-0.3C375,111.1,373.6,108.4,374.6,104.8z"/>
<path class="st2" d="M391.6,96.4c-0.3-3.3-1.5-6.5-1.4-9.9c0.1-2.1,1-4.2,2.5-5.8c-1.5,1.6-2.5,3.7-2.6,5.9c0,1.4,0.1,2.8,0.4,4.1
	c-0.3,1.9,0.5,4,1,5.9c0.1,1.3-0.1,5.7-1.5,7.6C391.5,102.3,391.7,97.7,391.6,96.4z"/>
<path class="st2" d="M420.5,68.4c0.6,1.2,0.9,1.8,1.3,2.5c-0.3-0.7-0.6-1.5-1-2.2c-0.6-1.1-1.4-2.1-2.3-2.7
	C419.3,66.5,420,67.4,420.5,68.4z"/>
<path class="st2" d="M428.3,72.7c1.3-3.5,6.9-8.6,12.1-9.2c-0.7,0.1-1.4,0.2-2.1,0.4c-2.9,0.9-6.7,3.6-8.5,6.2
	c-0.7,0.9-1.3,1.8-1.6,2.6c-0.3,0.7-0.6,1.5-1.1,2c-0.5,0.5-0.9,0.8-1.3,0.9c0.4-0.1,0.9-0.3,1.4-0.9
	C427.7,74.2,428,73.4,428.3,72.7z"/>
<path class="st2" d="M410.1,85.9c0.6-4.6-1-6.9-0.7-11.4c0.1-2.4,1.2-4.9,2.9-6.8c-1.8,1.9-2.9,4.4-3,6.9c-0.3,4.5,1.3,6.8,0.7,11.4
	c-0.1,0.9-0.5,1.8-1.1,2.4c0,0,0,0,0,0C409.6,87.8,410,86.8,410.1,85.9z"/>
<path class="st2" d="M449.8,94.5c0.6-1.8,0.1-3.1-0.8-4c-0.6-0.6-1.5-1.1-2.4-1.4c-0.2-0.1-0.3-0.1-0.5-0.1
	c-1.9-0.5-2.2-0.7-4.1-1.2c-1.7-0.5-5.4-1.1-3.4-3.9c0.4-0.6,1.1-1.1,1.7-1.6c1.9-1.4,4.4-4.3,6-7.4c0,0,0-0.1-0.1-0.1
	c1.8-3.6,2.3-7.6-0.8-10c-1.5-1.2-3.2-1.5-5-1.3c-5.2,0.6-10.8,5.8-12.1,9.2c-0.3,0.7-0.6,1.5-1.1,2c-0.5,0.5-0.9,0.8-1.4,0.9
	c-1.7,0.5-2.8-2.4-3.4-3.6c-0.2-0.3-0.4-0.7-0.6-1.1c-0.4-0.7-0.7-1.3-1.3-2.5c-0.5-1-1.2-1.9-2-2.4c-1.2-0.7-2.6-0.9-4.3,0.2
	c-0.7,0.4-1.3,1-1.9,1.5c-1.7,1.9-2.8,4.4-2.9,6.8c-0.3,4.5,1.3,6.8,0.7,11.4c-0.1,0.9-0.5,1.9-1.2,2.5c0,0,0,0,0,0
	c0,0,0,0.1-0.1,0.1c-2.6,2.3-4.8-1.6-5.4-3.5c-0.8-2.3-1.1-5.2-3.6-6.2c-2.7-1.1-5.3,0-7.1,1.9c-1.4,1.6-2.4,3.7-2.5,5.8
	c-0.1,3.4,1.1,6.6,1.4,9.9c0.1,1.3-0.1,5.9-1.6,7.8c-0.5,0.7-1.2,1-2.1,0.8c-0.3-0.1-0.6-0.3-0.8-0.6c-0.3-0.5-0.6-1-0.9-1.6
	c-0.5-0.9-1.1-1.8-1.7-2.7c0,0,0,0,0,0c-0.1-0.1-0.1-0.2-0.2-0.3c-0.5-0.7-1.1-1.2-1.8-1.6c-0.9-0.5-2-0.5-3.3,0.4
	c-2.2,1.4-3.9,3.7-4.6,6.2c-1,3.6,0.4,6.3,1.8,9.1c0-0.1,0.1-0.3,0.1-0.4c0.2-0.2,0.4-0.2,0.7-0.3c2.1-0.4,5.5,0,6.7,2.2
	c0.7,1.3-0.6,2.3-1.1,3.4c-0.6,1.3-1,2.7-1,4.1c0,2.8,1.3,5.6,3.7,7.2c1.7,1.2,3.7,1.6,5.6,1.5c1.6,0.1,3.2-0.3,4.4-1.5
	c0.9-0.6,1.8-1.4,2.5-2.4c1.3-1.8,1.9-4.1,1.7-6.3c-0.3-3-2.2-5.4-2.7-8.4c-0.5-2.8,1.4-5.2,3.6-6.7c1.4,0.1,3.2,0.6,4.2,0.6
	c3.9-0.2,7.8-3.1,8.5-6.8c0.8-4.3,4.7-6.7,7-10.2c0.4-0.6,0.8-1.2,1.3-1.7c0.8-0.8,1.9-1,3-0.7c2.3,0.6,4,2.7,6.1,3.8
	c1.9,1,4,1.6,6.1,1.8c1.4,0.1,2.9-0.1,4.3-0.1c0.9,0,1.7,0.1,2.5,0.2c0.9,0.3,1.8,0.7,2.4,1.4c0.9,0.9,1.4,2.4,0.8,3.6
	c-0.2,0.4-0.6,0.7-0.7,1.2C447.8,98.1,449.1,96.5,449.8,94.5z"/>
<path class="st1" d="M41.9,147.8c4.2,1.2,7.2-1,10.6-2.5c5.6-2.6,11.8-2.5,18.1-2.2c3.8,0.2,7.3,2.1,10.9,3.1
	c1.7,0.4,3.5-0.1,4.5-1.4c0.3-0.3,0.5-0.7,0.6-1.2c0.2-1,0.1-2.1-0.4-3c-1.7-3.4-4.4-6.3-5.4-10c-0.4-1.5-0.8-3-1.1-4.5
	c-1.1-4.6-1.8-9.2-0.8-13.9c0.1-0.7,0.3-1.4,0.5-2c0,0-0.1-0.1-0.1-0.1c-0.2-0.1-0.5-0.1-0.7-0.1c-2.2,0.1-5.4,1.2-6.1,3.6
	c-0.4,1.4,1.1,2.2,1.8,3.1c0.8,1.1,1.5,2.4,1.8,3.8c0.7,2.8-0.1,5.7-2,7.8c-1.5,1.6-3.3,2.4-5.2,2.7c-1.6,0.5-3.3,0.4-4.7-0.5
	c-1-0.4-2-1-2.9-1.8c-1.6-1.5-2.8-3.6-3-5.8c-0.4-3,1-5.8,0.8-8.7c-0.2-2.9-2.5-4.8-5-5.8c-1.4,0.4-2.9,1.3-3.9,1.5
	c-3.9,0.6-8.2-1.4-9.7-4.8c-1.7-4-6-5.6-9-8.4c-0.5-0.5-1-1-1.6-1.4c-1-0.6-2.1-0.5-3.1,0c-2.1,1.1-3.3,3.5-5.1,5
	c-1.6,1.3-3.6,2.4-5.6,3c-1.3,0.4-2.8,0.5-4.2,0.8c-0.9,0.2-1.7,0.4-2.5,0.7c-0.8,0.5-1.6,1.1-2.1,1.9c-0.8,1.1-0.9,2.6,0,3.7
	c0.2,0.2,0.4,0.7,0.5,1.1c1.3,0.7,2.8,1.1,4.2,1.2c4.5,0.4,6.9-1.2,11.4-0.6c0.9,0.1,1.9,0.5,2.5,1.2c1.9,2.2-0.5,4.1-2.4,5
	c-0.5,0.3-1.1,0.5-1.5,0.6c-1.7,0.6-3.7,0.9-5.1,2c-0.3,0.3-0.6,0.8-0.8,1.3c-2,4.7,2.9,9.5,7.7,9.7c3.4,0.1,6.6-1,9.9-1.3
	c1.7-0.2,9.3,0.2,8.5,3.6c-0.1,0.2-0.2,0.4-0.4,0.6c-0.1,0.1-0.2,0.3-0.4,0.4c-1.4,1.2-4.3,2.3-5.6,4.1c-0.4,0.6-0.7,1.2-0.7,1.8
	c0,0.6,0.2,1.3,0.7,2.1C37.1,145.4,39.4,147.1,41.9,147.8z"/>
<path class="st2" d="M48.5,81.6c1.4-1,2.9-1.2,4.4-1c3.3,0.3,6.4,3.2,7.2,6.5c0.8,3.3,0.4,6.7,0.8,10c0.2,1.3,1.5,6.3,3.6,7.5
	c0.5,0.2,1,0.2,1.5,0c0.2-0.1,0.3-0.2,0.4-0.4c0,0,0,0,0,0c-3.1,1.5-4.9-5.5-5.2-7.3c0.1-1.9,0.4-4.2-0.3-6
	c-0.1-1.4-0.2-2.7-0.5-4.1c-1.2-4.7-6.8-8.9-11.7-5.5c-0.7,0.5-1.1,1.1-1.4,1.7C47.6,82.4,48,82,48.5,81.6z"/>
<path class="st2" d="M73.1,96.3c1.9,0.7,3.6,1.9,4.9,3.4c0.5,0.6,1,1.2,1.3,1.9c1.6,3.1,1,6,0.3,8.9c1.2-3.1,1.8-6.7,0.1-9.5
	c-0.6-1-1.7-2.2-2.6-2.9c-4.1-3.4-6.3-2.7-7.7-0.8C70.3,96.3,71.4,95.7,73.1,96.3z"/>
<path class="st2" d="M46.5,87.4c0,0.2,0,0.4-0.1,0.6c-0.1,0.8-0.2,2-0.6,3c0.3-0.9,0.5-1.8,0.6-2.5C46.4,88.1,46.4,87.7,46.5,87.4z"
	/>
<path class="st2" d="M5.5,101.9c0.2-0.1,0.3-0.1,0.4-0.2c1.7-1.1,2-1.3,3.8-2.3c0.7-0.4,1.7-0.8,2.4-1.4c0.2-0.2,0.3-0.3,0.4-0.5
	c-0.7,0.6-1.8,1.2-2.5,1.5c-1.8,1-2,1.2-3.8,2.1c-1,0.6-1.9,1.4-2.6,2.2C4.1,102.8,4.8,102.3,5.5,101.9z"/>
<path class="st2" d="M4.1,109.4c1,1.3,2.5,2.5,3.9,2.8c0,0,0,0,0,0C6.5,111.6,5.1,110.6,4.1,109.4z"/>
<path class="st2" d="M66.9,102.9c-0.1,0.2-0.2,0.5-0.2,0.8c0.3-0.7,0.6-1.5,0.9-2.5C67.4,101.8,67.1,102.4,66.9,102.9z"/>
<path class="st2" d="M13.5,76.9c2.8,1.3,5.2,3.2,6.3,4.9c0.4,0.6,0.9,1.3,1.5,1.7c1,0.7,1.8,0.7,2.3,0.3c0.7-0.9,1-2.4,1.3-3.4
	c0.5-1.9,0.7-2.2,1.2-4.1c0.4-1.7,1.3-3.1,2.7-3.7c0.9-0.5,2-0.7,3.3-0.2c3.2,1.1,5.7,4.1,6.7,7.2c1.3,4.3,0.2,6.9,1.8,11.3
	c0.3,0.9,0.9,1.7,1.7,2.2c0.4,0.2,0.8,0.3,1.1,0.4c0.8-0.1,1.4-0.6,1.8-1.4c-0.6,0.8-1.4,1.2-2.7,0.5c-0.8-0.5-1.4-1.3-1.7-2.2
	c-1.5-4.3-0.4-6.9-1.8-11.3c-0.9-3.1-3.4-6.1-6.7-7.2c-3.3-1.1-5.9,1.2-6.6,4c-0.3,1.2-0.7,2.3-1.1,3.5c-0.6,1.6-0.1,5.7-3,3.7
	c-0.6-0.4-1.1-1.1-1.5-1.7c-0.5-0.7-1.2-1.5-2.1-2.2c-2.3-2.1-6.6-4.9-9.6-5.2c-2.2-0.3-3.9,0.4-5.4,1.8C5.9,73.7,10,74.8,13.5,76.9
	z"/>
<path class="st2" d="M3.5,88.7c-0.2-0.2-0.4-0.4-0.5-0.6C3,89,4,89.8,4.7,90.4c1,0.9,2.1,2.6,3.2,3.1c0.5,0.2,1,0.3,1.5,0.4
	C7.6,93.1,5.3,91.1,3.5,88.7z"/>
<path class="st2" d="M25.3,80.1c0.6-1.9,0.7-2.2,1.3-4.1c0.4-1.4,1.1-2.7,2.2-3.4c-1.4,0.6-2.2,2-2.7,3.7c-0.5,1.9-0.7,2.2-1.2,4.1
	c-0.3,0.9-0.6,2.5-1.3,3.4C24.5,83,24.9,81.2,25.3,80.1z"/>
<path class="st2" d="M3.6,107.7c-1.7-2.9,0.1-4.5,2.3-6c0,0,0,0,0,0c-0.1,0.1-0.3,0.1-0.4,0.2c-0.7,0.4-1.4,0.9-1.9,1.4
	c-1,1.4-1.4,3-0.3,4.9c0.2,0.4,0.5,0.8,0.8,1.2c1,1.2,2.4,2.2,3.9,2.8c0-0.2-0.1-0.4-0.2-0.7C6.1,110.6,4.6,109.3,3.6,107.7z"/>
<path class="st2" d="M43.4,93.5c2.2,0.2,3.3-3.2,3.5-5c0.2-2.4-0.1-5.3,2.1-6.9c1.2-0.8,2.6-1.1,3.9-1c-1.5-0.3-3.1,0-4.4,1
	c-0.5,0.4-0.9,0.8-1.2,1.3c-0.6,1.3-0.7,2.9-0.8,4.4c0,0.4,0,0.8-0.1,1.1c-0.1,0.7-0.3,1.6-0.6,2.5c-0.1,0.4-0.3,0.8-0.5,1.1
	C44.8,92.8,44.2,93.4,43.4,93.5z"/>
<path class="st2" d="M2.2,76.7c-0.2,0.2-0.3,0.4-0.5,0.6c2.9-2.9,7.7-2.2,11.7-0.4C10,74.8,5.9,73.7,3,75.8
	C2.7,76.1,2.5,76.4,2.2,76.7z"/>
<path class="st2" d="M66,104.5c-0.5,0.3-1,0.2-1.5,0c0.5,0.3,1.1,0.3,1.7,0c0.3-0.1,0.5-0.4,0.7-0.7c1.4-2.6,1.9-9,6.6-7.3
	c1.7,0.6,3.2,1.7,4.5,3.1c-1.2-1.5-3-2.7-4.9-3.4c-1.7-0.6-2.8,0-3.7,1c-0.8,1.1-1.4,2.6-1.8,3.9c-0.3,0.9-0.6,1.8-0.9,2.5
	c-0.1,0.2-0.1,0.3-0.2,0.4C66.3,104.3,66.2,104.4,66,104.5z"/>
<path class="st2" d="M12.2,94.8c-0.6-0.5-1.3-0.8-2-1.1c-2-0.8-4.6-2.7-6.7-5c1.8,2.4,4.1,4.4,6,5.3c0.9,0.2,1.9,0.4,2.7,1.1
	c0.2,0.4,0.6,0.7,0.7,1.1c0.1,0.4,0,0.9-0.1,1.2c-0.1,0.1-0.1,0.1-0.2,0.2c-0.1,0.2-0.2,0.4-0.4,0.5C13.1,97.2,13.6,96.2,12.2,94.8z
	"/>
<path class="st2" d="M2.9,87.9c0,0.1,0,0.1,0,0.1c0.2,0.2,0.4,0.4,0.5,0.6C3.3,88.4,3.1,88.2,2.9,87.9z"/>
<path class="st2" d="M12.1,98c-0.7,0.6-1.8,1-2.4,1.4c-1.8,1-2.1,1.2-3.8,2.3c1.4-0.7,1.8-1,3.4-1.9C10.1,99.3,11.4,98.7,12.1,98z"
	/>
<path class="st2" d="M59.7,87c0.9,3.3,0.4,6.7,0.9,10c0.2,1.4,1.7,6.6,3.9,7.5c-2.1-1.2-3.4-6.2-3.6-7.5c-0.4-3.3,0-6.7-0.8-10
	c-0.8-3.3-3.9-6.1-7.2-6.5C56,81.2,58.9,83.8,59.7,87z"/>
<path class="st2" d="M0.7,79.2c-0.7,2-0.5,4.1,0.9,6.4C0.6,83.5,0.2,81.2,0.7,79.2z"/>
<path class="st2" d="M19.4,82.1c0.5,0.6,1,1.3,1.6,1.7c1.2,0.9,2,0.7,2.6,0c-0.5,0.4-1.3,0.5-2.3-0.3c-0.6-0.4-1.1-1.1-1.5-1.7
	c-1.1-1.7-3.5-3.6-6.3-4.9C16,78.5,18.3,80.5,19.4,82.1z"/>
<path class="st2" d="M31.6,72.6c3.2,1.1,5.7,4,6.7,7.1c1.3,4.3,0.3,6.9,1.8,11.2c0.4,0.9,1,1.7,1.8,2.2c0.6,0.3,1.1,0.4,1.5,0.4
	c-0.3,0-0.7-0.1-1.1-0.4c-0.8-0.5-1.4-1.3-1.7-2.2c-1.6-4.4-0.5-7-1.8-11.3c-1-3.1-3.5-6.1-6.7-7.2c-1.4-0.5-2.5-0.3-3.3,0.2
	C29.5,72.3,30.5,72.2,31.6,72.6z"/>
<path class="st2" d="M79.3,101.6c-0.4-0.7-0.8-1.3-1.3-1.9c0.4,0.5,0.8,1,1,1.6c1.7,3.2,1.1,6,0.4,8.9c0.1,0.1,0.2,0.4,0.1,0.5
	c0-0.1,0-0.1,0.1-0.2C80.3,107.6,80.9,104.7,79.3,101.6z"/>
<path class="st2" d="M79,101.3c-0.3-0.6-0.6-1.1-1-1.6c-1.2-1.4-2.8-2.5-4.5-3.1c-4.7-1.7-5.2,4.7-6.6,7.3c-0.2,0.3-0.4,0.6-0.7,0.7
	c-0.6,0.3-1.2,0.2-1.7,0c-2.2-0.9-3.6-6.1-3.9-7.5c-0.5-3.3,0-6.7-0.9-10c-0.8-3.2-3.7-5.8-6.8-6.4c-1.3-0.1-2.7,0.1-3.9,1
	c-2.2,1.6-1.9,4.5-2.1,6.9c-0.2,1.7-1.2,5.2-3.5,5c-0.5,0.1-1,0-1.5-0.4c-0.8-0.5-1.4-1.3-1.8-2.2c-1.5-4.3-0.5-6.9-1.8-11.2
	c-1-3.1-3.5-6-6.7-7.1c-1.1-0.4-2.1-0.3-2.8,0c-1.1,0.7-1.8,2-2.2,3.4c-0.6,1.9-0.7,2.2-1.3,4.1c-0.4,1.1-0.8,2.9-1.7,3.7
	c-0.6,0.7-1.4,0.9-2.6,0c-0.6-0.4-1.1-1.1-1.6-1.7c-1.1-1.6-3.4-3.6-5.9-5.2c-4-1.9-8.8-2.6-11.7,0.4c-0.4,0.6-0.8,1.3-1,1.9
	c-0.5,2-0.1,4.2,0.9,6.4C2,86.2,2.5,86.8,3,87.4v0.1c0,0.1-0.1,0.3-0.1,0.4c0.2,0.3,0.4,0.5,0.6,0.8c2.1,2.4,4.7,4.2,6.7,5
	c0.7,0.3,1.4,0.6,2,1.1c1.4,1.4,0.9,2.4-0.1,3.2c-0.7,0.8-2,1.4-2.8,1.8c-1.6,0.9-2,1.2-3.4,1.9c0,0,0,0,0,0c-2.2,1.5-4,3.1-2.3,6
	c1,1.6,2.5,2.9,4.2,3.8c-0.1-0.4-0.3-0.8-0.5-1.1c-0.9-1.1-0.8-2.6,0-3.7c0.5-0.8,1.3-1.4,2.1-1.9c0.8-0.3,1.6-0.5,2.5-0.7
	c1.4-0.3,2.9-0.4,4.2-0.8c2-0.6,4-1.7,5.6-3c1.8-1.5,3-3.9,5.1-5c1-0.5,2.1-0.6,3.1,0c0.6,0.4,1.1,0.9,1.6,1.4c3,2.8,7.3,4.4,9,8.4
	c1.5,3.4,5.8,5.4,9.7,4.8c1-0.2,2.5-1.1,3.9-1.5c2.5,1,4.8,2.9,5,5.8c0.2,2.9-1.2,5.7-0.8,8.7c0.2,2.2,1.4,4.3,3,5.8
	c0.9,0.8,1.9,1.4,2.9,1.8c1.4,0.9,3.1,1,4.7,0.5c1.9-0.3,3.7-1.1,5.2-2.7c1.9-2.1,2.7-5,2-7.8c-0.3-1.4-1-2.7-1.8-3.8
	c-0.7-0.9-2.2-1.7-1.8-3.1c0.7-2.4,3.9-3.5,6.1-3.6c0.2,0,0.5,0,0.7,0.1c0,0,0.1,0,0.1,0.1C80.1,107.3,80.7,104.5,79,101.3z"/>
</svg>
