<svg width="450" height="273" viewBox="0 0 450 273" fill="none" xmlns="http://www.w3.org/2000/svg">
<g clip-path="url(#clip0_23_186)">
<path d="M190.22 18.1492C190.525 19.6743 190.831 21.047 190.983 22.4196C191.136 23.7922 191.441 25.1648 191.746 26.69L193.881 40.8738C193.881 40.8738 193.881 41.1788 193.881 41.6363L194.034 42.3989L194.186 43.9241C194.492 45.7542 194.797 47.4319 195.102 48.957C195.407 50.6347 195.712 52.0073 196.017 53.5324L196.17 54.295C196.322 55.6676 196.475 56.7352 196.475 57.4978C196.475 58.2604 196.322 59.0229 196.17 59.4805C195.864 59.938 195.559 60.2431 195.102 60.5481C194.644 60.8531 194.034 61.0056 193.119 61.0056L189 61.6157C188.085 61.7682 187.322 61.9207 186.407 61.9207C185.644 62.0732 184.576 62.0732 183.508 62.0732L181.983 61.7682L181.068 60.5481C179.847 55.2101 178.932 50.0246 178.17 44.6866C177.559 40.4162 177.102 36.1458 176.644 32.1805C176.339 28.0626 176.186 24.0972 176.186 20.2844C173.136 20.5894 170.695 20.8944 169.169 21.047C167.492 21.1995 166.271 21.1995 165.508 21.1995C164.746 21.1995 164.288 21.1995 164.136 21.047C163.983 20.8944 163.831 20.7419 163.831 20.4369V20.2844L162 10.8285C162.153 10.066 162.305 9.4559 162.763 8.99836C163.22 8.54082 163.525 8.23579 164.136 8.08328L197.695 3.05031C198.763 2.8978 199.525 3.50786 199.678 5.033L201.051 14.3363C201.051 14.9464 200.746 15.4039 200.441 16.014C200.136 16.4715 199.525 16.7766 198.915 16.9291L190.22 18.1492Z" fill="#1E2E20"/>
<path d="M230.797 37.8234C230.797 35.2306 230.644 32.6379 230.492 30.1977C230.339 27.7574 230.186 25.6223 230.186 23.6396C230.186 22.1144 230.339 20.8943 230.492 20.1317C230.644 19.3692 230.949 18.6066 231.407 18.1491C231.864 17.6915 232.475 17.3865 233.085 17.234C233.847 17.0815 234.61 16.929 235.678 16.929C236.288 16.929 237.051 16.929 237.966 16.929C238.881 16.929 239.797 16.929 240.864 16.929C241.475 16.929 242.085 17.0815 242.542 17.234C243 17.3865 243.458 17.6915 243.915 18.3016C244.22 18.7591 244.525 19.5217 244.831 20.5893C244.983 21.5044 245.136 22.877 245.136 24.4021V51.3971C245.136 51.5496 245.288 51.8547 245.288 52.3122V53.0748V54.9049V58.5653C245.288 60.2429 245.288 61.9206 245.288 63.5982C245.288 65.2759 245.136 66.6485 245.136 68.0211C244.983 69.3938 244.983 70.4614 244.831 71.3764C244.678 72.2915 244.525 72.9016 244.373 73.0541C244.22 73.5116 243.61 73.8167 242.542 73.9692C241.322 74.1217 240.102 74.2742 238.729 74.2742H236.288H235.678C234.61 74.2742 233.695 74.2742 233.085 74.1217C232.475 73.9692 232.017 73.6642 231.712 73.2066C231.407 72.7491 231.102 71.834 231.102 70.7664C231.102 69.6988 230.949 68.3262 230.949 66.3435V56.4301C230.949 56.125 231.102 55.82 231.102 55.515C231.102 55.21 231.102 54.9049 231.102 54.7524V53.3798V52.1597L222.254 51.5496C222.407 52.6172 222.407 53.5323 222.559 54.4474C222.559 55.3625 222.712 56.7351 222.712 58.5653C222.712 60.0904 222.712 61.6155 222.559 63.1407C222.407 64.6658 222.407 66.191 222.254 67.5636C222.102 68.9362 221.949 70.1563 221.797 71.0714C221.644 71.9865 221.492 72.5965 221.339 72.9016C221.034 73.3591 220.271 73.6642 219.203 73.8167C217.983 73.9692 216.305 73.9692 214.169 73.9692C212.797 73.9692 211.881 73.9692 211.119 73.9692C210.356 73.9692 209.746 73.8167 209.288 73.6641C208.831 73.5116 208.678 73.2066 208.525 72.9016C208.373 72.5965 208.373 71.9865 208.373 71.3764C208.373 70.0038 208.525 68.0211 208.678 65.5809C208.983 63.1407 208.983 60.5479 208.983 57.6502V43.9239L208.22 24.5547C208.22 23.0295 208.22 21.8094 208.373 20.8943C208.525 19.9792 208.678 19.2167 208.83 18.7591C208.983 18.3016 209.288 17.9966 209.746 17.844C210.051 17.6915 210.508 17.539 211.119 17.539H220.576C221.186 17.539 221.644 17.844 221.797 18.3016C221.949 18.7591 222.102 19.5217 222.102 20.8943C222.102 21.8094 222.102 23.0295 221.949 24.2496C221.949 25.6223 221.797 26.9949 221.797 28.52C221.797 30.0452 221.644 31.5703 221.644 33.2479C221.644 34.9256 221.492 36.4507 221.492 37.9759H230.797V37.8234Z" fill="#1E2E20"/>
<path d="M282.966 11.4386C282.814 11.5911 282.814 11.7436 282.814 12.0486C282.814 12.5062 282.661 12.9637 282.203 13.2687C281.746 13.5738 281.288 13.8788 280.525 14.0313C279.915 14.1838 279.153 14.4889 278.237 14.6414C277.322 14.7939 276.559 14.9464 275.644 15.0989L273.051 15.2514C271.83 15.4039 270.763 15.5564 269.695 15.5564C268.78 15.5564 267.559 15.709 266.339 15.709L267.102 21.962L275.034 21.047C275.797 21.1995 276.407 21.352 277.017 21.8095C277.627 22.1145 277.932 22.7246 278.085 23.3347L279.153 32.4855C279.153 33.2481 278.847 33.7056 278.542 34.3157C278.237 34.7732 277.627 35.0782 277.169 35.2307L268.932 36.2983L269.847 44.2291C271.068 44.2291 272.136 44.2291 273.203 44.0766C274.271 44.0766 275.186 43.924 276.254 43.7715C277.627 43.619 279 43.4665 280.373 43.1615C281.746 43.009 283.271 42.7039 284.949 42.3989C285.254 42.3989 285.559 42.5514 286.017 42.8564C286.475 43.1615 286.78 43.619 286.78 44.3816L288.305 53.5324C288.153 54.7525 287.542 55.5151 286.322 55.9726C285.102 56.4302 283.881 56.7352 282.356 56.8877L265.576 58.8704C263.288 59.1754 261.305 59.1754 259.475 58.8704C257.797 58.5654 256.881 57.6503 256.576 55.9726L250.475 5.1855C250.627 4.57544 251.085 3.96539 251.847 3.50784C252.61 3.0503 253.22 2.74527 253.83 2.59276L279.153 -0.45752C279.61 -0.152492 280.22 0.152536 280.678 0.457564C281.136 0.762592 281.441 1.37265 281.441 1.9827L282.966 11.4386Z" fill="#1E2E20"/>
<path d="M154.525 95.3212C154.373 96.3888 153.915 97.1514 153.153 97.6089C152.39 98.0665 151.627 98.3715 150.712 98.219C150.102 98.0665 149.492 97.914 149.186 97.4564C147.356 96.6939 145.678 96.2363 144.153 96.0838C142.627 95.9313 140.949 95.6263 139.271 95.1687C137.441 94.8637 135.763 94.7112 134.237 94.7112C132.712 94.7112 131.034 94.8637 129.356 95.6263C127.678 98.6765 126.61 102.032 126.153 105.692C125.695 109.2 125.237 113.013 124.322 116.978C124.322 118.656 124.322 120.181 124.17 121.859L123.559 126.739C123.407 128.417 123.254 130.094 123.254 131.772C123.254 133.45 123.712 135.127 124.322 136.958C125.39 138.025 126.915 138.635 128.898 139.093C130.881 139.55 132.559 139.855 134.085 140.008L136.831 140.313C138.203 140.465 139.576 140.465 141.102 140.008C142.627 139.703 144.153 139.55 145.678 139.855C146.441 140.008 147.051 140.313 147.661 140.923C148.119 141.533 148.424 142.296 148.271 143.363L146.288 158.157C144.763 159.987 142.475 161.207 139.576 161.36C136.678 161.665 133.78 161.665 131.034 161.207L126.458 160.597C120.814 159.835 116.237 158.309 112.881 155.869C109.525 153.429 106.932 150.531 105.102 147.176C103.424 143.821 102.356 140.008 101.898 136.042C101.593 131.925 101.593 127.959 102.203 123.841L103.576 113.165C103.424 113.013 103.576 112.403 103.729 111.335L104.492 105.692C104.949 101.727 105.712 97.7615 106.78 93.7961C107.695 89.9832 109.373 86.4754 111.814 83.4251C114.254 80.3749 117.61 77.9346 121.729 75.952C126 73.9693 131.644 73.0542 138.814 73.0542C139.424 73.2067 140.034 73.3592 140.797 73.5117C141.559 73.6643 142.475 73.8168 143.39 73.9693C144.763 74.1218 146.288 74.4268 147.814 74.7319C149.339 75.0369 150.712 75.4944 151.932 76.1045C153.153 76.7145 154.22 77.4771 154.983 78.3922C155.746 79.3073 156.203 80.3749 156.203 81.595L155.288 88.3056L154.831 92.1184C154.678 93.0335 154.678 93.4911 154.678 93.9486C154.678 94.2536 154.678 94.5587 154.678 94.7112L154.525 95.3212Z" fill="#1E2E20"/>
<path d="M190.068 85.4079C192.661 85.2554 194.797 85.1029 196.475 85.1029C198.153 84.9503 199.831 84.9504 201.356 85.2554C202.881 85.5604 204.559 85.8654 206.237 86.628C207.915 87.3906 210.051 88.4582 212.492 90.1358C214.475 91.661 216.153 93.3386 217.525 95.3213C218.898 97.304 219.966 99.4392 220.881 101.574C221.797 103.71 222.407 105.997 222.864 108.285C223.322 110.573 223.627 112.86 223.932 114.843L226.525 137.11C227.288 143.668 227.136 148.854 226.22 152.972C225.305 157.089 223.475 160.445 221.034 163.038C218.593 165.63 215.39 167.613 211.576 168.986C207.763 170.358 203.492 171.578 198.458 172.493L197.085 172.646C193.424 173.103 189.61 172.798 185.797 171.731C181.983 170.816 178.322 169.291 174.966 167.46C172.525 166.088 170.542 164.41 169.017 162.122C167.492 159.835 166.271 157.547 165.509 154.954C164.593 152.362 163.983 149.616 163.525 146.871C163.068 144.126 162.763 141.381 162.458 138.94L162.153 136.5C161.695 132.992 161.39 129.332 161.085 125.519C160.78 121.859 160.78 118.198 160.932 114.538C161.085 110.878 161.542 107.522 162.458 104.32C163.22 101.117 164.593 98.2191 166.424 95.7788C168.254 93.1861 170.695 91.0509 173.746 89.3733C176.797 87.6956 180.61 86.628 185.186 86.018L190.068 85.4079ZM191.746 106.455C189.458 107.065 187.78 107.522 186.407 107.827C185.034 108.132 184.119 108.895 183.356 110.268C182.746 111.64 182.441 114.081 182.593 117.588C182.746 121.096 183.203 126.434 183.814 133.45C184.119 136.195 184.576 138.94 185.186 141.838C185.797 144.736 186.559 147.329 187.475 149.616C189 150.684 190.525 151.294 192.203 151.294C193.729 151.446 195.254 151.446 196.78 151.446C198.458 151.141 199.983 150.684 201.356 150.379C202.729 150.074 203.797 148.854 204.712 147.024C205.475 145.041 205.932 142.753 206.085 140.313C206.237 137.873 206.085 135.28 205.78 132.535C205.322 128.722 204.864 124.756 204.254 120.486C203.644 116.216 202.729 111.945 201.661 107.827C200.288 106.912 198.915 106.455 197.695 106.302C196.475 106.15 195.102 106.15 193.881 106.302L191.593 106.607L191.746 106.455Z" fill="#1E2E20"/>
<path d="M246.356 112.098L245.136 112.555C244.373 112.86 243.458 113.165 242.695 113.318C241.78 113.623 240.864 113.776 239.949 114.081L237.051 113.776L235.373 111.793L230.492 98.3716C230.034 97.1515 230.644 95.9314 232.322 94.7113C234 93.3387 235.983 92.1186 238.576 90.8984C241.017 89.6783 243.763 88.4582 246.661 87.2381C249.559 86.1705 252.153 85.1029 254.288 84.3403L263.288 80.985C266.186 79.9174 268.78 79.1549 270.763 78.5448C272.746 77.9348 274.576 77.9348 276.254 78.3923C277.78 78.8498 279.305 80.07 280.525 81.9001C281.898 83.7303 283.119 86.6281 284.644 90.4409C285.102 91.661 285.407 93.6437 285.407 96.2364C285.407 98.8292 285.254 102.337 284.644 106.912C284.186 111.335 283.271 116.978 281.898 123.536C280.678 130.095 279 138.025 276.864 147.329L298.983 139.245H301.881L303.559 141.228C304.78 145.041 305.847 147.939 306.458 150.226C307.068 152.514 307.525 154.192 307.525 155.412C307.678 156.632 307.525 157.395 307.373 157.852C307.068 158.31 306.61 158.615 306 158.92C305.085 159.225 303.712 159.682 302.034 160.14C300.356 160.597 298.525 161.207 296.237 161.97C291.661 163.648 287.085 165.478 282.356 167.308C277.78 169.138 272.898 171.121 267.864 172.951C265.729 173.714 263.746 174.324 261.763 174.629C259.78 174.934 258.559 174.324 257.797 173.103L252.458 158.462C253.22 153.277 253.83 148.549 254.593 144.126C255.203 139.703 255.814 135.28 256.576 131.162C257.186 127.044 257.949 122.774 258.712 118.809C259.475 114.691 260.237 110.42 261.305 106.15L246.356 112.098Z" fill="#1E2E20"/>
<path d="M344.898 129.942C345.051 131.62 345.203 133.755 345.508 136.805C345.814 139.703 345.966 142.601 346.271 145.498C346.576 148.396 346.729 150.989 347.034 153.277C347.339 155.564 347.339 156.937 347.339 157.089C347.492 158.309 347.034 159.53 346.271 160.75C345.661 161.817 339.864 163.037 328.576 164.258L326.288 163.495L324.153 161.512L323.542 152.666C323.237 148.854 322.932 145.193 322.627 141.38C322.322 137.72 321.864 133.907 321.254 130.094C318.356 124.299 315.458 118.808 312.712 113.623C309.966 108.437 307.373 103.709 305.237 99.4391C302.949 95.1687 301.271 91.6609 299.746 88.6106C298.373 85.7128 297.61 83.5776 297.458 82.51C297.305 80.8324 298.22 79.7648 300.203 79.1547C302.034 78.5447 304.627 78.0871 307.525 77.9346C310.576 77.7821 313.017 77.6296 314.847 77.9346C316.83 78.0871 318.356 78.6972 319.576 79.4598C320.797 80.3749 321.864 81.595 322.78 83.1201C323.695 84.6452 324.763 86.7804 325.678 89.2207C326.288 90.7458 326.898 92.1184 327.356 93.4911C327.966 94.8637 328.424 96.0838 328.881 97.1514C329.186 97.7614 329.339 98.3715 329.644 98.9816C329.949 99.5916 330.254 100.202 330.407 100.659C330.559 100.659 330.712 99.7441 331.169 98.0665C331.627 96.3888 332.237 94.2536 332.847 91.8134C333.458 89.3732 334.22 86.933 335.136 84.3402C335.898 81.7475 336.814 79.6123 337.729 77.9346C338.644 76.7145 341.695 75.7994 347.186 75.3419C350.085 75.1894 352.373 75.0369 354.051 75.0369C355.729 75.0369 357.102 75.0369 357.864 75.1894C358.78 75.3419 359.237 75.4944 359.542 75.6469C359.847 75.7994 360 76.1045 360 76.4095V76.7145C360 76.867 359.847 77.6296 359.542 79.1547C359.237 80.5274 358.475 83.1201 357.407 86.933C356.339 90.7458 354.661 95.9313 352.678 102.794C351 109.81 348.254 118.808 344.898 129.942Z" fill="#1E2E20"/>
<path d="M46.0679 208.334C45.7628 204.369 45.3051 200.556 44.695 196.743C44.0848 192.93 43.7797 189.727 43.4746 186.83C43.3221 184.542 43.3221 182.712 43.4746 181.339C43.6272 179.966 44.0848 178.899 44.695 178.136C45.3051 177.374 46.0679 176.916 47.1357 176.611C48.2034 176.306 49.5763 176.154 51.1018 176.001C52.1696 176.001 53.2373 175.849 54.6102 175.849C55.8306 175.849 57.356 175.696 58.8814 175.696C59.7967 175.696 60.7119 175.696 61.4746 175.849C62.2373 176.001 63.0001 176.459 63.6102 177.221C64.2204 177.984 64.8306 179.051 65.1357 180.576C65.5933 181.949 65.8984 183.932 66.0509 186.372L68.9492 227.398C69.1018 227.551 69.1018 228.008 69.2543 228.771L69.4068 229.991L69.5594 232.736L70.017 238.227C70.1696 240.82 70.3221 243.412 70.4746 246.005C70.6272 248.445 70.6272 250.733 70.6272 252.716C70.6272 254.698 70.6272 256.376 70.4746 257.749C70.3221 259.121 70.1696 260.036 70.017 260.341C69.8645 260.951 68.9492 261.561 67.2712 261.866C65.5933 262.171 63.6102 262.476 61.6272 262.629L57.8136 262.934H56.8984C55.2204 263.087 53.8475 263.087 52.9323 262.934C52.017 262.782 51.2543 262.324 50.6441 261.561C50.034 260.799 49.7289 259.579 49.4238 258.054C49.2713 256.528 48.9662 254.241 48.8136 251.343L47.7458 236.244C47.7458 235.787 47.8984 235.329 47.8984 234.871C47.8984 234.414 47.8984 234.109 47.8984 233.651L47.7458 231.669L47.5933 229.839L34.017 229.991C34.3221 231.516 34.4746 233.041 34.7797 234.414C34.9323 235.939 35.2374 237.922 35.3899 240.667C35.5424 242.955 35.695 245.242 35.695 247.683C35.695 250.123 35.695 252.411 35.695 254.546C35.695 256.681 35.5424 258.511 35.3899 260.036C35.2374 261.561 35.0848 262.477 34.9323 262.782C34.4746 263.544 33.4068 264.154 31.7289 264.307C30.0509 264.612 27.4577 264.764 23.9492 265.069C21.9662 265.222 20.4407 265.222 19.2204 265.374C18.0001 265.374 17.0848 265.374 16.4746 265.069C15.8645 264.764 15.4068 264.459 15.2543 263.849C14.9492 263.239 14.9492 262.476 14.7967 261.409C14.6441 259.274 14.6441 256.376 14.7967 252.563C14.9492 248.903 14.7967 244.785 14.4916 240.514L12.9662 219.62L9.76277 190.185C9.61023 187.897 9.61023 186.067 9.61023 184.694C9.61023 183.322 9.76277 182.102 10.0679 181.339C10.3729 180.576 10.678 179.966 11.2882 179.814C11.7458 179.509 12.5085 179.356 13.2712 179.356L27.4577 178.441C28.3729 178.441 29.1357 178.746 29.4407 179.356C29.7458 179.966 30.0509 181.187 30.2034 183.169C30.356 184.542 30.356 186.372 30.356 188.355C30.356 190.337 30.5085 192.625 30.6611 194.913C30.8136 197.201 30.8136 199.641 30.9662 202.081C31.1187 204.521 31.1187 206.961 31.2712 209.249L46.0679 208.334Z" fill="#1E2E20"/>
<path d="M119.746 181.187C122.339 181.492 124.322 181.797 126.153 181.949C127.831 182.102 129.509 182.407 130.881 182.864C132.407 183.322 133.932 184.084 135.458 185.152C136.983 186.219 138.814 187.745 140.949 189.727C142.627 191.557 143.848 193.54 144.915 195.828C145.831 197.963 146.593 200.251 147.051 202.538C147.509 204.826 147.814 207.266 147.814 209.554C147.814 211.994 147.814 214.13 147.661 216.265L145.983 238.684C145.525 245.242 144.458 250.428 142.78 254.241C141.102 258.054 138.814 261.104 135.915 263.087C133.017 265.222 129.509 266.442 125.542 267.204C121.576 267.967 117 268.272 111.966 268.272L110.593 268.119C106.932 267.814 103.271 266.899 99.6102 265.222C95.9492 263.544 92.7458 261.409 89.695 258.969C87.5594 257.138 85.8814 255.156 84.9661 252.716C83.8983 250.275 83.1356 247.683 82.8306 244.937C82.5255 242.192 82.3729 239.447 82.3729 236.549C82.5255 233.651 82.678 231.059 82.8306 228.618L82.9831 226.178C83.2882 222.67 83.5933 219.01 84.0509 215.197C84.5085 211.537 85.1187 207.876 85.8814 204.369C86.6441 200.861 87.8645 197.658 89.2373 194.608C90.6102 191.557 92.4407 189.117 94.7289 186.83C97.017 184.694 99.7628 183.017 103.119 181.949C106.475 180.882 110.441 180.424 115.017 180.882L119.746 181.187ZM117.458 202.081C115.17 202.233 113.339 202.386 111.966 202.386C110.593 202.386 109.525 202.996 108.61 204.216C107.695 205.436 106.932 207.876 106.475 211.232C106.017 214.587 105.407 219.925 104.797 227.093C104.644 229.838 104.492 232.736 104.644 235.634C104.797 238.532 104.949 241.277 105.407 243.717C106.78 245.09 108.153 245.852 109.678 246.31C111.203 246.768 112.729 247.073 114.102 247.378C115.78 247.378 117.305 247.225 118.831 247.225C120.203 247.073 121.576 246.31 122.797 244.48C124.017 242.65 124.78 240.514 125.39 238.074C126 235.634 126.305 233.041 126.458 230.296C126.763 226.483 126.915 222.518 127.068 218.247C127.22 213.977 127.22 209.707 126.915 205.284C125.695 204.216 124.475 203.454 123.254 202.996C122.034 202.691 120.814 202.386 119.441 202.233L117.153 202.081H117.458Z" fill="#1E2E20"/>
<path d="M174.051 184.237C176.186 184.084 177.559 185.152 178.17 187.287C178.17 190.643 178.475 193.998 178.78 197.506C179.085 201.014 179.542 204.369 179.847 207.724C180.61 213.367 181.373 218.858 182.441 224.348C183.356 229.686 184.271 235.024 184.881 240.21C185.034 241.735 185.339 243.412 185.492 244.938C185.644 246.463 185.797 247.988 185.949 249.513C187.627 249.055 189.61 248.445 191.746 247.988C193.881 247.53 196.017 246.92 198.153 246.615C200.288 246.158 202.424 245.853 204.407 245.395C206.39 245.09 208.22 244.785 209.746 244.48C211.576 244.633 212.949 245.853 213.712 247.988C214.475 250.123 215.085 253.021 215.542 256.681C215.847 259.121 215.847 261.104 215.542 262.477C215.237 263.849 213.864 265.069 211.424 265.984C208.983 266.9 205.17 267.967 199.983 268.882C194.797 269.797 187.322 271.017 177.864 272.543L172.678 273.305C169.17 272.543 167.186 271.322 166.729 269.492C166.881 266.747 166.729 263.849 166.576 260.952C166.424 258.054 166.119 255.156 165.661 252.106L159.407 214.435C158.949 210.774 158.492 207.267 158.186 204.064C157.881 200.709 157.729 197.811 157.576 195.218C157.576 192.625 157.576 190.643 157.881 189.117C158.186 187.592 158.644 186.83 159.407 186.677L174.051 184.237Z" fill="#1E2E20"/>
<path d="M241.932 184.542C244.068 184.695 245.441 185.762 245.746 187.897C245.441 191.253 245.288 194.608 245.288 198.116C245.288 201.624 245.288 204.979 245.441 208.334C245.593 213.977 245.898 219.62 246.356 225.111C246.814 230.601 247.119 235.939 247.271 241.125C247.271 242.802 247.424 244.327 247.424 245.853C247.424 247.378 247.424 248.903 247.424 250.428C249.254 250.123 251.237 249.818 253.373 249.513C255.508 249.208 257.644 248.903 259.932 248.75C262.068 248.598 264.203 248.293 266.186 248.14C268.169 247.988 270 247.835 271.678 247.835C273.508 248.14 274.729 249.513 275.186 251.648C275.797 253.936 276.102 256.834 276.102 260.494C276.254 262.934 275.949 264.917 275.644 266.137C275.186 267.51 273.661 268.577 271.22 269.187C268.627 269.95 264.814 270.56 259.475 270.865C254.136 271.322 246.661 271.78 237.051 272.39L231.864 272.543C228.356 271.475 226.525 269.95 226.373 268.12C226.83 265.374 226.983 262.477 227.136 259.579C227.288 256.681 227.288 253.783 227.136 250.733L224.695 212.605C224.542 208.944 224.542 205.436 224.542 202.081C224.542 198.726 224.695 195.828 224.847 193.235C225 190.643 225.305 188.66 225.763 187.135C226.22 185.61 226.83 184.847 227.593 184.847L241.932 184.542Z" fill="#1E2E20"/>
<path d="M306.763 178.289C309.356 178.136 311.492 177.831 313.17 177.679C314.847 177.526 316.525 177.374 318.051 177.526C319.576 177.679 321.254 178.136 322.932 178.746C324.61 179.356 326.746 180.424 329.339 181.949C331.322 183.322 333.153 184.999 334.525 186.982C335.898 188.965 337.119 190.948 338.034 193.083C338.949 195.218 339.712 197.506 340.322 199.793C340.932 202.081 341.237 204.216 341.695 206.351L345.051 228.466C345.966 234.872 346.119 240.21 345.356 244.327C344.593 248.445 342.915 251.801 340.627 254.546C338.186 257.139 335.136 259.274 331.475 260.799C327.814 262.324 323.39 263.697 318.508 264.764L317.136 264.917C313.475 265.527 309.661 265.374 305.847 264.459C301.881 263.697 298.22 262.324 294.864 260.494C292.424 259.274 290.288 257.596 288.763 255.461C287.237 253.326 285.864 250.886 284.949 248.293C284.034 245.7 283.271 243.107 282.661 240.21C282.203 237.464 281.746 234.872 281.288 232.431L280.983 229.991C280.373 226.483 279.915 222.823 279.458 219.163C279 215.502 278.847 211.842 278.847 208.182C278.847 204.521 279.305 201.166 279.915 197.963C280.678 194.76 281.898 191.863 283.576 189.27C285.407 186.677 287.695 184.389 290.746 182.712C293.797 180.882 297.458 179.662 302.034 178.899L306.763 178.289ZM309.051 199.183C306.915 199.946 305.085 200.403 303.712 200.708C302.339 201.013 301.424 201.929 300.814 203.301C300.203 204.674 300.051 207.114 300.356 210.622C300.661 214.13 301.271 219.315 302.186 226.483C302.644 229.229 303.102 231.974 303.864 234.872C304.627 237.769 305.39 240.21 306.458 242.497C307.983 243.565 309.661 244.022 311.186 244.022C312.712 244.022 314.237 244.022 315.763 244.022C317.441 243.565 318.966 243.107 320.339 242.802C321.712 242.345 322.78 241.277 323.542 239.294C324.305 237.312 324.61 235.024 324.61 232.584C324.61 230.144 324.458 227.551 324 224.806C323.39 221.145 322.78 217.027 322.017 212.91C321.254 208.639 320.186 204.521 318.966 200.403C317.441 199.641 316.068 199.183 314.847 199.031C313.627 198.878 312.254 199.031 311.034 199.183L308.746 199.488L309.051 199.183Z" fill="#1E2E20"/>
<path d="M359.695 176.154C359.847 175.239 360.305 174.476 360.915 173.714C361.678 173.103 362.441 172.798 363.509 172.951L378.153 175.391C379.068 175.544 379.831 177.221 380.288 180.272C380.746 183.322 381.051 186.982 381.356 191.253C381.508 195.523 381.661 199.946 381.509 204.674C381.509 209.249 381.356 213.367 381.203 216.722C381.966 213.062 382.881 209.707 383.949 206.657C385.017 203.606 386.237 200.556 387.305 197.658C388.525 194.76 389.593 191.863 390.661 188.965C391.729 186.067 392.492 183.017 393.102 179.509C393.559 179.357 394.17 179.204 394.932 178.746C395.695 178.289 396.61 178.289 397.525 178.441L403.017 179.357C404.085 179.509 404.848 179.967 405.305 180.577C405.763 181.187 406.22 181.797 406.373 182.559C406.22 184.847 406.068 187.44 406.22 190.185C406.373 192.93 406.525 195.828 406.831 198.878C407.136 201.929 407.441 204.979 407.746 207.877C408.051 210.927 408.203 213.825 408.356 216.722C409.424 213.215 410.492 209.554 411.559 205.436C412.627 201.319 413.695 197.506 414.915 193.998C416.136 190.49 417.356 187.592 418.729 185.457C420.102 183.169 421.475 182.254 423.153 182.559L437.644 185C438.712 185.152 439.475 185.762 439.932 186.677C440.39 187.592 440.542 188.66 440.39 189.728C437.644 196.133 435.051 202.234 432.458 208.182C430.017 214.13 427.576 220.078 425.441 226.026C423.153 231.974 421.017 237.922 419.034 243.87C417.051 249.818 414.915 256.071 413.085 262.477C411.712 264.764 410.492 266.137 409.576 266.747C408.661 267.357 407.746 267.662 406.983 267.662L393.864 265.527C392.186 265.069 391.424 264.002 391.424 262.172C391.729 259.579 392.034 256.834 392.034 254.088C392.034 251.343 392.034 248.903 391.881 246.615C391.729 244.328 391.576 242.497 391.271 241.125C390.966 239.752 390.661 238.99 390.356 238.837C390.203 238.837 389.593 239.752 388.678 241.582C387.763 243.412 386.695 245.7 385.475 248.14C384.254 250.581 383.034 253.021 381.814 255.309C380.593 257.596 379.678 259.274 379.068 260.036C378.458 261.104 378 261.714 377.542 262.019C377.085 262.324 376.475 262.477 375.407 262.324L365.034 260.646C363.814 260.341 363.051 258.511 362.593 254.851C362.136 251.343 361.831 246.92 361.831 241.582C361.678 236.244 361.678 230.449 361.525 223.891C361.525 217.485 361.22 211.079 360.763 204.826C360.458 201.776 360.305 198.116 360.305 194.303C360.305 190.338 360.305 185.915 360.305 181.034L359.695 176.154Z" fill="#1E2E20"/>
<path d="M66.2034 103.862C66.0509 104.167 65.8983 104.472 65.5932 104.625C62.5424 106.15 60.4068 98.829 60.2543 97.1514C59.7966 93.7961 60.2543 90.4408 59.339 87.238C58.1187 82.51 52.3221 78.8497 48.2034 81.7475C46.0678 83.2726 46.3729 86.1704 46.0678 88.6106C45.9153 90.5933 44.5424 94.8637 41.4915 93.186C40.5763 92.7285 40.1187 91.8134 39.8136 91.0508C38.2882 86.7804 39.3559 84.0352 37.9831 79.7648C37.0678 76.7145 34.4746 73.6642 31.2712 72.5966C28.0678 71.529 26.5424 73.6642 25.7797 76.257C25.1695 78.2397 25.1695 78.3922 24.5593 80.3749C24.1017 82.0525 23.4915 85.7128 20.5932 83.8827C19.9831 83.4251 19.5254 82.8151 19.0678 82.205C16.1695 78.0871 6.25425 71.224 1.52544 77.0195C-3.05083 82.8151 4.72883 92.4235 9.45764 94.2536C10.2204 94.5586 10.9831 94.8637 11.4407 95.3212C14.0339 97.6089 10.5254 98.9816 9.00001 99.8966C7.32205 100.964 7.01696 101.117 5.18645 102.032C2.74578 103.252 1.06781 105.387 2.89832 108.285C4.57629 111.183 7.93222 112.86 11.2881 113.165C15.8644 113.47 18.1526 111.945 22.7288 112.403C23.6441 112.555 24.5593 112.86 25.3221 113.623C27.6102 116.216 23.7966 118.503 21.8136 119.113C19.5254 119.876 16.6271 120.181 15.5593 122.621C13.5763 127.349 18.6102 132.23 23.339 132.23C26.6949 132.382 29.8983 131.162 33.2543 130.857C34.9322 130.704 42.5593 131.009 41.7966 134.365C41.6441 134.67 41.4915 134.975 41.1865 135.127C38.8983 137.11 32.7966 138.94 35.3898 143.211C36.7627 145.346 39.0509 147.176 41.6441 147.786C45.9153 149.006 48.8136 146.871 52.1695 145.193C57.8136 142.601 64.0678 142.601 70.322 142.906C74.1356 143.058 77.6441 145.041 81.3051 145.956C82.9831 146.413 84.8136 145.803 85.7288 144.583C86.6441 143.363 86.7966 141.38 85.8814 139.855C84.0509 136.652 81.4576 133.602 80.5424 130.094C78.8644 123.994 77.339 118.046 78.7119 111.945C79.4746 108.285 80.8475 104.93 78.8644 101.117C77.6441 98.829 75.5085 96.9989 73.0678 96.0838C68.0339 94.7112 67.5763 101.117 66.2034 103.862Z" fill="#C56128"/>
<path d="M418.576 129.484C418.271 129.332 417.966 129.179 417.814 128.874C416.288 125.824 423.61 123.689 425.288 123.536C428.644 123.079 432 123.536 435.203 122.621C439.932 121.401 443.593 115.606 440.695 111.488C439.17 109.352 436.271 109.657 433.831 109.352C431.847 109.2 427.576 107.827 429.254 104.777C429.712 103.862 430.627 103.404 431.39 103.099C435.661 101.574 438.407 102.642 442.678 101.269C445.729 100.354 448.78 97.7614 449.847 94.5586C450.915 91.3558 448.78 89.8307 446.186 89.0681C444.203 88.4581 444.051 88.4581 442.068 87.848C440.39 87.3905 436.729 86.7804 438.559 83.8826C439.017 83.2726 439.627 82.815 440.237 82.3575C444.356 79.4597 451.22 69.5463 445.424 64.8184C439.627 60.243 430.017 68.0212 428.186 72.7491C427.881 73.5117 427.576 74.2743 427.119 74.7318C424.831 77.3245 423.458 73.8167 422.542 72.2916C421.475 70.6139 421.322 70.3089 420.407 68.4787C419.186 66.0385 417.051 64.3609 414.153 66.191C411.254 68.0212 409.424 71.3765 409.271 74.5793C408.966 79.1547 410.492 81.4424 410.034 86.0178C409.881 86.9329 409.576 87.848 408.814 88.6106C406.22 90.8983 403.932 87.0854 403.322 85.1027C402.559 82.815 402.254 79.9173 399.661 78.8497C394.932 76.867 390.051 81.9 390.051 86.6279C389.898 89.9832 391.119 93.186 391.424 96.5413C391.576 98.219 391.271 105.845 387.915 105.082C387.61 104.93 387.305 104.777 387.153 104.472C385.17 102.184 383.339 96.0838 379.068 98.6765C376.932 100.049 375.102 102.337 374.492 104.93C373.271 109.2 375.407 112.098 377.085 115.453C379.678 121.096 379.678 127.349 379.373 133.602C379.22 137.415 377.237 140.923 376.322 144.583C375.864 146.261 376.475 148.091 377.695 149.006C378.915 149.921 380.898 150.074 382.424 149.159C385.627 147.328 388.678 144.736 392.186 143.821C398.288 142.143 404.237 140.618 410.339 141.99C414 142.753 417.356 144.126 421.17 142.143C423.458 140.923 425.288 138.788 426.203 136.347C427.729 131.314 421.17 130.857 418.576 129.484Z" fill="#C56128"/>
</g>
<defs>
<clipPath id="clip0_23_186">
<rect width="450" height="273" fill="white"/>
</clipPath>
</defs>
</svg>
