<?xml version="1.0" encoding="utf-8"?>
<!-- Generator: Adobe Illustrator 24.0.1, SVG Export Plug-In . SVG Version: 6.00 Build 0)  -->
<svg version="1.1" id="Layer_1" xmlns="http://www.w3.org/2000/svg" xmlns:xlink="http://www.w3.org/1999/xlink" x="0px" y="0px"
	 viewBox="0 0 450 273" style="enable-background:new 0 0 450 273;" xml:space="preserve">
<style type="text/css">
	.st0{fill:#273C2B;}
	.st1{fill:#3F5A41;}
</style>
<g>
	<g>
		<path class="st0" d="M190.2,18.2c0.3,1.5,0.6,2.9,0.8,4.3c0.3,1.4,0.5,2.8,0.7,4.2l2.1,14.3c-0.1,0.1,0,0.3,0,0.7l0.1,0.7l0.2,1.5
			c0.3,1.8,0.6,3.5,0.9,5.1c0.4,1.6,0.6,3.1,0.9,4.5l0.1,0.8c0.2,1.3,0.3,2.4,0.3,3.2c0,0.8-0.1,1.5-0.4,1.9
			c-0.2,0.5-0.6,0.8-1.1,1.1c-0.5,0.2-1.1,0.4-1.9,0.5l-4,0.6c-0.9,0.1-1.7,0.2-2.5,0.3c-0.8,0.1-1.8,0.2-2.8,0.2l-1.5-0.3l-0.9-1.2
			c-1.1-5.3-2.1-10.6-2.9-15.9c-0.6-4.3-1.1-8.5-1.5-12.6c-0.4-4.1-0.5-8-0.5-11.9c-3.1,0.3-5.4,0.6-7.1,0.7
			c-1.6,0.1-2.9,0.2-3.7,0.2s-1.3-0.1-1.4-0.2c-0.1-0.1-0.2-0.4-0.3-0.7l0-0.1l-1.9-9.5c0.1-0.7,0.3-1.3,0.7-1.8
			c0.4-0.5,0.8-0.8,1.3-0.9l33.7-5c1.1-0.2,1.8,0.5,2,2l1.4,9.3c0,0.6-0.2,1.1-0.6,1.6c-0.4,0.5-0.9,0.8-1.5,0.9L190.2,18.2z"/>
		<path class="st0" d="M230.7,37.9c0-2.6-0.1-5.1-0.3-7.6c-0.2-2.5-0.3-4.6-0.3-6.5c0-1.5,0.1-2.7,0.3-3.6c0.2-0.9,0.5-1.6,0.9-2
			c0.4-0.5,1-0.8,1.7-0.9c0.7-0.2,1.6-0.2,2.7-0.2c0.7,0,1.4,0,2.3,0c0.8,0,1.8,0,2.8,0c0.6,0,1.2,0.1,1.7,0.2
			c0.5,0.2,0.9,0.5,1.3,1c0.4,0.5,0.7,1.3,0.9,2.2c0.2,1,0.3,2.2,0.3,3.9v27c0.1,0.1,0.1,0.4,0.1,0.9v0.8v1.8v3.6c0,1.7,0,3.4,0,5.1
			c0,1.6-0.1,3.1-0.2,4.4c-0.1,1.3-0.2,2.4-0.3,3.3c-0.1,0.9-0.3,1.5-0.5,1.7c-0.1,0.4-0.8,0.7-1.9,0.9c-1.2,0.2-2.4,0.2-3.8,0.2
			h-2.5h-0.6c-1.1,0-2-0.1-2.6-0.2c-0.6-0.1-1.1-0.5-1.4-1c-0.3-0.5-0.5-1.3-0.6-2.4s-0.1-2.5-0.1-4.4v-9.9c0.1-0.3,0.1-0.6,0.1-0.9
			c0-0.3,0.1-0.5,0.1-0.8v-1.3v-1.2l-8.9-0.6c0.1,1,0.2,2,0.3,2.9c0.1,1,0.1,2.3,0.1,4.1c0,1.5,0,3-0.1,4.6
			c-0.1,1.6-0.2,3.1-0.3,4.5c-0.1,1.4-0.3,2.6-0.4,3.5c-0.2,1-0.3,1.6-0.4,1.8c-0.3,0.5-1,0.8-2.2,0.9s-2.8,0.1-5.1,0.1
			c-1.3,0-2.3,0-3.1,0c-0.8,0-1.4-0.1-1.8-0.3c-0.4-0.2-0.7-0.5-0.8-0.8c-0.1-0.4-0.2-0.9-0.2-1.6c0-1.4,0.1-3.3,0.4-5.8
			c0.2-2.4,0.4-5,0.4-7.9V43.8l-0.7-19.3c0-1.5,0-2.7,0.1-3.6c0.1-0.9,0.2-1.6,0.5-2.1c0.2-0.5,0.5-0.8,0.8-1
			c0.3-0.2,0.8-0.2,1.3-0.2h9.5c0.6,0.1,1,0.3,1.2,0.7c0.2,0.4,0.3,1.3,0.3,2.6c0,0.9,0,2.1-0.1,3.4c-0.1,1.3-0.1,2.8-0.1,4.3
			c0,1.5-0.1,3.1-0.1,4.7c-0.1,1.6-0.1,3.2-0.1,4.7H230.7z"/>
		<path class="st0" d="M282.9,11.4c-0.1,0.1-0.1,0.3-0.1,0.6c0.1,0.5-0.1,0.9-0.5,1.2c-0.4,0.3-1,0.6-1.6,0.8
			c-0.7,0.2-1.4,0.4-2.3,0.6c-0.9,0.2-1.7,0.3-2.5,0.4l-2.8,0.3c-1.2,0.1-2.3,0.2-3.3,0.3c-1,0.1-2.1,0.1-3.3,0.1l0.8,6.3l7.9-1
			c0.8,0.1,1.4,0.3,2,0.7c0.5,0.4,0.9,0.9,1,1.6l1.1,9.2c0,0.7-0.3,1.3-0.6,1.8c-0.4,0.5-0.8,0.8-1.4,0.9l-8.2,1l1,7.9
			c1.2,0,2.3-0.1,3.3-0.1c1-0.1,2.1-0.2,3.1-0.3c1.4-0.2,2.8-0.4,4.2-0.6c1.4-0.2,2.9-0.4,4.6-0.7c0.3,0,0.6,0.2,1,0.5
			c0.4,0.3,0.7,0.8,0.8,1.5l1.6,9.2c-0.1,1.2-0.8,2-1.9,2.5c-1.2,0.5-2.5,0.8-3.9,0.9l-16.8,2c-2.3,0.3-4.3,0.3-6,0
			c-1.7-0.3-2.7-1.2-2.9-2.9l-6.1-50.7c0.1-0.6,0.6-1.2,1.3-1.6c0.8-0.4,1.4-0.7,2-0.9L279.4,0c0.5,0.2,1,0.6,1.5,0.9
			c0.5,0.4,0.8,0.9,0.8,1.5L282.9,11.4z"/>
		<path class="st0" d="M154.5,95.3c-0.1,1-0.6,1.8-1.4,2.3c-0.8,0.5-1.6,0.7-2.4,0.6c-0.7-0.1-1.1-0.3-1.5-0.8
			c-1.8-0.7-3.5-1.2-5-1.3c-1.5-0.2-3.2-0.4-4.8-0.9c-1.8-0.2-3.5-0.4-5-0.4c-1.6-0.1-3.2,0.2-4.9,0.9c-1.8,3.1-2.8,6.5-3.2,10
			c-0.4,3.6-1,7.3-1.8,11.2c0.1,1.6,0,3.2-0.2,4.8l-0.7,4.9c-0.2,1.7-0.3,3.4-0.2,5c0.1,1.7,0.4,3.4,1,5.2c1.1,1,2.6,1.7,4.6,2.2
			c2,0.4,3.7,0.8,5.2,1l2.7,0.4c1.3,0.2,2.7,0.1,4.3-0.2c1.5-0.3,3-0.4,4.5-0.2c0.7,0.1,1.4,0.5,1.9,1.1c0.5,0.6,0.7,1.4,0.6,2.4
			l-1.9,14.8c-1.6,1.9-3.8,3-6.7,3.3c-2.9,0.3-5.8,0.2-8.6-0.1l-4.6-0.6c-5.6-0.7-10.1-2.3-13.6-4.7c-3.4-2.4-6-5.3-7.7-8.7
			c-1.7-3.4-2.8-7.1-3.2-11.2c-0.4-4.1-0.3-8.1,0.3-12.3l1.4-10.7c-0.1-0.1-0.1-0.7,0.1-1.9l0.7-5.6c0.5-4,1.3-8,2.2-11.9
			c0.9-3.9,2.6-7.3,5-10.4c2.4-3,5.7-5.5,10-7.4c4.3-1.9,10-2.9,17.1-2.9c0.6,0.2,1.2,0.3,2,0.5c0.7,0.1,1.6,0.3,2.7,0.4
			c1.4,0.2,2.9,0.5,4.4,0.8c1.5,0.3,2.9,0.8,4.2,1.4c1.3,0.6,2.3,1.4,3.1,2.3c0.8,0.9,1.2,2,1.2,3.2l-0.9,6.8l-0.5,3.8
			c-0.1,0.8-0.2,1.4-0.2,1.8c0,0.3,0,0.6,0,0.8L154.5,95.3z"/>
		<path class="st0" d="M190.1,85.4c2.6-0.1,4.7-0.2,6.4-0.4c1.7-0.2,3.3-0.1,4.9,0.1c1.5,0.2,3.2,0.7,4.9,1.4
			c1.7,0.7,3.8,1.9,6.3,3.5c2,1.5,3.6,3.2,5,5.2c1.3,2,2.4,4.1,3.3,6.3c0.9,2.2,1.5,4.4,2,6.8c0.5,2.3,0.8,4.5,1.1,6.6l2.6,22.3
			c0.7,6.5,0.6,11.8-0.3,15.9c-1,4.1-2.7,7.4-5.1,10c-2.5,2.6-5.6,4.5-9.4,5.9c-3.8,1.4-8.2,2.6-13.1,3.5l-1.4,0.2
			c-3.7,0.4-7.4,0.1-11.3-0.8c-3.9-1-7.5-2.4-10.9-4.3c-2.4-1.3-4.4-3.1-5.9-5.3c-1.5-2.2-2.7-4.6-3.5-7.2c-0.9-2.6-1.5-5.3-1.9-8.1
			c-0.4-2.8-0.8-5.4-1.1-7.9l-0.3-2.4c-0.4-3.6-0.8-7.2-1-10.9c-0.3-3.7-0.4-7.4-0.2-11c0.2-3.6,0.6-7,1.5-10.2s2.2-6.1,4-8.6
			c1.9-2.5,4.3-4.7,7.3-6.3c3-1.7,6.9-2.8,11.5-3.3L190.1,85.4z M191.7,106.4c-2.2,0.6-4,1.1-5.4,1.3c-1.4,0.3-2.3,1.1-3,2.5
			c-0.7,1.4-0.9,3.8-0.8,7.3c0.1,3.5,0.5,8.8,1.3,15.9c0.3,2.7,0.8,5.5,1.4,8.4c0.6,2.9,1.4,5.5,2.3,7.7c1.6,1.1,3.1,1.6,4.7,1.7
			c1.6,0.1,3.1,0.2,4.5,0.2c1.7-0.4,3.2-0.7,4.6-1.1c1.4-0.4,2.5-1.5,3.3-3.4c0.8-2,1.3-4.2,1.4-6.7c0.1-2.5,0-5.1-0.3-7.8
			c-0.4-3.8-1-7.8-1.6-12c-0.6-4.3-1.5-8.5-2.5-12.6c-1.4-0.9-2.8-1.4-4-1.5s-2.5-0.1-3.8,0l-2.3,0.3L191.7,106.4z"/>
		<path class="st0" d="M246.4,112.1l-1.2,0.4c-0.8,0.3-1.6,0.6-2.5,0.8c-0.9,0.3-1.8,0.5-2.7,0.8l-2.8-0.3l-1.6-2l-4.9-13.5
			c-0.4-1.2,0.2-2.4,1.8-3.7c1.6-1.3,3.7-2.6,6.2-3.9c2.5-1.3,5.2-2.5,8.1-3.6c2.9-1.1,5.4-2.1,7.6-2.9l9.1-3.3
			c2.9-1.1,5.4-1.9,7.5-2.4c2.1-0.6,3.9-0.6,5.5-0.1c1.6,0.5,3,1.7,4.3,3.6c1.3,1.9,2.7,4.7,4.1,8.6c0.5,1.2,0.7,3.2,0.8,5.8
			c0,2.6-0.2,6.1-0.7,10.6c-0.5,4.5-1.4,10-2.7,16.6c-1.3,6.6-2.9,14.5-5,23.7l22.1-8.1l2.9,0l1.6,2c1.3,3.8,2.2,6.8,2.8,9
			c0.6,2.2,1,4,1.1,5.2c0.1,1.2,0.1,2-0.2,2.5c-0.3,0.5-0.7,0.8-1.4,1c-1,0.4-2.3,0.8-3.9,1.2s-3.6,1.1-5.8,1.9
			c-4.6,1.7-9.2,3.5-13.8,5.4c-4.6,1.9-9.4,3.8-14.5,5.6c-2.1,0.8-4.2,1.3-6.1,1.6c-1.9,0.3-3.2-0.2-3.9-1.6l-5.4-14.7
			c0.7-5.1,1.4-9.9,2.1-14.4c0.6-4.5,1.3-8.8,2-13c0.7-4.2,1.4-8.3,2.2-12.4c0.8-4.1,1.6-8.3,2.5-12.7L246.4,112.1z"/>
		<path class="st0" d="M344.8,129.9c0.1,1.6,0.3,3.9,0.6,6.8c0.3,2.9,0.5,5.8,0.8,8.8c0.3,2.9,0.5,5.5,0.7,7.8
			c0.2,2.3,0.3,3.6,0.4,3.9c0.1,1.2-0.2,2.4-1,3.6c-0.6,1.1-6.5,2.3-17.7,3.6l-2.3-0.8l-2.1-2l-0.7-8.9c-0.3-3.8-0.6-7.5-0.9-11.2
			c-0.3-3.7-0.8-7.5-1.3-11.2c-2.9-5.8-5.7-11.2-8.5-16.4c-2.8-5.2-5.3-9.9-7.5-14.2c-2.2-4.2-4-7.8-5.4-10.8
			c-1.4-2.9-2.1-5-2.2-6.1c-0.1-1.6,0.8-2.7,2.7-3.3c1.9-0.6,4.4-1,7.4-1.3c3-0.2,5.5-0.2,7.4,0c1.9,0.2,3.5,0.7,4.7,1.6
			c1.3,0.9,2.3,2.1,3.3,3.7c0.9,1.6,1.9,3.6,2.9,6.1c0.6,1.5,1.2,2.9,1.7,4.3c0.6,1.4,1.1,2.6,1.6,3.7c0.2,0.6,0.5,1.3,0.8,1.9
			s0.5,1.2,0.8,1.7c0.1,0,0.4-0.9,0.8-2.6c0.4-1.7,1-3.8,1.7-6.2c0.7-2.4,1.4-4.9,2.2-7.5c0.8-2.6,1.7-4.7,2.6-6.4
			c0.9-1.3,4-2.2,9.5-2.6c2.9-0.2,5.2-0.3,6.9-0.4c1.7,0,3,0,3.9,0.1c0.9,0.1,1.4,0.3,1.7,0.5c0.3,0.2,0.4,0.5,0.4,0.8l0,0.3
			c0,0.2-0.1,1-0.5,2.4c-0.3,1.4-1,4-2.1,7.8c-1.1,3.8-2.7,9.1-4.7,15.9C351,109.9,348.2,118.8,344.8,129.9z"/>
		<path class="st0" d="M46,208.4c-0.3-4-0.7-7.8-1.3-11.6c-0.6-3.8-1-7-1.2-9.9c-0.2-2.3-0.1-4.1,0.1-5.5c0.2-1.4,0.6-2.5,1.2-3.2
			c0.6-0.8,1.4-1.3,2.5-1.6c1.1-0.3,2.4-0.5,4-0.6c1-0.1,2.2-0.1,3.5-0.2c1.3,0,2.7-0.1,4.3-0.2c0.9-0.1,1.8,0,2.6,0.2
			c0.8,0.2,1.5,0.7,2.1,1.4c0.6,0.8,1.1,1.9,1.6,3.3c0.4,1.4,0.7,3.4,0.9,5.8l2.8,41.1c0.1,0.2,0.2,0.6,0.2,1.4l0.1,1.3l0.2,2.7
			l0.4,5.5c0.2,2.6,0.3,5.2,0.5,7.7c0.1,2.5,0.2,4.8,0.2,6.7c0,2-0.1,3.7-0.1,5.1c-0.1,1.4-0.3,2.3-0.5,2.7
			c-0.1,0.7-1.1,1.2-2.8,1.5c-1.7,0.4-3.6,0.6-5.7,0.8l-3.8,0.3l-1,0.1c-1.7,0.1-3,0.1-4,0c-1-0.1-1.7-0.6-2.3-1.3
			c-0.6-0.8-1-2-1.2-3.5s-0.4-3.8-0.6-6.6l-1-15.2c0.1-0.5,0.1-0.9,0.1-1.4c0-0.4,0-0.8,0-1.2l-0.1-2l-0.1-1.8l-13.7,0.1
			c0.3,1.5,0.5,3,0.7,4.4c0.2,1.5,0.4,3.6,0.6,6.3c0.2,2.3,0.3,4.6,0.3,7s0,4.7,0,6.8c0,2.1-0.1,3.9-0.3,5.4
			c-0.1,1.5-0.3,2.4-0.4,2.8c-0.4,0.8-1.5,1.3-3.2,1.6s-4.3,0.5-7.7,0.7c-2,0.1-3.6,0.2-4.7,0.3c-1.2,0-2.1-0.1-2.7-0.3
			c-0.6-0.2-1.1-0.6-1.3-1.2c-0.2-0.6-0.4-1.4-0.4-2.4c-0.2-2.2-0.2-5.1,0-8.8c0.1-3.7,0-7.7-0.3-12.1l-1.4-21l-3.2-29.4
			c-0.2-2.3-0.2-4.1-0.2-5.5c0-1.4,0.2-2.5,0.5-3.3c0.3-0.8,0.7-1.3,1.2-1.6c0.5-0.3,1.2-0.4,2-0.5l14.4-1c0.9,0,1.6,0.3,2,0.9
			c0.4,0.6,0.6,1.9,0.8,3.9c0.1,1.4,0.2,3.1,0.2,5.2c0,2,0.1,4.2,0.2,6.5c0.1,2.3,0.2,4.7,0.3,7.2c0.1,2.5,0.2,4.9,0.4,7.2L46,208.4
			z"/>
		<path class="st0" d="M119.8,181.2c2.5,0.4,4.6,0.6,6.3,0.8c1.7,0.2,3.3,0.5,4.8,1c1.5,0.5,3,1.2,4.5,2.3c1.5,1,3.4,2.5,5.5,4.6
			c1.7,1.8,3,3.8,3.9,6c0.9,2.2,1.6,4.5,2.1,6.8c0.5,2.3,0.7,4.7,0.7,7c0,2.4,0,4.6-0.2,6.7l-1.6,22.4c-0.5,6.5-1.6,11.7-3.3,15.6
			c-1.7,3.9-4,6.8-6.9,8.9c-2.9,2.1-6.3,3.4-10.3,4.1c-4,0.7-8.5,1-13.5,1l-1.4-0.1c-3.7-0.3-7.3-1.2-10.9-2.9
			c-3.6-1.7-6.9-3.8-9.9-6.3c-2.1-1.8-3.7-3.9-4.8-6.3c-1.1-2.4-1.8-5-2.1-7.8c-0.4-2.7-0.5-5.5-0.4-8.4c0.1-2.8,0.3-5.5,0.4-7.9
			l0.2-2.4c0.3-3.6,0.6-7.2,1-11c0.4-3.7,1-7.3,1.9-10.8c0.8-3.5,1.9-6.7,3.3-9.7c1.4-3,3.3-5.6,5.5-7.7c2.3-2.2,5.1-3.8,8.4-4.9
			c3.3-1.1,7.3-1.5,11.9-1.1L119.8,181.2z M117.4,202.1c-2.3,0.2-4.1,0.3-5.5,0.3c-1.4,0-2.5,0.6-3.4,1.9c-0.9,1.3-1.6,3.6-2.2,7
			c-0.5,3.4-1.1,8.7-1.7,15.9c-0.2,2.7-0.3,5.6-0.2,8.5c0.1,3,0.3,5.6,0.8,8c1.3,1.3,2.8,2.2,4.3,2.6c1.5,0.4,3,0.7,4.4,1
			c1.7-0.1,3.3-0.1,4.7-0.2c1.4-0.1,2.7-1,3.9-2.7c1.2-1.8,2-3.9,2.6-6.4c0.6-2.4,0.9-5,1.1-7.7c0.3-3.8,0.5-7.8,0.7-12.1
			c0.2-4.3,0.1-8.6-0.1-12.9c-1.2-1.1-2.5-1.9-3.7-2.3s-2.5-0.6-3.8-0.7l-2.3-0.2L117.4,202.1z"/>
		<path class="st0" d="M174.1,184.2c2.2-0.1,3.6,0.9,4.1,3c0.1,3.3,0.3,6.7,0.6,10.2c0.3,3.4,0.7,6.8,1.1,10.2
			c0.7,5.6,1.6,11.1,2.6,16.6c1,5.4,1.8,10.7,2.4,15.8c0.2,1.6,0.4,3.2,0.6,4.7c0.2,1.6,0.3,3.1,0.4,4.6c1.7-0.5,3.7-1,5.8-1.6
			c2.1-0.5,4.2-1,6.4-1.4c2.1-0.4,4.2-0.8,6.2-1.2c2-0.4,3.8-0.6,5.4-0.9c1.8,0.1,3.1,1.3,3.9,3.5c0.8,2.2,1.4,5.1,1.9,8.6
			c0.3,2.4,0.3,4.3,0,5.7c-0.3,1.4-1.7,2.6-4.1,3.5c-2.4,1-6.3,2-11.5,2.9c-5.2,0.9-12.6,2.2-22.1,3.7l-5.2,0.7
			c-3.5-0.8-5.5-2-5.9-3.8c0.1-2.8,0.1-5.6-0.1-8.5c-0.2-2.9-0.5-5.8-0.9-8.8l-6.3-37.7c-0.5-3.7-0.9-7.1-1.2-10.4
			c-0.3-3.3-0.5-6.2-0.6-8.8c-0.1-2.6,0.1-4.6,0.3-6.1c0.3-1.5,0.8-2.3,1.5-2.4L174.1,184.2z"/>
		<path class="st0" d="M242,184.6c2.2,0.1,3.4,1.3,3.8,3.4c-0.3,3.3-0.4,6.7-0.5,10.2c0,3.5,0,6.9,0.1,10.3
			c0.2,5.7,0.5,11.3,0.9,16.7s0.7,10.8,0.8,16c0.1,1.6,0.1,3.2,0.1,4.8c0,1.6,0,3.1-0.1,4.6c1.8-0.3,3.8-0.7,5.9-1
			c2.2-0.3,4.3-0.6,6.5-0.8s4.3-0.4,6.3-0.6c2-0.2,3.9-0.3,5.5-0.3c1.8,0.3,3,1.6,3.5,3.9c0.5,2.3,0.9,5.2,1,8.8
			c0.1,2.5-0.1,4.4-0.5,5.7c-0.4,1.3-1.9,2.4-4.5,3.1c-2.5,0.7-6.4,1.3-11.7,1.7c-5.3,0.4-12.8,0.9-22.4,1.5l-5.3,0.2
			c-3.4-1.1-5.3-2.6-5.5-4.4c0.4-2.8,0.6-5.6,0.7-8.5s0.1-5.8,0-8.9l-2.5-38.1c-0.1-3.7-0.2-7.2-0.2-10.5c0-3.3,0.1-6.2,0.3-8.8
			c0.2-2.6,0.5-4.6,0.9-6.1s1-2.2,1.8-2.3L242,184.6z"/>
		<path class="st0" d="M306.7,178.3c2.6-0.2,4.7-0.4,6.4-0.6c1.7-0.2,3.3-0.2,4.9-0.1c1.6,0.1,3.2,0.5,4.9,1.2
			c1.7,0.6,3.9,1.7,6.4,3.3c2,1.4,3.7,3.1,5.2,5c1.4,1.9,2.6,4,3.5,6.1c1,2.2,1.7,4.4,2.2,6.7c0.5,2.3,1,4.5,1.3,6.5l3.4,22.2
			c1,6.5,1.1,11.8,0.3,15.9c-0.8,4.1-2.4,7.5-4.8,10.2c-2.4,2.7-5.4,4.8-9.2,6.3c-3.7,1.5-8.1,2.9-13,4l-1.4,0.2
			c-3.6,0.6-7.4,0.4-11.3-0.4c-3.9-0.8-7.6-2.1-11-3.9c-2.5-1.2-4.5-2.9-6.1-5.1s-2.8-4.5-3.8-7.1c-1-2.6-1.7-5.3-2.2-8.1
			c-0.5-2.8-1-5.4-1.4-7.8l-0.4-2.4c-0.5-3.6-1-7.2-1.5-10.9c-0.4-3.7-0.6-7.4-0.6-11c0-3.6,0.4-7,1.1-10.2c0.7-3.2,1.9-6.1,3.7-8.8
			c1.8-2.6,4.1-4.8,7.1-6.6c3-1.8,6.8-3,11.3-3.8L306.7,178.3z M309,199.2c-2.2,0.7-4,1.2-5.3,1.5c-1.3,0.3-2.3,1.2-2.9,2.6
			c-0.6,1.4-0.8,3.9-0.5,7.3c0.2,3.5,0.9,8.8,1.9,15.9c0.4,2.7,1,5.5,1.7,8.3c0.7,2.9,1.6,5.4,2.6,7.6c1.6,1,3.2,1.5,4.8,1.6
			c1.6,0,3.1,0.1,4.5,0c1.7-0.4,3.2-0.9,4.5-1.3c1.4-0.4,2.4-1.6,3.2-3.5c0.8-2,1.1-4.3,1.1-6.8c0-2.5-0.2-5.1-0.6-7.8
			c-0.6-3.7-1.3-7.7-2-12c-0.8-4.2-1.8-8.4-3-12.5c-1.5-0.8-2.8-1.3-4.1-1.4c-1.3-0.1-2.5,0-3.8,0.2l-2.3,0.3L309,199.2z"/>
		<path class="st0" d="M359.7,176.1c0.2-0.9,0.6-1.7,1.3-2.4c0.7-0.7,1.5-0.9,2.6-0.7l14.7,2.5c0.9,0.2,1.6,1.8,2.1,4.8
			c0.5,3.1,0.8,6.7,1,11s0.3,8.7,0.2,13.3c-0.1,4.6-0.2,8.7-0.4,12.1c0.7-3.6,1.6-7,2.7-10c1.1-3.1,2.3-6,3.4-8.9
			c1.2-2.9,2.3-5.8,3.3-8.7c1.1-2.9,1.9-6,2.4-9.4c0.5-0.1,1.1-0.3,1.8-0.7s1.6-0.5,2.6-0.3l5.5,0.9c1,0.2,1.8,0.6,2.3,1.2
			c0.5,0.6,0.9,1.3,1,2c-0.2,2.3-0.2,4.8-0.1,7.6c0.1,2.8,0.3,5.7,0.6,8.7c0.3,3,0.5,6,0.9,9.1c0.3,3,0.5,6,0.6,8.9
			c1.1-3.5,2.1-7.2,3.2-11.3c1.1-4.1,2.2-7.9,3.4-11.4c1.2-3.5,2.5-6.3,3.8-8.6c1.3-2.2,2.8-3.2,4.4-2.9l14.4,2.4
			c1,0.2,1.8,0.7,2.3,1.7c0.5,0.9,0.7,2,0.5,3.1c-2.8,6.4-5.4,12.5-7.9,18.5c-2.5,6-4.8,11.9-7.1,17.8c-2.2,5.9-4.4,11.9-6.4,17.8
			c-2.1,6-4,12.2-6,18.6c-1.4,2.3-2.6,3.7-3.5,4.3c-0.9,0.6-1.8,0.9-2.5,0.9l-13.1-2.2c-1.6-0.5-2.5-1.6-2.5-3.3
			c0.3-2.6,0.6-5.3,0.6-8c0.1-2.7,0-5.2-0.1-7.5c-0.1-2.3-0.3-4.1-0.6-5.6c-0.2-1.4-0.6-2.2-0.9-2.2c-0.2,0-0.8,0.9-1.7,2.8
			c-0.9,1.9-2,4.1-3.2,6.5c-1.2,2.4-2.4,4.8-3.6,7.2c-1.2,2.3-2.1,3.9-2.7,4.8c-0.6,1.1-1.1,1.7-1.5,2.1c-0.4,0.3-1.1,0.4-2.1,0.4
			l-10.4-1.7c-1.2-0.3-2-2.2-2.4-5.7c-0.4-3.5-0.7-7.9-0.8-13.2c-0.1-5.3-0.2-11.2-0.3-17.7c-0.1-6.5-0.3-12.8-0.7-19
			c-0.2-3.1-0.4-6.6-0.5-10.6c-0.1-3.9-0.1-8.4,0-13.2L359.7,176.1z"/>
	</g>
	<path class="st1" d="M66.2,103.8c-0.2,0.3-0.3,0.6-0.6,0.7c-3.1,1.5-5.1-5.8-5.4-7.5c-0.5-3.3,0-6.7-0.9-10
		c-1.2-4.7-7-8.4-11.2-5.4c-2.2,1.5-1.9,4.4-2.1,6.9c-0.2,2-1.5,6.3-4.5,4.6c-0.8-0.5-1.4-1.3-1.8-2.2c-1.6-4.3-0.5-6.9-1.8-11.3
		c-1-3.1-3.5-6.1-6.7-7.1c-3.2-1-4.8,1.1-5.5,3.7c-0.5,1.9-0.7,2.2-1.2,4.1c-0.5,1.7-1.1,5.4-3.9,3.5c-0.6-0.4-1.1-1.1-1.6-1.7
		C16,78,6,71.1,1.4,76.9s3.2,15.4,7.9,17.3c0.7,0.3,1.5,0.6,2,1.1c2.5,2.3-0.9,3.7-2.5,4.6c-1.7,1-2,1.2-3.8,2.1
		c-2.4,1.3-4,3.3-2.3,6.2c1.8,2.9,5.2,4.7,8.4,4.9c4.5,0.3,6.8-1.3,11.4-0.7c0.9,0.1,1.9,0.5,2.5,1.2c2.3,2.6-1.6,4.8-3.5,5.5
		c-2.3,0.8-5.2,1.1-6.2,3.6c-1.9,4.8,3,9.5,7.8,9.7c3.4,0.1,6.6-1.1,9.9-1.4c1.7-0.1,9.3,0.2,8.5,3.6c-0.1,0.3-0.3,0.6-0.6,0.8
		c-2.3,1.9-8.4,3.8-5.7,8c1.4,2.2,3.7,3.9,6.2,4.6c4.2,1.2,7.2-1,10.6-2.5c5.6-2.6,11.8-2.5,18.1-2.2c3.8,0.2,7.3,2.1,10.9,3.1
		c1.7,0.4,3.5-0.1,4.5-1.4c1-1.3,1-3.2,0.2-4.7c-1.8-3.2-4.4-6.2-5.4-9.8c-1.7-6-3.2-12-1.9-18.1c0.8-3.7,2.2-7.1,0.1-10.9
		c-1.2-2.3-3.4-4.1-5.9-5C68,94.7,67.6,101.1,66.2,103.8z"/>
	<path class="st1" d="M418.5,129.5c-0.3-0.2-0.6-0.3-0.7-0.6c-1.5-3.1,5.8-5.1,7.5-5.4c3.3-0.5,6.7,0,10-0.9c4.7-1.2,8.4-7,5.4-11.2
		c-1.5-2.2-4.4-1.9-6.9-2.1c-2-0.2-6.3-1.5-4.6-4.5c0.5-0.8,1.3-1.4,2.2-1.8c4.3-1.6,6.9-0.5,11.3-1.8c3.1-1,6.1-3.5,7.1-6.7
		c1-3.2-1.1-4.8-3.7-5.5c-1.9-0.5-2.2-0.7-4.1-1.2c-1.7-0.5-5.4-1.1-3.5-3.9c0.4-0.6,1.1-1.1,1.7-1.6c4.1-2.9,11-12.9,5.2-17.5
		c-5.8-4.6-15.4,3.2-17.3,7.9c-0.3,0.7-0.6,1.5-1.1,2c-2.3,2.5-3.7-0.9-4.6-2.5c-1-1.7-1.2-2-2.1-3.8c-1.3-2.4-3.3-4-6.2-2.3
		c-2.9,1.8-4.7,5.2-4.9,8.4c-0.3,4.5,1.3,6.8,0.7,11.4c-0.1,0.9-0.5,1.9-1.2,2.5c-2.6,2.3-4.8-1.6-5.5-3.5c-0.8-2.3-1.1-5.2-3.6-6.2
		c-4.8-1.9-9.5,3-9.7,7.8c-0.1,3.4,1.1,6.6,1.4,9.9c0.1,1.7-0.2,9.3-3.6,8.5c-0.3-0.1-0.6-0.3-0.8-0.6c-1.9-2.3-3.8-8.4-8-5.7
		c-2.2,1.4-3.9,3.7-4.6,6.2c-1.2,4.2,1,7.2,2.5,10.6c2.6,5.6,2.5,11.8,2.2,18.1c-0.2,3.8-2.1,7.3-3.1,10.9c-0.4,1.7,0.1,3.5,1.4,4.5
		c1.3,1,3.2,1,4.7,0.2c3.2-1.8,6.2-4.4,9.8-5.4c6-1.7,12-3.2,18.1-1.9c3.7,0.8,7.1,2.2,10.9,0.1c2.3-1.2,4.1-3.4,5-5.9
		C427.6,131.4,421.2,130.9,418.5,129.5z"/>
</g>
</svg>
