<?xml version="1.0" encoding="utf-8"?>
<!-- Generator: Adobe Illustrator 24.0.1, SVG Export Plug-In . SVG Version: 6.00 Build 0)  -->
<svg version="1.1" id="Layer_1" xmlns="http://www.w3.org/2000/svg" xmlns:xlink="http://www.w3.org/1999/xlink" x="0px" y="0px"
	 viewBox="0 0 80 67" style="enable-background:new 0 0 80 67;" xml:space="preserve">
<style type="text/css">
	.st0{fill:none;}
	.st1{fill:#FFFFFF;}
	.st2{fill:#C56128;}
</style>
<path class="st0" d="M34.5,63c-3.4-4.7,7.3-6,4.4-9.6c-0.5-0.6-1.5-0.9-2.2-1.1c-1.5-0.4-3.2-0.4-4.7-0.2c-2.9,0.4-5.8,1.6-8.8,1.7
	c-4.4,0.1-8.9-3.9-7.4-8.3c0.8-2.2,3.4-2.7,5.4-3.5c1-0.4,2.6-1.3,3.3-2.4l-0.5-2.7c-0.6-0.6-1.4-0.9-2.2-0.9
	c-4.1-0.3-6.1,1.2-10.1,1.1c-2.9-0.1-6.1-1.5-7.8-4c-1.7-2.4-0.3-4.4,1.8-5.6c1.5-0.9,1.7-1.1,3.3-2.1c1.4-0.9,4.4-2.2,2-4.2
	c-0.5-0.4-1.2-0.7-1.9-0.9C5.6,19.2,0.2,13.9,0,9v58h41.6c-0.4,0-0.9-0.1-1.4-0.2C37.9,66.3,35.8,64.9,34.5,63z"/>
<path class="st0" d="M16.9,9.2c0.4,0.6,0.9,1.1,1.5,1.5c2.6,1.6,3-1.7,3.4-3.3c0.4-1.7,0.5-2,0.9-3.7c0.5-2.3,1.9-4.3,4.8-3.5
	c2.9,0.8,5.3,3.3,6.3,6c1.2,3.3,0.7,5.6,1.7,8.6c3.3-0.2,3.8,1,3.8,1l0.4,2.3c0-0.1,0-0.2,0.1-0.3c1.2-0.8,1.7-3.1,1.8-4.3
	c0-2.2-0.3-4.7,1.5-6.2c3.6-2.8,8.9,0.2,10.2,4.3c0.9,2.9,0.7,5.9,1.2,8.9c0.2,1.1,1.6,5.3,3.4,6.4c0.1-0.9,0.2-2.4,0.3-3
	c0.2-1,1.3-0.9,1.3-0.9l1.6,0.2l0,0c0.7-2.3,1.7-4.5,4.5-3.7c2.3,0.7,4.3,2.2,5.5,4.2c2.1,3.3,1,6.4,0.4,9.7
	c-0.9,5.5,0.7,10.7,2.5,16c1.1,3.2,3.5,5.6,5.3,8.5c0.4,0.6,0.6,1.3,0.6,2V0H0v8.5c0-1.1,0.4-2.1,1.1-3.1C4.9,0,14.2,5.6,16.9,9.2z"
	/>
<path class="st0" d="M39.9,19.9c0-0.1,0-0.2-0.1-0.3l0.3,1.8c0-0.3-0.1-0.6-0.1-0.8C40,20.3,40,20.1,39.9,19.9z"/>
<path class="st0" d="M57.9,27.6C57.9,27.6,57.9,27.5,57.9,27.6C57.9,27.5,57.9,27.5,57.9,27.6L57.9,27.6z"/>
<path class="st0" d="M32.1,15.1c-0.1,0-0.2,0.1-0.2,0.1c0.5-0.1,0.9-0.1,1.4-0.2C32.9,15,32.5,15,32.1,15.1z"/>
<path class="st0" d="M79.4,62.1c-0.8,1.1-2.4,1.8-3.9,1.4c-3.3-0.7-6.5-2.2-9.9-2.2c-5.6,0-11.1,0.2-16,2.8
	c-2.4,1.2-4.5,2.8-7.2,2.9H80v-6.8C80,60.9,79.8,61.5,79.4,62.1z"/>
<path class="st1" d="M59.5,23c0,0-1.1-0.1-1.3,0.9c-0.1,0.7-0.3,2.2-0.3,3c0,0,0,0,0,0c0,0.2-0.1,0.4-0.1,0.5c0,0,0,0.1,0,0.1l0,0
	c-0.1,0.8-0.2,1.7-0.3,2.7c-0.1,1.4-0.3,2.9-0.5,4.4l-5.5-0.9c0.2-0.9,0.3-1.8,0.5-2.7c0.2-0.9,0.4-1.8,0.5-2.7
	c0.1-0.9,0.3-1.7,0.5-2.4c0.2-0.7,0.3-1.4,0.4-1.9c0.3-1.8-0.7-2.1-2.3-2.4c-1.2-0.2-4.5-1.2-5.2,0.2c-1.1,2.2-1.1,5.1-1.4,7.6
	c-0.2,2.2-0.5,4.4-0.8,6.6L43,40.5l-0.1-0.7c0-0.4-0.2-0.6-0.5-0.8c-0.2-0.1-0.5-0.2-0.8-0.2c-2.2,0.3-6.7,3.2-8.5,0.6
	c-0.3-0.4-0.4-1-0.5-1.4c-0.8-3.2-1.1-6.5-1.6-9.7c-0.2-1.3-0.2-2.7,0.1-4c1.3-1,3.3-1.1,4.9-1.3c1.1-0.1,2.6,0.4,3.5-0.1
	c0.6-0.3,0.7-0.9,0.7-1.6l-0.3-1.8c-0.1-0.4-0.2-1-0.2-1.4l-0.4-2.3c0,0-0.5-1.2-3.8-1c0,0,0,0,0,0c-0.5,0-1.1,0.1-1.5,0.1
	c-0.2,0-0.4,0-0.6,0c-0.4,0.1-0.9,0.1-1.4,0.2c-2.5,0.7-4.4,1.6-5.7,2.7c-1.3,1.1-2.3,2.4-2.9,3.7c-0.6,1.3-0.8,2.8-0.8,4.3
	c0.1,1.5,0.2,3,0.4,4.5l0.3,2.1c0,0.4,0.1,0.7,0.1,0.6l0.5,3.6c0,0,0,0,0,0l0.5,2.7c0,0,0,0,0,0c0.2,0.8,0.4,1.6,0.7,2.3
	c0.5,1.4,1.3,2.7,2.3,3.7c1,1.1,2.2,1.9,3.7,2.4c1.5,0.5,3.3,0.6,5.4,0.3l1.8-0.2c1.1-0.1,2.1-0.4,3.2-0.8c0,0,0.1,0,0.2-0.1
	c-0.1,0.4-0.2,0.8-0.3,1.2c-0.4,1.3-0.6,2.4-0.8,3.3c0,0.4-0.1,0.7,0,0.9c0,0.2,0.2,0.4,0.4,0.6c0.2,0.1,0.5,0.2,1,0.3
	c0.4,0.1,1,0.2,1.8,0.3c1.3,0.2,2.3,0.3,2.9,0.4c0.7,0,1.1,0,1.3-0.3c0.1-0.1,0.2-0.5,0.4-1c0.2-0.5,0.4-1.2,0.6-2
	c0.2-0.8,0.4-1.6,0.6-2.5c0.2-0.9,0.4-1.8,0.5-2.6c0.1-1.1,0.3-1.8,0.3-2.4c0-0.5,0.1-1.1,0.1-1.7l5,1.1l-0.1,0.7l-0.1,0.8
	c0,0.1,0,0.3-0.1,0.4c0,0.1-0.1,0.3-0.1,0.5l-1,5.7c-0.2,1.1-0.3,1.9-0.4,2.5c-0.1,0.6,0,1.1,0.1,1.4c0.1,0.3,0.4,0.5,0.7,0.7
	c0.3,0.1,0.9,0.2,1.5,0.3l0.4,0l1.4,0.2c0.8,0.1,1.5,0.2,2.2,0.2c0.7,0,1.1-0.1,1.2-0.3c0.1-0.1,0.3-0.5,0.4-1
	c0.1-0.5,0.3-1.1,0.5-1.9c0.2-0.7,0.3-1.5,0.5-2.5c0.2-0.9,0.4-1.9,0.5-2.9l0.3-2.1l0.2-1l0.1-0.5c0-0.3,0-0.4,0-0.5l2.6-15.4
	c0.1-1,0.2-1.7,0.2-2.2c0-0.6-0.1-1-0.3-1.3c-0.1-0.3-0.3-0.6-0.6-0.7c-0.2-0.1-0.6-0.2-0.9-0.3c-0.6-0.1-1.2-0.2-1.6-0.3
	c-0.5-0.1-0.9-0.2-1.3-0.2c-0.3,0-0.5-0.1-0.7-0.1c0,0,0,0,0-0.1l0,0L59.5,23z"/>
<g>
	<path class="st2" d="M30.9,28.2c0.5,3.2,0.9,6.5,1.6,9.7c0.1,0.5,0.2,1,0.5,1.4c1.8,2.6,6.3-0.2,8.5-0.6c0.3,0,0.6,0,0.8,0.2
		c0.2,0.2,0.4,0.4,0.5,0.8l0.1,0.7l0.8-4.5c0.3-2.2,0.6-4.4,0.8-6.6c0.3-2.4,0.3-5.3,1.4-7.6c0.7-1.4,4-0.4,5.2-0.2
		c1.6,0.3,2.6,0.6,2.3,2.4c-0.1,0.5-0.2,1.2-0.4,1.9c-0.1,0.8-0.3,1.6-0.5,2.4c-0.1,0.9-0.3,1.8-0.5,2.7c-0.2,0.9-0.3,1.8-0.5,2.7
		l5.5,0.9c0.2-1.5,0.4-3,0.5-4.4c0.1-1,0.2-1.9,0.3-2.7c0,0,0,0,0-0.1c0-0.2,0.1-0.4,0.1-0.5c0,0,0,0,0,0c-1.9-1.1-3.2-5.2-3.4-6.4
		c-0.6-2.9-0.3-6-1.2-8.9C51.9,7.6,46.6,4.5,43,7.4c-1.9,1.5-1.5,4.1-1.5,6.2c0,1.2-0.5,3.5-1.8,4.3c0,0-0.1,0.1-0.1,0.3
		c0,0.4,0.1,1,0.2,1.4c0,0.1,0.1,0.3,0.1,0.3c0,0.2,0.1,0.4,0.1,0.6c0.1,0.3,0.1,0.6,0.1,0.8c0,0.6-0.1,1.2-0.7,1.6
		c-0.9,0.5-2.5,0-3.5,0.1c-1.6,0.1-3.6,0.3-4.9,1.3C30.8,25.6,30.7,26.9,30.9,28.2z"/>
	<path class="st2" d="M79.4,57.9c-1.8-2.8-4.2-5.3-5.3-8.5c-1.8-5.3-3.4-10.6-2.5-16c0.5-3.3,1.6-6.4-0.4-9.7
		c-1.2-2-3.2-3.5-5.5-4.2c-2.8-0.9-3.8,1.4-4.5,3.7c0,0,0,0,0,0.1c0.2,0,0.4,0,0.7,0.1c0.4,0,0.8,0.1,1.3,0.2c0.5,0.1,1,0.2,1.6,0.3
		c0.3,0,0.7,0.1,0.9,0.3c0.3,0.1,0.5,0.4,0.6,0.7c0.1,0.3,0.2,0.8,0.3,1.3c0,0.6,0,1.3-0.2,2.2l-2.6,15.4c0,0.1,0,0.2,0,0.5
		l-0.1,0.5l-0.2,1l-0.3,2.1c-0.1,1-0.3,2-0.5,2.9c-0.2,1-0.3,1.8-0.5,2.5c-0.2,0.7-0.3,1.3-0.5,1.9c-0.1,0.5-0.3,0.8-0.4,1
		c-0.1,0.2-0.5,0.3-1.2,0.3c-0.7,0-1.4-0.1-2.2-0.2l-1.4-0.2l-0.4,0c-0.6-0.1-1.2-0.2-1.5-0.3c-0.3-0.1-0.6-0.4-0.7-0.7
		c-0.1-0.3-0.2-0.8-0.1-1.4c0-0.6,0.2-1.4,0.4-2.5l1-5.7c0-0.2,0.1-0.3,0.1-0.5c0-0.1,0.1-0.3,0.1-0.4l0.1-0.8l0.1-0.7l-5-1.1
		c0,0.6,0,1.1-0.1,1.7c0,0.6-0.2,1.3-0.3,2.4c-0.1,0.9-0.3,1.7-0.5,2.6c-0.2,0.9-0.4,1.7-0.6,2.5c-0.2,0.8-0.4,1.4-0.6,2
		c-0.2,0.5-0.3,0.9-0.4,1c-0.2,0.2-0.7,0.3-1.3,0.3c-0.7,0-1.6-0.2-2.9-0.4c-0.8-0.1-1.3-0.2-1.8-0.3c-0.4-0.1-0.8-0.2-1-0.3
		c-0.2-0.1-0.3-0.3-0.4-0.6c0-0.2,0-0.5,0-0.9c0.1-0.8,0.4-1.9,0.8-3.3c0.1-0.4,0.2-0.8,0.3-1.2c0,0-0.1,0-0.2,0.1
		c-1.1,0.4-2.1,0.7-3.2,0.8l-1.8,0.2c-2.1,0.3-3.9,0.2-5.4-0.3c-1.5-0.5-2.7-1.3-3.7-2.4c-1-1.1-1.8-2.3-2.3-3.7
		c-0.3-0.8-0.5-1.6-0.7-2.3c0,0,0,0,0,0c-0.6,1-2.3,2-3.3,2.4c-2.1,0.8-4.6,1.2-5.4,3.5c-1.5,4.4,3.1,8.4,7.4,8.3
		c3,0,5.9-1.2,8.8-1.7c1.5-0.2,3.2-0.1,4.7,0.2c0.7,0.2,1.7,0.4,2.2,1.1c2.9,3.6-7.8,4.9-4.4,9.6c1.3,1.9,3.5,3.3,5.8,3.8
		c0.5,0.1,0.9,0.2,1.4,0.2h0.8c2.7-0.1,4.8-1.7,7.2-2.9c4.9-2.6,10.5-2.8,16-2.8c3.4,0,6.6,1.6,9.9,2.2c1.5,0.3,3.1-0.3,3.9-1.4
		c0.4-0.5,0.5-1.2,0.6-1.8v-0.4C80,59.2,79.8,58.5,79.4,57.9z"/>
	<path class="st2" d="M21.6,36c0.8,0,1.7,0.3,2.2,0.9c0,0,0,0,0,0l-0.5-3.6c0,0,0-0.2-0.1-0.6L23,30.5c-0.2-1.5-0.3-3.1-0.4-4.5
		c0-1.5,0.2-3,0.8-4.3c0.6-1.3,1.5-2.6,2.9-3.7c1.3-1.1,3.2-2,5.7-2.7c0.1,0,0.2-0.1,0.2-0.1c0.4-0.1,0.8-0.1,1.1-0.1
		c0.2,0,0.4,0,0.6,0c0.5,0,1-0.1,1.5-0.1c0,0,0,0,0,0c-1-3.1-0.5-5.3-1.7-8.6c-1-2.7-3.4-5.2-6.3-6c-2.9-0.8-4.2,1.1-4.8,3.5
		c-0.4,1.8-0.5,2-0.9,3.7c-0.4,1.6-0.7,4.8-3.4,3.3c-0.6-0.4-1.1-0.9-1.5-1.5C14.2,5.6,4.9,0,1.1,5.4c-0.7,1-1,2-1.1,3.1V9
		c0.2,4.8,5.6,10.2,8.9,11.3c0.7,0.2,1.3,0.5,1.9,0.9c2.4,2-0.6,3.3-2,4.2c-1.5,1-1.7,1.1-3.3,2.1c-2.1,1.2-3.5,3.2-1.8,5.6
		c1.7,2.5,4.9,3.9,7.8,4C15.5,37.2,17.5,35.7,21.6,36z"/>
</g>
</svg>
